G04 Layer: BottomLayer*
G04 EasyEDA v6.4.14, 2021-01-31T15:52:51+00:00*
G04 53acab47483b404e891b66caa61737d9,c23c5ad5fcdd482d9714491510f6a4f3,10*
G04 Gerber Generator version 0.2*
G04 Scale: 100 percent, Rotated: No, Reflected: No *
G04 Dimensions in millimeters *
G04 leading zeros omitted , absolute positions ,4 integer and 5 decimal *
%FSLAX45Y45*%
%MOMM*%

%ADD11C,0.7000*%
%ADD12C,0.4000*%
%ADD14C,1.0000*%
%ADD16C,0.5000*%
%ADD17C,0.6096*%
%ADD18C,2.0000*%
%ADD19C,1.8000*%
%ADD20R,1.8000X1.8000*%
%ADD21R,1.7500X1.7500*%
%ADD22C,1.7500*%
%ADD23R,2.0000X2.0000*%

%LPD*%
G36*
X200355Y23063D02*
G01*
X182422Y24028D01*
X165506Y26568D01*
X148945Y30784D01*
X132842Y36576D01*
X117398Y43942D01*
X102768Y52781D01*
X89052Y62991D01*
X76403Y74523D01*
X64973Y87223D01*
X54813Y100990D01*
X46075Y115671D01*
X38760Y131165D01*
X33070Y147269D01*
X28956Y163880D01*
X26517Y180797D01*
X25654Y198272D01*
X25654Y2819146D01*
X26619Y2837586D01*
X29159Y2854502D01*
X33375Y2871063D01*
X39166Y2887167D01*
X46532Y2902610D01*
X55372Y2917240D01*
X65582Y2930956D01*
X77114Y2943606D01*
X89814Y2955036D01*
X103581Y2965196D01*
X118262Y2973933D01*
X133756Y2981248D01*
X149860Y2986938D01*
X166471Y2991053D01*
X183388Y2993491D01*
X200863Y2994355D01*
X6249162Y2994355D01*
X6267602Y2993390D01*
X6284468Y2990850D01*
X6301079Y2986633D01*
X6317183Y2980842D01*
X6332575Y2973476D01*
X6347256Y2964637D01*
X6360972Y2954426D01*
X6373571Y2942894D01*
X6385052Y2930194D01*
X6395212Y2916428D01*
X6403949Y2901746D01*
X6411214Y2886252D01*
X6416954Y2870149D01*
X6421018Y2853537D01*
X6423507Y2836621D01*
X6424371Y2819146D01*
X6424371Y198272D01*
X6423406Y179832D01*
X6420866Y162915D01*
X6416649Y146354D01*
X6410858Y130251D01*
X6403492Y114808D01*
X6394653Y100177D01*
X6384391Y86461D01*
X6372910Y73812D01*
X6360160Y62382D01*
X6346393Y52222D01*
X6331712Y43484D01*
X6316218Y36169D01*
X6300114Y30480D01*
X6283502Y26365D01*
X6266586Y23926D01*
X6249162Y23063D01*
G37*

%LPC*%
G36*
X5960973Y2509215D02*
G01*
X5979515Y2510637D01*
X5997803Y2513990D01*
X6015634Y2519172D01*
X6032855Y2526182D01*
X6049314Y2534920D01*
X6064707Y2545334D01*
X6078982Y2557221D01*
X6091986Y2570581D01*
X6103518Y2585161D01*
X6113526Y2600858D01*
X6121806Y2617470D01*
X6128410Y2634894D01*
X6133134Y2652877D01*
X6135979Y2671216D01*
X6136944Y2689809D01*
X6135979Y2708402D01*
X6133134Y2726740D01*
X6128410Y2744724D01*
X6121806Y2762148D01*
X6113526Y2778760D01*
X6103518Y2794457D01*
X6091986Y2809036D01*
X6078982Y2822397D01*
X6064707Y2834284D01*
X6049314Y2844698D01*
X6032855Y2853436D01*
X6015634Y2860446D01*
X5997803Y2865628D01*
X5979515Y2868930D01*
X5960973Y2870403D01*
X5942380Y2869895D01*
X5923889Y2867507D01*
X5905804Y2863240D01*
X5888228Y2857144D01*
X5871413Y2849270D01*
X5855462Y2839669D01*
X5840577Y2828544D01*
X5826912Y2815894D01*
X5814669Y2801924D01*
X5803900Y2786735D01*
X5794705Y2770581D01*
X5787288Y2753512D01*
X5781598Y2735834D01*
X5777788Y2717596D01*
X5775909Y2699105D01*
X5775909Y2680512D01*
X5777788Y2662021D01*
X5781598Y2643784D01*
X5787288Y2626106D01*
X5794705Y2609037D01*
X5803900Y2592882D01*
X5814669Y2577693D01*
X5826912Y2563723D01*
X5840577Y2551074D01*
X5855462Y2539949D01*
X5871413Y2530348D01*
X5888228Y2522474D01*
X5905804Y2516378D01*
X5923889Y2512110D01*
X5942380Y2509723D01*
G37*
G36*
X5263337Y2505252D02*
G01*
X5275478Y2506167D01*
X5287416Y2508758D01*
X5298897Y2513025D01*
X5309616Y2518867D01*
X5319369Y2526182D01*
X5328005Y2534818D01*
X5335371Y2544622D01*
X5341213Y2555341D01*
X5345480Y2566771D01*
X5348071Y2578709D01*
X5348935Y2590901D01*
X5348071Y2603093D01*
X5345480Y2615031D01*
X5341213Y2626461D01*
X5335371Y2637180D01*
X5328005Y2646984D01*
X5319369Y2655620D01*
X5309616Y2662936D01*
X5298897Y2668778D01*
X5287416Y2673045D01*
X5275478Y2675636D01*
X5263337Y2676550D01*
X5251145Y2675636D01*
X5239207Y2673045D01*
X5227726Y2668778D01*
X5217007Y2662936D01*
X5207254Y2655620D01*
X5198618Y2646984D01*
X5191252Y2637180D01*
X5185410Y2626461D01*
X5181142Y2615031D01*
X5178552Y2603093D01*
X5177688Y2590901D01*
X5178552Y2578709D01*
X5181142Y2566771D01*
X5185410Y2555341D01*
X5191252Y2544622D01*
X5198618Y2534818D01*
X5207254Y2526182D01*
X5217007Y2518867D01*
X5227726Y2513025D01*
X5239207Y2508758D01*
X5251145Y2506167D01*
G37*
G36*
X284073Y286715D02*
G01*
X302615Y288137D01*
X320903Y291490D01*
X338734Y296672D01*
X355955Y303682D01*
X372414Y312420D01*
X387807Y322834D01*
X402082Y334721D01*
X415086Y348081D01*
X426618Y362661D01*
X436626Y378358D01*
X444906Y394970D01*
X451510Y412394D01*
X456234Y430377D01*
X459079Y448716D01*
X460044Y467309D01*
X459079Y485901D01*
X456234Y504240D01*
X451510Y522224D01*
X444906Y539648D01*
X436626Y556260D01*
X426618Y571957D01*
X415086Y586536D01*
X402082Y599897D01*
X387807Y611784D01*
X372414Y622198D01*
X355955Y630936D01*
X338734Y637946D01*
X320903Y643128D01*
X302615Y646430D01*
X284073Y647903D01*
X265480Y647395D01*
X246989Y645007D01*
X228904Y640740D01*
X211328Y634644D01*
X194513Y626770D01*
X178562Y617169D01*
X163677Y606044D01*
X150012Y593394D01*
X137769Y579424D01*
X127000Y564235D01*
X117805Y548081D01*
X110388Y531012D01*
X104698Y513334D01*
X100888Y495096D01*
X99009Y476605D01*
X99009Y458012D01*
X100888Y439521D01*
X104698Y421284D01*
X110388Y403606D01*
X117805Y386537D01*
X127000Y370382D01*
X137769Y355193D01*
X150012Y341223D01*
X163677Y328574D01*
X178562Y317449D01*
X194513Y307848D01*
X211328Y299974D01*
X228904Y293878D01*
X246989Y289610D01*
X265480Y287223D01*
G37*
G36*
X5948273Y299415D02*
G01*
X5966815Y300837D01*
X5985103Y304190D01*
X6002934Y309372D01*
X6020155Y316382D01*
X6036614Y325120D01*
X6052007Y335534D01*
X6066282Y347421D01*
X6079286Y360781D01*
X6090818Y375361D01*
X6100826Y391058D01*
X6109106Y407670D01*
X6115710Y425094D01*
X6120434Y443077D01*
X6123279Y461416D01*
X6124244Y480009D01*
X6123279Y498601D01*
X6120434Y516940D01*
X6115710Y534924D01*
X6109106Y552348D01*
X6100826Y568960D01*
X6090818Y584657D01*
X6079286Y599236D01*
X6066282Y612597D01*
X6052007Y624484D01*
X6036614Y634898D01*
X6020155Y643636D01*
X6002934Y650646D01*
X5985103Y655828D01*
X5966815Y659130D01*
X5948273Y660603D01*
X5929680Y660095D01*
X5911189Y657707D01*
X5893104Y653440D01*
X5875528Y647344D01*
X5858713Y639470D01*
X5842762Y629869D01*
X5827877Y618744D01*
X5814212Y606094D01*
X5801969Y592124D01*
X5791200Y576935D01*
X5782005Y560781D01*
X5774588Y543712D01*
X5768898Y526034D01*
X5765088Y507796D01*
X5763209Y489305D01*
X5763209Y470712D01*
X5765088Y452221D01*
X5768898Y433984D01*
X5774588Y416306D01*
X5782005Y399237D01*
X5791200Y383082D01*
X5801969Y367893D01*
X5814212Y353923D01*
X5827877Y341274D01*
X5842762Y330149D01*
X5858713Y320548D01*
X5875528Y312674D01*
X5893104Y306578D01*
X5911189Y302310D01*
X5929680Y299923D01*
G37*
G36*
X736600Y367080D02*
G01*
X751738Y367995D01*
X766673Y370738D01*
X781151Y375259D01*
X794969Y381457D01*
X807974Y389331D01*
X819912Y398678D01*
X830630Y409397D01*
X839978Y421335D01*
X847852Y434340D01*
X854049Y448157D01*
X858570Y462635D01*
X861314Y477570D01*
X862228Y492709D01*
X861314Y507847D01*
X858570Y522782D01*
X854049Y537260D01*
X847852Y551078D01*
X839978Y564083D01*
X830630Y576021D01*
X819912Y586740D01*
X807974Y596087D01*
X794969Y603961D01*
X781151Y610158D01*
X766673Y614680D01*
X751738Y617423D01*
X736600Y618337D01*
X721461Y617423D01*
X706526Y614680D01*
X692048Y610158D01*
X678230Y603961D01*
X665226Y596087D01*
X653288Y586740D01*
X642569Y576021D01*
X633222Y564083D01*
X625348Y551078D01*
X619150Y537260D01*
X614629Y522782D01*
X611886Y507847D01*
X610971Y492709D01*
X611886Y477570D01*
X614629Y462635D01*
X619150Y448157D01*
X625348Y434340D01*
X633222Y421335D01*
X642569Y409397D01*
X653288Y398678D01*
X665226Y389331D01*
X678230Y381457D01*
X692048Y375259D01*
X706526Y370738D01*
X721461Y367995D01*
G37*
G36*
X1136243Y417677D02*
G01*
X1173073Y417677D01*
X1173073Y480720D01*
X1110030Y480720D01*
X1110030Y443890D01*
X1110742Y437591D01*
X1112621Y432206D01*
X1115669Y427329D01*
X1119733Y423316D01*
X1124610Y420268D01*
X1129995Y418338D01*
G37*
G36*
X1273302Y417677D02*
G01*
X1310132Y417677D01*
X1316380Y418338D01*
X1321765Y420268D01*
X1326642Y423316D01*
X1330706Y427329D01*
X1333754Y432206D01*
X1335633Y437591D01*
X1336344Y443890D01*
X1336344Y480720D01*
X1273302Y480720D01*
G37*
G36*
X2025243Y417677D02*
G01*
X2199132Y417677D01*
X2205380Y418338D01*
X2210765Y420268D01*
X2215642Y423316D01*
X2219706Y427329D01*
X2222754Y432206D01*
X2224633Y437591D01*
X2225344Y443890D01*
X2225344Y617728D01*
X2224633Y624027D01*
X2222754Y629412D01*
X2219706Y634238D01*
X2215642Y638302D01*
X2210765Y641350D01*
X2205380Y643280D01*
X2199132Y643940D01*
X2025243Y643940D01*
X2018995Y643280D01*
X2013610Y641350D01*
X2008733Y638302D01*
X2004669Y634238D01*
X2001621Y629412D01*
X1999742Y624027D01*
X1999030Y617728D01*
X1999030Y443890D01*
X1999742Y437591D01*
X2001621Y432206D01*
X2004669Y427329D01*
X2008733Y423316D01*
X2013610Y420268D01*
X2018995Y418338D01*
G37*
G36*
X4363313Y2505252D02*
G01*
X4375505Y2506167D01*
X4387443Y2508758D01*
X4398873Y2513025D01*
X4409592Y2518867D01*
X4419396Y2526182D01*
X4428032Y2534818D01*
X4435348Y2544622D01*
X4441190Y2555341D01*
X4445457Y2566771D01*
X4448048Y2578709D01*
X4448962Y2590901D01*
X4448048Y2603093D01*
X4445457Y2615031D01*
X4441190Y2626461D01*
X4435348Y2637180D01*
X4428032Y2646984D01*
X4419396Y2655620D01*
X4409592Y2662936D01*
X4398873Y2668778D01*
X4387443Y2673045D01*
X4375505Y2675636D01*
X4363313Y2676550D01*
X4351121Y2675636D01*
X4339183Y2673045D01*
X4327753Y2668778D01*
X4317034Y2662936D01*
X4307230Y2655620D01*
X4298594Y2646984D01*
X4291279Y2637180D01*
X4285437Y2626461D01*
X4281170Y2615031D01*
X4278579Y2603093D01*
X4277664Y2590901D01*
X4278579Y2578709D01*
X4281170Y2566771D01*
X4285437Y2555341D01*
X4291279Y2544622D01*
X4298594Y2534818D01*
X4307230Y2526182D01*
X4317034Y2518867D01*
X4327753Y2513025D01*
X4339183Y2508758D01*
X4351121Y2506167D01*
G37*
G36*
X3289960Y2457704D02*
G01*
X3304489Y2457704D01*
X3318865Y2459482D01*
X3332937Y2463088D01*
X3346450Y2468473D01*
X3359150Y2475433D01*
X3370935Y2483967D01*
X3381501Y2493924D01*
X3390747Y2505100D01*
X3398520Y2517394D01*
X3404717Y2530500D01*
X3409187Y2544318D01*
X3411931Y2558592D01*
X3412845Y2573070D01*
X3411931Y2587599D01*
X3409187Y2601823D01*
X3404717Y2615641D01*
X3398520Y2628798D01*
X3390747Y2641041D01*
X3381501Y2652268D01*
X3370935Y2662174D01*
X3359150Y2670708D01*
X3346450Y2677718D01*
X3332937Y2683052D01*
X3318865Y2686659D01*
X3304489Y2688488D01*
X3289960Y2688488D01*
X3275533Y2686659D01*
X3261461Y2683052D01*
X3247948Y2677718D01*
X3235248Y2670708D01*
X3223514Y2662174D01*
X3212896Y2652268D01*
X3203651Y2641041D01*
X3195878Y2628798D01*
X3189681Y2615641D01*
X3185210Y2601823D01*
X3182467Y2587599D01*
X3181553Y2573070D01*
X3182467Y2558592D01*
X3185210Y2544318D01*
X3189681Y2530500D01*
X3195878Y2517394D01*
X3203651Y2505100D01*
X3212896Y2493924D01*
X3223514Y2483967D01*
X3235248Y2475433D01*
X3247948Y2468473D01*
X3261461Y2463088D01*
X3275533Y2459482D01*
G37*
G36*
X4377131Y417728D02*
G01*
X4391558Y419150D01*
X4405680Y422351D01*
X4419295Y427380D01*
X4432147Y434085D01*
X4444034Y442366D01*
X4454753Y452120D01*
X4464151Y463143D01*
X4472076Y475284D01*
X4478375Y488340D01*
X4482947Y502107D01*
X4485690Y516331D01*
X4486656Y530809D01*
X4485690Y545287D01*
X4482947Y559511D01*
X4478375Y573278D01*
X4472076Y586333D01*
X4464151Y598474D01*
X4454753Y609498D01*
X4444034Y619252D01*
X4432147Y627532D01*
X4419295Y634238D01*
X4405680Y639267D01*
X4391558Y642467D01*
X4377131Y643890D01*
X4362653Y643432D01*
X4348327Y641096D01*
X4334408Y636981D01*
X4321149Y631088D01*
X4308754Y623620D01*
X4297426Y614578D01*
X4287367Y604164D01*
X4278680Y592531D01*
X4271568Y579882D01*
X4266133Y566470D01*
X4262475Y552450D01*
X4260596Y538073D01*
X4260596Y523544D01*
X4262475Y509168D01*
X4266133Y495147D01*
X4271568Y481736D01*
X4278680Y469087D01*
X4287367Y457454D01*
X4297426Y447040D01*
X4308754Y437997D01*
X4321149Y430530D01*
X4334408Y424637D01*
X4348327Y420522D01*
X4362653Y418185D01*
G37*
G36*
X4127144Y417728D02*
G01*
X4141571Y419150D01*
X4155694Y422351D01*
X4169308Y427380D01*
X4182160Y434085D01*
X4194048Y442366D01*
X4204766Y452120D01*
X4214164Y463143D01*
X4222089Y475284D01*
X4228388Y488340D01*
X4232960Y502107D01*
X4235704Y516331D01*
X4236669Y530809D01*
X4235704Y545287D01*
X4232960Y559511D01*
X4228388Y573278D01*
X4222089Y586333D01*
X4214164Y598474D01*
X4204766Y609498D01*
X4194048Y619252D01*
X4182160Y627532D01*
X4169308Y634238D01*
X4155694Y639267D01*
X4141571Y642467D01*
X4127144Y643890D01*
X4112666Y643432D01*
X4098340Y641096D01*
X4084421Y636981D01*
X4071162Y631088D01*
X4058767Y623620D01*
X4047439Y614578D01*
X4037380Y604164D01*
X4028694Y592531D01*
X4021582Y579882D01*
X4016146Y566470D01*
X4012488Y552450D01*
X4010609Y538073D01*
X4010609Y523544D01*
X4012488Y509168D01*
X4016146Y495147D01*
X4021582Y481736D01*
X4028694Y469087D01*
X4037380Y457454D01*
X4047439Y447040D01*
X4058767Y437997D01*
X4071162Y430530D01*
X4084421Y424637D01*
X4098340Y420522D01*
X4112666Y418185D01*
G37*
G36*
X1476806Y417728D02*
G01*
X1491234Y419150D01*
X1505407Y422351D01*
X1518970Y427380D01*
X1531823Y434085D01*
X1543761Y442366D01*
X1554480Y452120D01*
X1563878Y463143D01*
X1571752Y475284D01*
X1578051Y488340D01*
X1582623Y502107D01*
X1585417Y516331D01*
X1586331Y530809D01*
X1585417Y545287D01*
X1582623Y559511D01*
X1578051Y573278D01*
X1571752Y586333D01*
X1563878Y598474D01*
X1554480Y609498D01*
X1543761Y619252D01*
X1531823Y627532D01*
X1518970Y634238D01*
X1505407Y639267D01*
X1491234Y642467D01*
X1476806Y643890D01*
X1462328Y643432D01*
X1448003Y641096D01*
X1434134Y636981D01*
X1420876Y631088D01*
X1408480Y623620D01*
X1397152Y614578D01*
X1387043Y604164D01*
X1378407Y592531D01*
X1371295Y579882D01*
X1365808Y566470D01*
X1362151Y552450D01*
X1360322Y538073D01*
X1360322Y523544D01*
X1362151Y509168D01*
X1365808Y495147D01*
X1371295Y481736D01*
X1378407Y469087D01*
X1387043Y457454D01*
X1397152Y447040D01*
X1408480Y437997D01*
X1420876Y430530D01*
X1434134Y424637D01*
X1448003Y420522D01*
X1462328Y418185D01*
G37*
G36*
X2365806Y417728D02*
G01*
X2380234Y419150D01*
X2394407Y422351D01*
X2407970Y427380D01*
X2420823Y434085D01*
X2432761Y442366D01*
X2443480Y452120D01*
X2452878Y463143D01*
X2460752Y475284D01*
X2467051Y488340D01*
X2471623Y502107D01*
X2474417Y516331D01*
X2475331Y530809D01*
X2474417Y545287D01*
X2471623Y559511D01*
X2467051Y573278D01*
X2460752Y586333D01*
X2452878Y598474D01*
X2443480Y609498D01*
X2432761Y619252D01*
X2420823Y627532D01*
X2407970Y634238D01*
X2394407Y639267D01*
X2380234Y642467D01*
X2365806Y643890D01*
X2351328Y643432D01*
X2337003Y641096D01*
X2323134Y636981D01*
X2309876Y631088D01*
X2297480Y623620D01*
X2286152Y614578D01*
X2276043Y604164D01*
X2267407Y592531D01*
X2260295Y579882D01*
X2254808Y566470D01*
X2251151Y552450D01*
X2249322Y538073D01*
X2249322Y523544D01*
X2251151Y509168D01*
X2254808Y495147D01*
X2260295Y481736D01*
X2267407Y469087D01*
X2276043Y457454D01*
X2286152Y447040D01*
X2297480Y437997D01*
X2309876Y430530D01*
X2323134Y424637D01*
X2337003Y420522D01*
X2351328Y418185D01*
G37*
G36*
X3589934Y2457704D02*
G01*
X3604463Y2457704D01*
X3618890Y2459482D01*
X3632962Y2463088D01*
X3646424Y2468473D01*
X3659174Y2475433D01*
X3670909Y2483967D01*
X3681476Y2493924D01*
X3690772Y2505100D01*
X3698544Y2517394D01*
X3704742Y2530500D01*
X3709212Y2544318D01*
X3711905Y2558592D01*
X3712819Y2573070D01*
X3711905Y2587599D01*
X3709212Y2601823D01*
X3704742Y2615641D01*
X3698544Y2628798D01*
X3690772Y2641041D01*
X3681476Y2652268D01*
X3670909Y2662174D01*
X3659174Y2670708D01*
X3646424Y2677718D01*
X3632962Y2683052D01*
X3618890Y2686659D01*
X3604463Y2688488D01*
X3589934Y2688488D01*
X3575558Y2686659D01*
X3561486Y2683052D01*
X3547973Y2677718D01*
X3535222Y2670708D01*
X3523487Y2662174D01*
X3512921Y2652268D01*
X3503676Y2641041D01*
X3495852Y2628798D01*
X3489706Y2615641D01*
X3485184Y2601823D01*
X3482492Y2587599D01*
X3481578Y2573070D01*
X3482492Y2558592D01*
X3485184Y2544318D01*
X3489706Y2530500D01*
X3495852Y2517394D01*
X3503676Y2505100D01*
X3512921Y2493924D01*
X3523487Y2483967D01*
X3535222Y2475433D01*
X3547973Y2468473D01*
X3561486Y2463088D01*
X3575558Y2459482D01*
G37*
G36*
X1273302Y580898D02*
G01*
X1336344Y580898D01*
X1336344Y617728D01*
X1335633Y624027D01*
X1333754Y629412D01*
X1330706Y634238D01*
X1326642Y638302D01*
X1321765Y641350D01*
X1316380Y643280D01*
X1310132Y643940D01*
X1273302Y643940D01*
G37*
G36*
X1110030Y580898D02*
G01*
X1173073Y580898D01*
X1173073Y643940D01*
X1136243Y643940D01*
X1129995Y643280D01*
X1124610Y641350D01*
X1119733Y638302D01*
X1115669Y634238D01*
X1112621Y629412D01*
X1110742Y624027D01*
X1110030Y617728D01*
G37*
G36*
X2389936Y2457704D02*
G01*
X2404465Y2457704D01*
X2418892Y2459482D01*
X2432964Y2463088D01*
X2446426Y2468473D01*
X2459177Y2475433D01*
X2470912Y2483967D01*
X2481478Y2493924D01*
X2490774Y2505100D01*
X2498547Y2517394D01*
X2504744Y2530500D01*
X2509215Y2544318D01*
X2511907Y2558592D01*
X2512822Y2573070D01*
X2511907Y2587599D01*
X2509215Y2601823D01*
X2504744Y2615641D01*
X2498547Y2628798D01*
X2490774Y2641041D01*
X2481478Y2652268D01*
X2470912Y2662174D01*
X2459177Y2670708D01*
X2446426Y2677718D01*
X2432964Y2683052D01*
X2418892Y2686659D01*
X2404465Y2688488D01*
X2389936Y2688488D01*
X2375560Y2686659D01*
X2361488Y2683052D01*
X2347976Y2677718D01*
X2335225Y2670708D01*
X2323490Y2662174D01*
X2312924Y2652268D01*
X2303678Y2641041D01*
X2295855Y2628798D01*
X2289708Y2615641D01*
X2285187Y2601823D01*
X2282494Y2587599D01*
X2281580Y2573070D01*
X2282494Y2558592D01*
X2285187Y2544318D01*
X2289708Y2530500D01*
X2295855Y2517394D01*
X2303678Y2505100D01*
X2312924Y2493924D01*
X2323490Y2483967D01*
X2335225Y2475433D01*
X2347976Y2468473D01*
X2361488Y2463088D01*
X2375560Y2459482D01*
G37*
G36*
X2989935Y2457704D02*
G01*
X3004464Y2457704D01*
X3018891Y2459482D01*
X3032963Y2463088D01*
X3046425Y2468473D01*
X3059176Y2475433D01*
X3070910Y2483967D01*
X3081477Y2493924D01*
X3090773Y2505100D01*
X3098546Y2517394D01*
X3104743Y2530500D01*
X3109214Y2544318D01*
X3111906Y2558592D01*
X3112820Y2573070D01*
X3111906Y2587599D01*
X3109214Y2601823D01*
X3104743Y2615641D01*
X3098546Y2628798D01*
X3090773Y2641041D01*
X3081477Y2652268D01*
X3070910Y2662174D01*
X3059176Y2670708D01*
X3046425Y2677718D01*
X3032963Y2683052D01*
X3018891Y2686659D01*
X3004464Y2688488D01*
X2989935Y2688488D01*
X2975559Y2686659D01*
X2961487Y2683052D01*
X2947974Y2677718D01*
X2935224Y2670708D01*
X2923489Y2662174D01*
X2912922Y2652268D01*
X2903677Y2641041D01*
X2895854Y2628798D01*
X2889707Y2615641D01*
X2885186Y2601823D01*
X2882493Y2587599D01*
X2881579Y2573070D01*
X2882493Y2558592D01*
X2885186Y2544318D01*
X2889707Y2530500D01*
X2895854Y2517394D01*
X2903677Y2505100D01*
X2912922Y2493924D01*
X2923489Y2483967D01*
X2935224Y2475433D01*
X2947974Y2468473D01*
X2961487Y2463088D01*
X2975559Y2459482D01*
G37*
G36*
X736600Y646480D02*
G01*
X751738Y647395D01*
X766673Y650138D01*
X781151Y654659D01*
X794969Y660857D01*
X807974Y668731D01*
X819912Y678078D01*
X830630Y688797D01*
X839978Y700735D01*
X847852Y713740D01*
X854049Y727557D01*
X858570Y742035D01*
X861314Y756970D01*
X862228Y772109D01*
X861314Y787247D01*
X858570Y802182D01*
X854049Y816660D01*
X847852Y830478D01*
X839978Y843483D01*
X830630Y855421D01*
X819912Y866140D01*
X807974Y875487D01*
X794969Y883361D01*
X781151Y889558D01*
X766673Y894080D01*
X751738Y896823D01*
X736600Y897737D01*
X721461Y896823D01*
X706526Y894080D01*
X692048Y889558D01*
X678230Y883361D01*
X665226Y875487D01*
X653288Y866140D01*
X642569Y855421D01*
X633222Y843483D01*
X625348Y830478D01*
X619150Y816660D01*
X614629Y802182D01*
X611886Y787247D01*
X610971Y772109D01*
X611886Y756970D01*
X614629Y742035D01*
X619150Y727557D01*
X625348Y713740D01*
X633222Y700735D01*
X642569Y688797D01*
X653288Y678078D01*
X665226Y668731D01*
X678230Y660857D01*
X692048Y654659D01*
X706526Y650138D01*
X721461Y647395D01*
G37*
G36*
X3889959Y2457704D02*
G01*
X3904487Y2457704D01*
X3918864Y2459482D01*
X3932936Y2463088D01*
X3946448Y2468473D01*
X3959148Y2475433D01*
X3970934Y2483967D01*
X3981500Y2493924D01*
X3990746Y2505100D01*
X3998518Y2517394D01*
X4004716Y2530500D01*
X4009186Y2544318D01*
X4011929Y2558592D01*
X4012844Y2573070D01*
X4011929Y2587599D01*
X4009186Y2601823D01*
X4004716Y2615641D01*
X3998518Y2628798D01*
X3990746Y2641041D01*
X3981500Y2652268D01*
X3970934Y2662174D01*
X3959148Y2670708D01*
X3946448Y2677718D01*
X3932936Y2683052D01*
X3918864Y2686659D01*
X3904487Y2688488D01*
X3889959Y2688488D01*
X3875532Y2686659D01*
X3861460Y2683052D01*
X3847947Y2677718D01*
X3835247Y2670708D01*
X3823512Y2662174D01*
X3812895Y2652268D01*
X3803650Y2641041D01*
X3795877Y2628798D01*
X3789679Y2615641D01*
X3785209Y2601823D01*
X3782466Y2587599D01*
X3781551Y2573070D01*
X3782466Y2558592D01*
X3785209Y2544318D01*
X3789679Y2530500D01*
X3795877Y2517394D01*
X3803650Y2505100D01*
X3812895Y2493924D01*
X3823512Y2483967D01*
X3835247Y2475433D01*
X3847947Y2468473D01*
X3861460Y2463088D01*
X3875532Y2459482D01*
G37*
G36*
X1130300Y900480D02*
G01*
X1145438Y901395D01*
X1160373Y904138D01*
X1174851Y908659D01*
X1188669Y914857D01*
X1201674Y922731D01*
X1213612Y932078D01*
X1224330Y942797D01*
X1233678Y954735D01*
X1241552Y967740D01*
X1247749Y981557D01*
X1252270Y996035D01*
X1255014Y1010970D01*
X1255928Y1026109D01*
X1255014Y1041247D01*
X1252270Y1056182D01*
X1247749Y1070660D01*
X1241552Y1084478D01*
X1233678Y1097483D01*
X1224330Y1109421D01*
X1213612Y1120140D01*
X1201674Y1129487D01*
X1188669Y1137361D01*
X1174851Y1143558D01*
X1160373Y1148080D01*
X1145438Y1150823D01*
X1130300Y1151737D01*
X1115161Y1150823D01*
X1100226Y1148080D01*
X1085748Y1143558D01*
X1071930Y1137361D01*
X1058926Y1129487D01*
X1046987Y1120140D01*
X1036269Y1109421D01*
X1026921Y1097483D01*
X1019048Y1084478D01*
X1012850Y1070660D01*
X1008329Y1056182D01*
X1005586Y1041247D01*
X1004671Y1026109D01*
X1005586Y1010970D01*
X1008329Y996035D01*
X1012850Y981557D01*
X1019048Y967740D01*
X1026921Y954735D01*
X1036269Y942797D01*
X1046987Y932078D01*
X1058926Y922731D01*
X1071930Y914857D01*
X1085748Y908659D01*
X1100226Y904138D01*
X1115161Y901395D01*
G37*
G36*
X2007870Y2457500D02*
G01*
X2186736Y2457500D01*
X2192985Y2458212D01*
X2198370Y2460091D01*
X2203246Y2463139D01*
X2207310Y2467203D01*
X2210358Y2472029D01*
X2212238Y2477465D01*
X2212949Y2483713D01*
X2212949Y2662580D01*
X2212238Y2668828D01*
X2210358Y2674264D01*
X2207310Y2679090D01*
X2203246Y2683154D01*
X2198370Y2686202D01*
X2192985Y2688082D01*
X2186736Y2688793D01*
X2007870Y2688793D01*
X2001570Y2688082D01*
X1996186Y2686202D01*
X1991309Y2683154D01*
X1987296Y2679090D01*
X1984248Y2674264D01*
X1982317Y2668828D01*
X1981606Y2662580D01*
X1981606Y2483713D01*
X1982317Y2477465D01*
X1984248Y2472029D01*
X1987296Y2467203D01*
X1991309Y2463139D01*
X1996186Y2460091D01*
X2001570Y2458212D01*
G37*
G36*
X4282084Y925830D02*
G01*
X4480915Y925830D01*
X4487214Y926541D01*
X4492599Y928471D01*
X4497476Y931519D01*
X4501489Y935532D01*
X4504537Y940409D01*
X4506468Y945794D01*
X4507179Y952093D01*
X4507179Y1150924D01*
X4506468Y1157224D01*
X4504537Y1162608D01*
X4501489Y1167485D01*
X4497476Y1171498D01*
X4492599Y1174546D01*
X4487214Y1176477D01*
X4480915Y1177137D01*
X4282084Y1177137D01*
X4275785Y1176477D01*
X4270400Y1174546D01*
X4265523Y1171498D01*
X4261510Y1167485D01*
X4258462Y1162608D01*
X4256532Y1157224D01*
X4255871Y1150924D01*
X4255871Y952093D01*
X4256532Y945794D01*
X4258462Y940409D01*
X4261510Y935532D01*
X4265523Y931519D01*
X4270400Y928471D01*
X4275785Y926541D01*
G37*
G36*
X3822700Y925880D02*
G01*
X3837838Y926795D01*
X3852773Y929538D01*
X3867251Y934059D01*
X3881069Y940257D01*
X3894074Y948131D01*
X3906012Y957478D01*
X3916730Y968197D01*
X3926078Y980135D01*
X3933951Y993140D01*
X3940149Y1006957D01*
X3944670Y1021435D01*
X3947414Y1036370D01*
X3948328Y1051509D01*
X3947414Y1066647D01*
X3944670Y1081582D01*
X3940149Y1096060D01*
X3933951Y1109878D01*
X3926078Y1122883D01*
X3916730Y1134821D01*
X3906012Y1145540D01*
X3894074Y1154887D01*
X3881069Y1162761D01*
X3867251Y1168958D01*
X3852773Y1173480D01*
X3837838Y1176223D01*
X3822700Y1177137D01*
X3807561Y1176223D01*
X3792626Y1173480D01*
X3778148Y1168958D01*
X3764330Y1162761D01*
X3751326Y1154887D01*
X3739387Y1145540D01*
X3728669Y1134821D01*
X3719322Y1122883D01*
X3711448Y1109878D01*
X3705250Y1096060D01*
X3700729Y1081582D01*
X3697986Y1066647D01*
X3697071Y1051509D01*
X3697986Y1036370D01*
X3700729Y1021435D01*
X3705250Y1006957D01*
X3711448Y993140D01*
X3719322Y980135D01*
X3728669Y968197D01*
X3739387Y957478D01*
X3751326Y948131D01*
X3764330Y940257D01*
X3778148Y934059D01*
X3792626Y929538D01*
X3807561Y926795D01*
G37*
G36*
X2667000Y925880D02*
G01*
X2682138Y926795D01*
X2697073Y929538D01*
X2711551Y934059D01*
X2725369Y940257D01*
X2738374Y948131D01*
X2750312Y957478D01*
X2761030Y968197D01*
X2770378Y980135D01*
X2778252Y993140D01*
X2784449Y1006957D01*
X2788970Y1021435D01*
X2791714Y1036370D01*
X2792628Y1051509D01*
X2791714Y1066647D01*
X2788970Y1081582D01*
X2784449Y1096060D01*
X2778252Y1109878D01*
X2770378Y1122883D01*
X2761030Y1134821D01*
X2750312Y1145540D01*
X2738374Y1154887D01*
X2725369Y1162761D01*
X2711551Y1168958D01*
X2697073Y1173480D01*
X2682138Y1176223D01*
X2667000Y1177137D01*
X2651861Y1176223D01*
X2636926Y1173480D01*
X2622448Y1168958D01*
X2608630Y1162761D01*
X2595626Y1154887D01*
X2583688Y1145540D01*
X2572969Y1134821D01*
X2563622Y1122883D01*
X2555748Y1109878D01*
X2549550Y1096060D01*
X2545029Y1081582D01*
X2542286Y1066647D01*
X2541371Y1051509D01*
X2542286Y1036370D01*
X2545029Y1021435D01*
X2549550Y1006957D01*
X2555748Y993140D01*
X2563622Y980135D01*
X2572969Y968197D01*
X2583688Y957478D01*
X2595626Y948131D01*
X2608630Y940257D01*
X2622448Y934059D01*
X2636926Y929538D01*
X2651861Y926795D01*
G37*
G36*
X4102100Y925880D02*
G01*
X4117238Y926795D01*
X4132173Y929538D01*
X4146651Y934059D01*
X4160469Y940257D01*
X4173474Y948131D01*
X4185412Y957478D01*
X4196130Y968197D01*
X4205478Y980135D01*
X4213352Y993140D01*
X4219549Y1006957D01*
X4224070Y1021435D01*
X4226814Y1036370D01*
X4227728Y1051509D01*
X4226814Y1066647D01*
X4224070Y1081582D01*
X4219549Y1096060D01*
X4213352Y1109878D01*
X4205478Y1122883D01*
X4196130Y1134821D01*
X4185412Y1145540D01*
X4173474Y1154887D01*
X4160469Y1162761D01*
X4146651Y1168958D01*
X4132173Y1173480D01*
X4117238Y1176223D01*
X4102100Y1177137D01*
X4086961Y1176223D01*
X4072026Y1173480D01*
X4057548Y1168958D01*
X4043730Y1162761D01*
X4030726Y1154887D01*
X4018787Y1145540D01*
X4008069Y1134821D01*
X3998722Y1122883D01*
X3990848Y1109878D01*
X3984650Y1096060D01*
X3980129Y1081582D01*
X3977386Y1066647D01*
X3976471Y1051509D01*
X3977386Y1036370D01*
X3980129Y1021435D01*
X3984650Y1006957D01*
X3990848Y993140D01*
X3998722Y980135D01*
X4008069Y968197D01*
X4018787Y957478D01*
X4030726Y948131D01*
X4043730Y940257D01*
X4057548Y934059D01*
X4072026Y929538D01*
X4086961Y926795D01*
G37*
G36*
X449935Y2437231D02*
G01*
X464464Y2437231D01*
X478840Y2439060D01*
X492861Y2442718D01*
X506272Y2448204D01*
X518922Y2455316D01*
X530555Y2463952D01*
X540969Y2474061D01*
X550011Y2485390D01*
X557479Y2497785D01*
X563372Y2511044D01*
X567486Y2524912D01*
X569823Y2539238D01*
X570280Y2553716D01*
X568858Y2568143D01*
X565658Y2582316D01*
X560628Y2595880D01*
X553923Y2608732D01*
X545642Y2620670D01*
X535889Y2631389D01*
X524865Y2640787D01*
X512724Y2648661D01*
X499668Y2654960D01*
X485901Y2659532D01*
X471678Y2662326D01*
X457200Y2663240D01*
X442722Y2662326D01*
X428498Y2659532D01*
X414731Y2654960D01*
X401675Y2648661D01*
X389534Y2640787D01*
X378510Y2631389D01*
X368757Y2620670D01*
X360476Y2608732D01*
X353771Y2595880D01*
X348742Y2582316D01*
X345541Y2568143D01*
X344119Y2553716D01*
X344576Y2539238D01*
X346913Y2524912D01*
X351028Y2511044D01*
X356920Y2497785D01*
X364388Y2485390D01*
X373430Y2474061D01*
X383844Y2463952D01*
X395478Y2455316D01*
X408127Y2448204D01*
X421538Y2442718D01*
X435559Y2439060D01*
G37*
G36*
X5180380Y980541D02*
G01*
X5354218Y980541D01*
X5360466Y981252D01*
X5365902Y983132D01*
X5370728Y986180D01*
X5374792Y990244D01*
X5377840Y995070D01*
X5379720Y1000506D01*
X5380431Y1006754D01*
X5380431Y1180592D01*
X5379720Y1186891D01*
X5377840Y1192276D01*
X5374792Y1197152D01*
X5370728Y1201166D01*
X5365902Y1204214D01*
X5360466Y1206144D01*
X5354218Y1206855D01*
X5180380Y1206855D01*
X5174081Y1206144D01*
X5168696Y1204214D01*
X5163820Y1201166D01*
X5159806Y1197152D01*
X5156758Y1192276D01*
X5154828Y1186891D01*
X5154168Y1180592D01*
X5154168Y1006754D01*
X5154828Y1000506D01*
X5156758Y995070D01*
X5159806Y990244D01*
X5163820Y986180D01*
X5168696Y983132D01*
X5174081Y981252D01*
G37*
G36*
X5520842Y980592D02*
G01*
X5535269Y982014D01*
X5549442Y985215D01*
X5563006Y990244D01*
X5575858Y996950D01*
X5587746Y1005230D01*
X5598515Y1014984D01*
X5607913Y1026007D01*
X5615787Y1038148D01*
X5622086Y1051204D01*
X5626658Y1064971D01*
X5629452Y1079195D01*
X5630367Y1093673D01*
X5629452Y1108151D01*
X5626658Y1122375D01*
X5622086Y1136142D01*
X5615787Y1149197D01*
X5607913Y1161338D01*
X5598515Y1172362D01*
X5587746Y1182116D01*
X5575858Y1190447D01*
X5563006Y1197152D01*
X5549442Y1202131D01*
X5535269Y1205382D01*
X5520842Y1206754D01*
X5506364Y1206296D01*
X5492038Y1203960D01*
X5478170Y1199845D01*
X5464911Y1194003D01*
X5452516Y1186484D01*
X5441188Y1177442D01*
X5431078Y1167028D01*
X5422442Y1155395D01*
X5415280Y1142746D01*
X5409844Y1129334D01*
X5406186Y1115314D01*
X5404358Y1100937D01*
X5404358Y1086408D01*
X5406186Y1072032D01*
X5409844Y1058011D01*
X5415280Y1044600D01*
X5422442Y1031951D01*
X5431078Y1020368D01*
X5441188Y1009954D01*
X5452516Y1000912D01*
X5464911Y993394D01*
X5478170Y987501D01*
X5492038Y983386D01*
X5506364Y981049D01*
G37*
G36*
X5770930Y980592D02*
G01*
X5785358Y982014D01*
X5799480Y985215D01*
X5813094Y990244D01*
X5825947Y996950D01*
X5837834Y1005230D01*
X5848553Y1014984D01*
X5857951Y1026007D01*
X5865876Y1038148D01*
X5872175Y1051204D01*
X5876747Y1064971D01*
X5879490Y1079195D01*
X5880404Y1093673D01*
X5879490Y1108151D01*
X5876747Y1122375D01*
X5872175Y1136142D01*
X5865876Y1149197D01*
X5857951Y1161338D01*
X5848553Y1172362D01*
X5837834Y1182116D01*
X5825947Y1190447D01*
X5813094Y1197152D01*
X5799480Y1202131D01*
X5785358Y1205382D01*
X5770930Y1206754D01*
X5756452Y1206296D01*
X5742127Y1203960D01*
X5728208Y1199845D01*
X5714949Y1194003D01*
X5702554Y1186484D01*
X5691225Y1177442D01*
X5681167Y1167028D01*
X5672480Y1155395D01*
X5665368Y1142746D01*
X5659932Y1129334D01*
X5656275Y1115314D01*
X5654395Y1100937D01*
X5654395Y1086408D01*
X5656275Y1072032D01*
X5659932Y1058011D01*
X5665368Y1044600D01*
X5672480Y1031951D01*
X5681167Y1020368D01*
X5691225Y1009954D01*
X5702554Y1000912D01*
X5714949Y993394D01*
X5728208Y987501D01*
X5742127Y983386D01*
X5756452Y981049D01*
G37*
G36*
X6020968Y980592D02*
G01*
X6035395Y982014D01*
X6049568Y985215D01*
X6063132Y990244D01*
X6075984Y996950D01*
X6087872Y1005230D01*
X6098641Y1014984D01*
X6108039Y1026007D01*
X6115913Y1038148D01*
X6122212Y1051204D01*
X6126784Y1064971D01*
X6129578Y1079195D01*
X6130493Y1093673D01*
X6129578Y1108151D01*
X6126784Y1122375D01*
X6122212Y1136142D01*
X6115913Y1149197D01*
X6108039Y1161338D01*
X6098641Y1172362D01*
X6087872Y1182116D01*
X6075984Y1190447D01*
X6063132Y1197152D01*
X6049568Y1202131D01*
X6035395Y1205382D01*
X6020968Y1206754D01*
X6006490Y1206296D01*
X5992164Y1203960D01*
X5978296Y1199845D01*
X5965037Y1194003D01*
X5952642Y1186484D01*
X5941314Y1177442D01*
X5931204Y1167028D01*
X5922568Y1155395D01*
X5915406Y1142746D01*
X5909970Y1129334D01*
X5906312Y1115314D01*
X5904484Y1100937D01*
X5904484Y1086408D01*
X5906312Y1072032D01*
X5909970Y1058011D01*
X5915406Y1044600D01*
X5922568Y1031951D01*
X5931204Y1020368D01*
X5941314Y1009954D01*
X5952642Y1000912D01*
X5965037Y993394D01*
X5978296Y987501D01*
X5992164Y983386D01*
X6006490Y981049D01*
G37*
G36*
X4956048Y2381504D02*
G01*
X4970576Y2381504D01*
X4985004Y2383332D01*
X4999024Y2386939D01*
X5012537Y2392273D01*
X5025288Y2399284D01*
X5037023Y2407818D01*
X5047589Y2417724D01*
X5056886Y2428951D01*
X5064658Y2441194D01*
X5070805Y2454351D01*
X5075326Y2468118D01*
X5078018Y2482392D01*
X5078933Y2496870D01*
X5078018Y2511399D01*
X5075326Y2525674D01*
X5070805Y2539441D01*
X5064658Y2552598D01*
X5056886Y2564841D01*
X5047589Y2576068D01*
X5037023Y2585974D01*
X5025288Y2594508D01*
X5012537Y2601518D01*
X4999024Y2606852D01*
X4985004Y2610459D01*
X4970576Y2612288D01*
X4956048Y2612288D01*
X4941620Y2610459D01*
X4927600Y2606852D01*
X4914087Y2601518D01*
X4901336Y2594508D01*
X4889601Y2585974D01*
X4879035Y2576068D01*
X4869738Y2564841D01*
X4861966Y2552598D01*
X4855819Y2539441D01*
X4851298Y2525674D01*
X4848606Y2511399D01*
X4847691Y2496870D01*
X4848606Y2482392D01*
X4851298Y2468118D01*
X4855819Y2454351D01*
X4861966Y2441194D01*
X4869738Y2428951D01*
X4879035Y2417724D01*
X4889601Y2407818D01*
X4901336Y2399284D01*
X4914087Y2392273D01*
X4927600Y2386939D01*
X4941620Y2383332D01*
G37*
G36*
X481888Y1128877D02*
G01*
X518718Y1128877D01*
X525018Y1129538D01*
X530402Y1131468D01*
X535279Y1134516D01*
X539292Y1138580D01*
X542340Y1143406D01*
X544271Y1148842D01*
X544931Y1155090D01*
X544931Y1191920D01*
X481888Y1191920D01*
G37*
G36*
X344881Y1128877D02*
G01*
X381711Y1128877D01*
X381711Y1191920D01*
X318668Y1191920D01*
X318668Y1155090D01*
X319328Y1148842D01*
X321259Y1143406D01*
X324307Y1138580D01*
X328320Y1134516D01*
X333197Y1131468D01*
X338582Y1129538D01*
G37*
G36*
X4656074Y2381504D02*
G01*
X4670552Y2381504D01*
X4684979Y2383332D01*
X4699050Y2386939D01*
X4712563Y2392273D01*
X4725263Y2399284D01*
X4736998Y2407818D01*
X4747615Y2417724D01*
X4756861Y2428951D01*
X4764633Y2441194D01*
X4770831Y2454351D01*
X4775301Y2468118D01*
X4778044Y2482392D01*
X4778959Y2496870D01*
X4778044Y2511399D01*
X4775301Y2525674D01*
X4770831Y2539441D01*
X4764633Y2552598D01*
X4756861Y2564841D01*
X4747615Y2576068D01*
X4736998Y2585974D01*
X4725263Y2594508D01*
X4712563Y2601518D01*
X4699050Y2606852D01*
X4684979Y2610459D01*
X4670552Y2612288D01*
X4656074Y2612288D01*
X4641646Y2610459D01*
X4627575Y2606852D01*
X4614062Y2601518D01*
X4601362Y2594508D01*
X4589627Y2585974D01*
X4579010Y2576068D01*
X4569764Y2564841D01*
X4561992Y2552598D01*
X4555794Y2539441D01*
X4551324Y2525674D01*
X4548581Y2511399D01*
X4547666Y2496870D01*
X4548581Y2482392D01*
X4551324Y2468118D01*
X4555794Y2454351D01*
X4561992Y2441194D01*
X4569764Y2428951D01*
X4579010Y2417724D01*
X4589627Y2407818D01*
X4601362Y2399284D01*
X4614062Y2392273D01*
X4627575Y2386939D01*
X4641646Y2383332D01*
G37*
G36*
X344068Y2350211D02*
G01*
X407111Y2350211D01*
X407111Y2413254D01*
X370281Y2413254D01*
X363982Y2412542D01*
X358597Y2410663D01*
X353720Y2407615D01*
X349707Y2403551D01*
X346659Y2398674D01*
X344728Y2393289D01*
X344068Y2387041D01*
G37*
G36*
X318668Y1292098D02*
G01*
X381711Y1292098D01*
X381711Y1355140D01*
X344881Y1355140D01*
X338582Y1354480D01*
X333197Y1352550D01*
X328320Y1349502D01*
X324307Y1345488D01*
X321259Y1340612D01*
X319328Y1335227D01*
X318668Y1328928D01*
G37*
G36*
X481888Y1292098D02*
G01*
X544931Y1292098D01*
X544931Y1328928D01*
X544271Y1335227D01*
X542340Y1340612D01*
X539292Y1345488D01*
X535279Y1349502D01*
X530402Y1352550D01*
X525018Y1354480D01*
X518718Y1355140D01*
X481888Y1355140D01*
G37*
G36*
X3723284Y1357630D02*
G01*
X3922115Y1357630D01*
X3928414Y1358341D01*
X3933799Y1360271D01*
X3938676Y1363319D01*
X3942689Y1367332D01*
X3945737Y1372209D01*
X3947668Y1377594D01*
X3948379Y1383893D01*
X3948379Y1582724D01*
X3947668Y1589024D01*
X3945737Y1594408D01*
X3942689Y1599285D01*
X3938676Y1603298D01*
X3933799Y1606346D01*
X3928414Y1608277D01*
X3922115Y1608937D01*
X3723284Y1608937D01*
X3716985Y1608277D01*
X3711600Y1606346D01*
X3706723Y1603298D01*
X3702710Y1599285D01*
X3699662Y1594408D01*
X3697732Y1589024D01*
X3697071Y1582724D01*
X3697071Y1383893D01*
X3697732Y1377594D01*
X3699662Y1372209D01*
X3702710Y1367332D01*
X3706723Y1363319D01*
X3711600Y1360271D01*
X3716985Y1358341D01*
G37*
G36*
X4381500Y1357680D02*
G01*
X4396638Y1358595D01*
X4411573Y1361338D01*
X4426051Y1365859D01*
X4439869Y1372057D01*
X4452874Y1379931D01*
X4464812Y1389278D01*
X4475530Y1399997D01*
X4484878Y1411935D01*
X4492752Y1424940D01*
X4498949Y1438757D01*
X4503470Y1453235D01*
X4506214Y1468170D01*
X4507128Y1483309D01*
X4506214Y1498447D01*
X4503470Y1513382D01*
X4498949Y1527860D01*
X4492752Y1541678D01*
X4484878Y1554683D01*
X4475530Y1566621D01*
X4464812Y1577340D01*
X4452874Y1586687D01*
X4439869Y1594561D01*
X4426051Y1600758D01*
X4411573Y1605280D01*
X4396638Y1608023D01*
X4381500Y1608937D01*
X4366361Y1608023D01*
X4351426Y1605280D01*
X4336948Y1600758D01*
X4323130Y1594561D01*
X4310126Y1586687D01*
X4298188Y1577340D01*
X4287469Y1566621D01*
X4278122Y1554683D01*
X4270248Y1541678D01*
X4264050Y1527860D01*
X4259529Y1513382D01*
X4256786Y1498447D01*
X4255871Y1483309D01*
X4256786Y1468170D01*
X4259529Y1453235D01*
X4264050Y1438757D01*
X4270248Y1424940D01*
X4278122Y1411935D01*
X4287469Y1399997D01*
X4298188Y1389278D01*
X4310126Y1379931D01*
X4323130Y1372057D01*
X4336948Y1365859D01*
X4351426Y1361338D01*
X4366361Y1358595D01*
G37*
G36*
X4102100Y1357680D02*
G01*
X4117238Y1358595D01*
X4132173Y1361338D01*
X4146651Y1365859D01*
X4160469Y1372057D01*
X4173474Y1379931D01*
X4185412Y1389278D01*
X4196130Y1399997D01*
X4205478Y1411935D01*
X4213352Y1424940D01*
X4219549Y1438757D01*
X4224070Y1453235D01*
X4226814Y1468170D01*
X4227728Y1483309D01*
X4226814Y1498447D01*
X4224070Y1513382D01*
X4219549Y1527860D01*
X4213352Y1541678D01*
X4205478Y1554683D01*
X4196130Y1566621D01*
X4185412Y1577340D01*
X4173474Y1586687D01*
X4160469Y1594561D01*
X4146651Y1600758D01*
X4132173Y1605280D01*
X4117238Y1608023D01*
X4102100Y1608937D01*
X4086961Y1608023D01*
X4072026Y1605280D01*
X4057548Y1600758D01*
X4043730Y1594561D01*
X4030726Y1586687D01*
X4018787Y1577340D01*
X4008069Y1566621D01*
X3998722Y1554683D01*
X3990848Y1541678D01*
X3984650Y1527860D01*
X3980129Y1513382D01*
X3977386Y1498447D01*
X3976471Y1483309D01*
X3977386Y1468170D01*
X3980129Y1453235D01*
X3984650Y1438757D01*
X3990848Y1424940D01*
X3998722Y1411935D01*
X4008069Y1399997D01*
X4018787Y1389278D01*
X4030726Y1379931D01*
X4043730Y1372057D01*
X4057548Y1365859D01*
X4072026Y1361338D01*
X4086961Y1358595D01*
G37*
G36*
X424535Y1379118D02*
G01*
X439064Y1379118D01*
X453440Y1380998D01*
X467461Y1384655D01*
X480872Y1390091D01*
X493522Y1397203D01*
X505155Y1405890D01*
X515569Y1415948D01*
X524611Y1427276D01*
X532079Y1439672D01*
X537972Y1452930D01*
X542086Y1466850D01*
X544423Y1481175D01*
X544880Y1495653D01*
X543458Y1510080D01*
X540258Y1524203D01*
X535228Y1537817D01*
X528523Y1550670D01*
X520242Y1562557D01*
X510489Y1573276D01*
X499465Y1582674D01*
X487324Y1590598D01*
X474268Y1596898D01*
X460501Y1601470D01*
X446278Y1604213D01*
X431800Y1605178D01*
X417322Y1604213D01*
X403098Y1601470D01*
X389331Y1596898D01*
X376275Y1590598D01*
X364134Y1582674D01*
X353110Y1573276D01*
X343357Y1562557D01*
X335076Y1550670D01*
X328371Y1537817D01*
X323342Y1524203D01*
X320141Y1510080D01*
X318719Y1495653D01*
X319176Y1481175D01*
X321513Y1466850D01*
X325628Y1452930D01*
X331520Y1439672D01*
X338988Y1427276D01*
X348030Y1415948D01*
X358444Y1405890D01*
X370078Y1397203D01*
X382727Y1390091D01*
X396138Y1384655D01*
X410159Y1380998D01*
G37*
G36*
X6136792Y1392174D02*
G01*
X6148984Y1393037D01*
X6160922Y1395628D01*
X6172352Y1399895D01*
X6183071Y1405788D01*
X6192875Y1413103D01*
X6201511Y1421739D01*
X6208826Y1431493D01*
X6214668Y1442212D01*
X6218936Y1453692D01*
X6221526Y1465630D01*
X6222441Y1477822D01*
X6221526Y1490014D01*
X6218936Y1501952D01*
X6214668Y1513382D01*
X6208826Y1524101D01*
X6201511Y1533855D01*
X6192875Y1542542D01*
X6183071Y1549857D01*
X6172352Y1555699D01*
X6160922Y1559966D01*
X6148984Y1562557D01*
X6136792Y1563420D01*
X6124600Y1562557D01*
X6112662Y1559966D01*
X6101232Y1555699D01*
X6090513Y1549857D01*
X6080709Y1542542D01*
X6072073Y1533855D01*
X6064758Y1524101D01*
X6058916Y1513382D01*
X6054648Y1501952D01*
X6052058Y1490014D01*
X6051143Y1477822D01*
X6052058Y1465630D01*
X6054648Y1453692D01*
X6058916Y1442212D01*
X6064758Y1431493D01*
X6072073Y1421739D01*
X6080709Y1413103D01*
X6090513Y1405788D01*
X6101232Y1399895D01*
X6112662Y1395628D01*
X6124600Y1393037D01*
G37*
G36*
X637184Y87630D02*
G01*
X836015Y87630D01*
X842314Y88341D01*
X847699Y90271D01*
X852576Y93319D01*
X856589Y97332D01*
X859637Y102209D01*
X861568Y107594D01*
X862279Y113893D01*
X862279Y117094D01*
X863041Y121005D01*
X865225Y124256D01*
X868527Y126492D01*
X872388Y127254D01*
X2361895Y127254D01*
X2369921Y127762D01*
X2379726Y129844D01*
X2381707Y130454D01*
X2389022Y133502D01*
X2390902Y134467D01*
X2399284Y139903D01*
X2405329Y145237D01*
X2870708Y610616D01*
X2874010Y612800D01*
X2877870Y613613D01*
X2881782Y612800D01*
X2885033Y610616D01*
X2887268Y607314D01*
X2888030Y603453D01*
X2888030Y443890D01*
X2888742Y437591D01*
X2890621Y432206D01*
X2893669Y427329D01*
X2897733Y423316D01*
X2902610Y420268D01*
X2907995Y418338D01*
X2914243Y417677D01*
X3088132Y417677D01*
X3094380Y418338D01*
X3099765Y420268D01*
X3104642Y423316D01*
X3108706Y427329D01*
X3111754Y432206D01*
X3113633Y437591D01*
X3114344Y443890D01*
X3114344Y532790D01*
X3115106Y536651D01*
X3117342Y539953D01*
X3120948Y543610D01*
X3124250Y545795D01*
X3128162Y546557D01*
X3132023Y545795D01*
X3135325Y543610D01*
X3137509Y540308D01*
X3138322Y536397D01*
X3138322Y523544D01*
X3140151Y509168D01*
X3143808Y495147D01*
X3149295Y481736D01*
X3156407Y469087D01*
X3165043Y457454D01*
X3175152Y447040D01*
X3186480Y437997D01*
X3198876Y430530D01*
X3212134Y424637D01*
X3226003Y420522D01*
X3240328Y418185D01*
X3254806Y417728D01*
X3269234Y419150D01*
X3283407Y422351D01*
X3296970Y427380D01*
X3309823Y434085D01*
X3321761Y442366D01*
X3332479Y452120D01*
X3341878Y463143D01*
X3349751Y475284D01*
X3356051Y488340D01*
X3360623Y502107D01*
X3363417Y516331D01*
X3364331Y530809D01*
X3363417Y545287D01*
X3360623Y559511D01*
X3356051Y573278D01*
X3349751Y586333D01*
X3341878Y598474D01*
X3332479Y609498D01*
X3321761Y619252D01*
X3309823Y627532D01*
X3296970Y634238D01*
X3283407Y639267D01*
X3269234Y642467D01*
X3254806Y643890D01*
X3245815Y643585D01*
X3241852Y644245D01*
X3238449Y646430D01*
X3236163Y649732D01*
X3235299Y653643D01*
X3236061Y657606D01*
X3238296Y660908D01*
X3509721Y932434D01*
X3515309Y939139D01*
X3517950Y943102D01*
X3520998Y946099D01*
X3525062Y947572D01*
X3529329Y947216D01*
X3533089Y945134D01*
X3535629Y941679D01*
X3536543Y937514D01*
X3536543Y807415D01*
X3537051Y799388D01*
X3539134Y789584D01*
X3542792Y780288D01*
X3543757Y778408D01*
X3549192Y770026D01*
X3554526Y763981D01*
X3757371Y561136D01*
X3759555Y557885D01*
X3760368Y553974D01*
X3760368Y443890D01*
X3761028Y437591D01*
X3762959Y432206D01*
X3766007Y427329D01*
X3770071Y423316D01*
X3774897Y420268D01*
X3780332Y418338D01*
X3786581Y417677D01*
X3960418Y417677D01*
X3966718Y418338D01*
X3972102Y420268D01*
X3976979Y423316D01*
X3980992Y427329D01*
X3984040Y432206D01*
X3985971Y437591D01*
X3986631Y443890D01*
X3986631Y617728D01*
X3985971Y624027D01*
X3984040Y629412D01*
X3980992Y634238D01*
X3976979Y638302D01*
X3972102Y641350D01*
X3966718Y643280D01*
X3960418Y643940D01*
X3850335Y643940D01*
X3846423Y644753D01*
X3843172Y646938D01*
X3660851Y829259D01*
X3658615Y832561D01*
X3657854Y836421D01*
X3657854Y2169312D01*
X3658362Y2172462D01*
X3659784Y2175306D01*
X3662019Y2177542D01*
X3670909Y2183993D01*
X3681476Y2193950D01*
X3690772Y2205126D01*
X3698544Y2217369D01*
X3704742Y2230526D01*
X3709212Y2244344D01*
X3711905Y2258618D01*
X3712819Y2273096D01*
X3711905Y2287574D01*
X3709212Y2301849D01*
X3704742Y2315667D01*
X3698544Y2328773D01*
X3690772Y2341067D01*
X3681476Y2352243D01*
X3670909Y2362200D01*
X3659174Y2370734D01*
X3646424Y2377694D01*
X3632962Y2383078D01*
X3618890Y2386685D01*
X3604463Y2388514D01*
X3589934Y2388514D01*
X3575558Y2386685D01*
X3561486Y2383078D01*
X3547973Y2377694D01*
X3535222Y2370734D01*
X3523487Y2362200D01*
X3512921Y2352243D01*
X3503676Y2341067D01*
X3495852Y2328773D01*
X3489706Y2315667D01*
X3485184Y2301849D01*
X3482492Y2287574D01*
X3481578Y2273096D01*
X3482492Y2258618D01*
X3485184Y2244344D01*
X3489706Y2230526D01*
X3495852Y2217369D01*
X3503676Y2205126D01*
X3512921Y2193950D01*
X3523487Y2183993D01*
X3532378Y2177542D01*
X3534613Y2175306D01*
X3536035Y2172462D01*
X3536543Y2169312D01*
X3536543Y2050542D01*
X3535629Y2046376D01*
X3533089Y2042922D01*
X3529329Y2040839D01*
X3525062Y2040483D01*
X3520998Y2041906D01*
X3517950Y2044903D01*
X3515258Y2048916D01*
X3509721Y2055622D01*
X3383483Y2181910D01*
X3381400Y2184958D01*
X3380536Y2188616D01*
X3381044Y2192324D01*
X3382873Y2195576D01*
X3390747Y2205126D01*
X3398520Y2217369D01*
X3404717Y2230526D01*
X3409187Y2244344D01*
X3411931Y2258618D01*
X3412845Y2273096D01*
X3411931Y2287574D01*
X3409187Y2301849D01*
X3404717Y2315667D01*
X3398520Y2328773D01*
X3390747Y2341067D01*
X3381501Y2352243D01*
X3370935Y2362200D01*
X3359150Y2370734D01*
X3346450Y2377694D01*
X3332937Y2383078D01*
X3318865Y2386685D01*
X3304489Y2388514D01*
X3289960Y2388514D01*
X3275533Y2386685D01*
X3261461Y2383078D01*
X3247948Y2377694D01*
X3235248Y2370734D01*
X3223514Y2362200D01*
X3212896Y2352243D01*
X3203651Y2341067D01*
X3195878Y2328773D01*
X3189681Y2315667D01*
X3185210Y2301849D01*
X3182467Y2287574D01*
X3181553Y2273096D01*
X3182467Y2258618D01*
X3185210Y2244344D01*
X3189681Y2230526D01*
X3195878Y2217369D01*
X3203651Y2205126D01*
X3212896Y2193950D01*
X3218332Y2188819D01*
X3220720Y2185466D01*
X3221532Y2181453D01*
X3221583Y2158492D01*
X3222447Y2149754D01*
X3222853Y2147316D01*
X3224987Y2138730D01*
X3225749Y2136394D01*
X3229102Y2128215D01*
X3230219Y2126030D01*
X3234791Y2118461D01*
X3236214Y2116429D01*
X3241852Y2109622D01*
X3375761Y1975662D01*
X3377996Y1972360D01*
X3378758Y1968449D01*
X3378758Y1019556D01*
X3377996Y1015695D01*
X3375761Y1012393D01*
X3010306Y646938D01*
X3007004Y644753D01*
X3003143Y643940D01*
X2928569Y643940D01*
X2924657Y644753D01*
X2921355Y646938D01*
X2919171Y650240D01*
X2918409Y654100D01*
X2919171Y658012D01*
X2921355Y661314D01*
X2989072Y728980D01*
X2994406Y735025D01*
X2999841Y743407D01*
X3000806Y745286D01*
X3003854Y752602D01*
X3006242Y762355D01*
X3006547Y764387D01*
X3007055Y772414D01*
X3007055Y915669D01*
X3007817Y919581D01*
X3010052Y922883D01*
X3013303Y925068D01*
X3017215Y925830D01*
X3045815Y925830D01*
X3052114Y926541D01*
X3057499Y928471D01*
X3062376Y931519D01*
X3066389Y935532D01*
X3069437Y940409D01*
X3071368Y945794D01*
X3072079Y952093D01*
X3072079Y990701D01*
X3072841Y994562D01*
X3075025Y997864D01*
X3078327Y1000099D01*
X3082239Y1000861D01*
X3187496Y1000861D01*
X3192119Y1001064D01*
X3196488Y1001623D01*
X3200806Y1002588D01*
X3205022Y1003909D01*
X3209086Y1005586D01*
X3212998Y1007668D01*
X3216757Y1010005D01*
X3220262Y1012698D01*
X3223666Y1015847D01*
X3299561Y1091742D01*
X3302711Y1095146D01*
X3305403Y1098651D01*
X3307740Y1102410D01*
X3309823Y1106322D01*
X3311499Y1110386D01*
X3312820Y1114602D01*
X3313785Y1118920D01*
X3314344Y1123289D01*
X3314547Y1127912D01*
X3314547Y1706118D01*
X3314344Y1710740D01*
X3313785Y1715109D01*
X3312820Y1719427D01*
X3311499Y1723643D01*
X3309823Y1727707D01*
X3307740Y1731619D01*
X3305403Y1735378D01*
X3302711Y1738884D01*
X3299561Y1742287D01*
X2810764Y2231136D01*
X2808630Y2234184D01*
X2807766Y2237740D01*
X2808274Y2241448D01*
X2809189Y2244344D01*
X2811932Y2258618D01*
X2812846Y2273096D01*
X2811932Y2287574D01*
X2809189Y2301849D01*
X2804718Y2315667D01*
X2798521Y2328773D01*
X2790748Y2341067D01*
X2781503Y2352243D01*
X2770936Y2362200D01*
X2759151Y2370734D01*
X2746451Y2377694D01*
X2732938Y2383078D01*
X2718866Y2386685D01*
X2704490Y2388514D01*
X2689961Y2388514D01*
X2675534Y2386685D01*
X2661462Y2383078D01*
X2647950Y2377694D01*
X2635250Y2370734D01*
X2623515Y2362200D01*
X2615488Y2354630D01*
X2612136Y2352548D01*
X2608326Y2351887D01*
X2604465Y2352751D01*
X2601264Y2354935D01*
X2599131Y2358186D01*
X2598369Y2362047D01*
X2598369Y2405430D01*
X2599131Y2409342D01*
X2601315Y2412644D01*
X2649829Y2461158D01*
X2653080Y2463292D01*
X2656890Y2464104D01*
X2675534Y2459482D01*
X2689961Y2457704D01*
X2704490Y2457704D01*
X2718866Y2459482D01*
X2732938Y2463088D01*
X2746451Y2468473D01*
X2759151Y2475433D01*
X2770936Y2483967D01*
X2781503Y2493924D01*
X2790748Y2505100D01*
X2798521Y2517394D01*
X2804718Y2530500D01*
X2809189Y2544318D01*
X2811932Y2558592D01*
X2812846Y2573070D01*
X2811932Y2587599D01*
X2809189Y2601823D01*
X2804718Y2615641D01*
X2798521Y2628798D01*
X2790748Y2641041D01*
X2781503Y2652268D01*
X2770936Y2662174D01*
X2759151Y2670708D01*
X2746451Y2677718D01*
X2732938Y2683052D01*
X2718866Y2686659D01*
X2704490Y2688488D01*
X2689961Y2688488D01*
X2675534Y2686659D01*
X2661462Y2683052D01*
X2647950Y2677718D01*
X2635250Y2670708D01*
X2623515Y2662174D01*
X2612898Y2652268D01*
X2603652Y2641041D01*
X2595880Y2628798D01*
X2589682Y2615641D01*
X2585212Y2601823D01*
X2582468Y2587599D01*
X2581554Y2573070D01*
X2582468Y2558592D01*
X2585212Y2544318D01*
X2587853Y2536139D01*
X2588361Y2532481D01*
X2587498Y2528874D01*
X2585364Y2525826D01*
X2519222Y2459583D01*
X2513939Y2452573D01*
X2510180Y2445054D01*
X2507843Y2436977D01*
X2507030Y2428087D01*
X2507030Y2349601D01*
X2506218Y2345537D01*
X2503830Y2342184D01*
X2500325Y2340000D01*
X2496261Y2339441D01*
X2492298Y2340508D01*
X2489047Y2343099D01*
X2481478Y2352243D01*
X2470912Y2362200D01*
X2459177Y2370734D01*
X2446426Y2377694D01*
X2432964Y2383078D01*
X2418892Y2386685D01*
X2404465Y2388514D01*
X2389936Y2388514D01*
X2375560Y2386685D01*
X2361488Y2383078D01*
X2347976Y2377694D01*
X2335225Y2370734D01*
X2323490Y2362200D01*
X2312924Y2352243D01*
X2303678Y2341067D01*
X2295855Y2328773D01*
X2289708Y2315667D01*
X2285187Y2301849D01*
X2282494Y2287574D01*
X2281580Y2273096D01*
X2282494Y2258618D01*
X2285187Y2244344D01*
X2289708Y2230526D01*
X2295855Y2217369D01*
X2303678Y2205126D01*
X2312924Y2193950D01*
X2323490Y2183993D01*
X2335225Y2175459D01*
X2347976Y2168448D01*
X2361488Y2163114D01*
X2375560Y2159508D01*
X2389936Y2157679D01*
X2404465Y2157679D01*
X2418892Y2159508D01*
X2432964Y2163114D01*
X2446426Y2168448D01*
X2459177Y2175459D01*
X2470912Y2183993D01*
X2481478Y2193950D01*
X2489047Y2203043D01*
X2492298Y2205634D01*
X2496261Y2206752D01*
X2500325Y2206142D01*
X2503830Y2204008D01*
X2506218Y2200605D01*
X2507030Y2196592D01*
X2507030Y2179523D01*
X2506268Y2175662D01*
X2504084Y2172360D01*
X1473708Y1141984D01*
X1470355Y1139748D01*
X1466342Y1139037D01*
X1462379Y1139901D01*
X1454251Y1143558D01*
X1439773Y1148080D01*
X1424838Y1150823D01*
X1409700Y1151737D01*
X1394561Y1150823D01*
X1379626Y1148080D01*
X1365148Y1143558D01*
X1351330Y1137361D01*
X1338326Y1129487D01*
X1326388Y1120140D01*
X1315669Y1109421D01*
X1306322Y1097483D01*
X1298448Y1084478D01*
X1292250Y1070660D01*
X1287729Y1056182D01*
X1284986Y1041247D01*
X1284071Y1026109D01*
X1284986Y1010970D01*
X1287729Y996035D01*
X1292250Y981557D01*
X1298448Y967740D01*
X1306322Y954735D01*
X1315669Y942797D01*
X1326388Y932078D01*
X1338326Y922731D01*
X1351330Y914857D01*
X1365148Y908659D01*
X1379626Y904138D01*
X1394561Y901395D01*
X1409700Y900480D01*
X1424838Y901395D01*
X1439773Y904138D01*
X1454251Y908659D01*
X1468069Y914857D01*
X1481074Y922731D01*
X1493012Y932078D01*
X1503730Y942797D01*
X1513078Y954735D01*
X1520952Y967740D01*
X1527149Y981557D01*
X1531670Y996035D01*
X1534414Y1010970D01*
X1535328Y1026109D01*
X1534414Y1041247D01*
X1531670Y1056182D01*
X1530045Y1061466D01*
X1529588Y1065123D01*
X1530451Y1068679D01*
X1532534Y1071676D01*
X1546098Y1085240D01*
X1549400Y1087424D01*
X1553311Y1088237D01*
X1557172Y1087424D01*
X1560474Y1085240D01*
X1562658Y1081938D01*
X1563471Y1078077D01*
X1563471Y926693D01*
X1564132Y920394D01*
X1566062Y915009D01*
X1569110Y910132D01*
X1573123Y906119D01*
X1578000Y903071D01*
X1583385Y901141D01*
X1589684Y900430D01*
X1788515Y900430D01*
X1794814Y901141D01*
X1800199Y903071D01*
X1805076Y906119D01*
X1809089Y910132D01*
X1812137Y915009D01*
X1814068Y920394D01*
X1814779Y926693D01*
X1814779Y1125524D01*
X1814068Y1131824D01*
X1812137Y1137208D01*
X1809089Y1142085D01*
X1805076Y1146098D01*
X1800199Y1149146D01*
X1794814Y1151077D01*
X1788515Y1151737D01*
X1637131Y1151737D01*
X1633270Y1152550D01*
X1629968Y1154734D01*
X1627784Y1158036D01*
X1626971Y1161897D01*
X1627784Y1165809D01*
X1629968Y1169111D01*
X2136089Y1675231D01*
X2139391Y1677466D01*
X2143302Y1678228D01*
X2147163Y1677466D01*
X2150465Y1675231D01*
X2152650Y1671929D01*
X2153462Y1668068D01*
X2153462Y1523390D01*
X2154123Y1517091D01*
X2156053Y1511706D01*
X2159101Y1506829D01*
X2163114Y1502816D01*
X2167991Y1499768D01*
X2173376Y1497838D01*
X2179675Y1497177D01*
X2195779Y1497177D01*
X2199640Y1496364D01*
X2202942Y1494180D01*
X2205177Y1490878D01*
X2205939Y1487017D01*
X2205939Y1172819D01*
X2206447Y1164793D01*
X2208530Y1154988D01*
X2209139Y1153007D01*
X2212187Y1145692D01*
X2213152Y1143812D01*
X2218588Y1135430D01*
X2223922Y1129385D01*
X2262784Y1090523D01*
X2264714Y1087882D01*
X2265680Y1084783D01*
X2265629Y1081532D01*
X2262886Y1066647D01*
X2261971Y1051509D01*
X2262886Y1036370D01*
X2265629Y1021435D01*
X2270150Y1006957D01*
X2276348Y993140D01*
X2284222Y980135D01*
X2293569Y968197D01*
X2304288Y957478D01*
X2316226Y948131D01*
X2329230Y940257D01*
X2343048Y934059D01*
X2357526Y929538D01*
X2372461Y926795D01*
X2387600Y925880D01*
X2402738Y926795D01*
X2417673Y929538D01*
X2432151Y934059D01*
X2445969Y940257D01*
X2458974Y948131D01*
X2470912Y957478D01*
X2481630Y968197D01*
X2490978Y980135D01*
X2498852Y993140D01*
X2505049Y1006957D01*
X2509570Y1021435D01*
X2512314Y1036370D01*
X2513228Y1051509D01*
X2512314Y1066647D01*
X2509570Y1081582D01*
X2505049Y1096060D01*
X2498852Y1109878D01*
X2490978Y1122883D01*
X2481630Y1134821D01*
X2470912Y1145540D01*
X2458974Y1154887D01*
X2445969Y1162761D01*
X2432151Y1168958D01*
X2417673Y1173480D01*
X2402738Y1176223D01*
X2387600Y1177137D01*
X2372461Y1176223D01*
X2357577Y1173480D01*
X2354326Y1173429D01*
X2351227Y1174394D01*
X2348585Y1176324D01*
X2330196Y1194663D01*
X2328011Y1197965D01*
X2327249Y1201826D01*
X2327249Y1487017D01*
X2328011Y1490878D01*
X2330196Y1494180D01*
X2333498Y1496364D01*
X2337409Y1497177D01*
X2353513Y1497177D01*
X2359812Y1497838D01*
X2365197Y1499768D01*
X2370074Y1502816D01*
X2374087Y1506829D01*
X2377135Y1511706D01*
X2379065Y1517091D01*
X2379726Y1523390D01*
X2379726Y1697228D01*
X2379065Y1703527D01*
X2377135Y1708912D01*
X2374087Y1713738D01*
X2370074Y1717802D01*
X2365197Y1720850D01*
X2359812Y1722780D01*
X2353513Y1723440D01*
X2208834Y1723440D01*
X2204974Y1724253D01*
X2201672Y1726438D01*
X2199436Y1729739D01*
X2198674Y1733600D01*
X2199436Y1737512D01*
X2201672Y1740814D01*
X2586177Y2125421D01*
X2591460Y2132380D01*
X2595219Y2139950D01*
X2597556Y2148027D01*
X2598369Y2156866D01*
X2598369Y2184146D01*
X2599131Y2187956D01*
X2601264Y2191207D01*
X2604465Y2193442D01*
X2608326Y2194255D01*
X2612136Y2193594D01*
X2615488Y2191512D01*
X2623515Y2183993D01*
X2635250Y2175459D01*
X2647950Y2168448D01*
X2661462Y2163114D01*
X2675534Y2159508D01*
X2689961Y2157679D01*
X2704490Y2157679D01*
X2718866Y2159508D01*
X2729331Y2162200D01*
X2732836Y2162454D01*
X2736189Y2161540D01*
X2739034Y2159508D01*
X3210255Y1688338D01*
X3212490Y1685036D01*
X3213252Y1681124D01*
X3213252Y1152906D01*
X3212490Y1148994D01*
X3210255Y1145692D01*
X3169716Y1105154D01*
X3166414Y1102918D01*
X3162503Y1102156D01*
X3082239Y1102156D01*
X3078327Y1102918D01*
X3075025Y1105154D01*
X3072841Y1108456D01*
X3072079Y1112316D01*
X3072079Y1150924D01*
X3071368Y1157224D01*
X3069437Y1162608D01*
X3066389Y1167485D01*
X3062376Y1171498D01*
X3057499Y1174546D01*
X3052114Y1176477D01*
X3045815Y1177137D01*
X2846984Y1177137D01*
X2840685Y1176477D01*
X2835300Y1174546D01*
X2830423Y1171498D01*
X2826410Y1167485D01*
X2823362Y1162608D01*
X2821432Y1157224D01*
X2820771Y1150924D01*
X2820771Y952093D01*
X2821432Y945794D01*
X2823362Y940409D01*
X2826410Y935532D01*
X2830423Y931519D01*
X2835300Y928471D01*
X2840685Y926541D01*
X2846984Y925830D01*
X2875584Y925830D01*
X2879496Y925068D01*
X2882747Y922883D01*
X2884982Y919581D01*
X2885744Y915669D01*
X2885744Y801420D01*
X2884982Y797560D01*
X2882747Y794258D01*
X2340051Y251561D01*
X2336749Y249326D01*
X2332888Y248564D01*
X872388Y248564D01*
X868527Y249326D01*
X865225Y251561D01*
X863041Y254812D01*
X862279Y258724D01*
X862279Y312724D01*
X861568Y319024D01*
X859637Y324408D01*
X856589Y329285D01*
X852576Y333298D01*
X847699Y336346D01*
X842314Y338277D01*
X836015Y338937D01*
X637184Y338937D01*
X630885Y338277D01*
X625500Y336346D01*
X620623Y333298D01*
X616610Y329285D01*
X613562Y324408D01*
X611632Y319024D01*
X610971Y312724D01*
X610971Y113893D01*
X611632Y107594D01*
X613562Y102209D01*
X616610Y97332D01*
X620623Y93319D01*
X625500Y90271D01*
X630885Y88341D01*
G37*
G36*
X2770225Y1497228D02*
G01*
X2784652Y1498650D01*
X2798775Y1501851D01*
X2812389Y1506880D01*
X2825242Y1513586D01*
X2837129Y1521866D01*
X2847848Y1531620D01*
X2857246Y1542643D01*
X2865170Y1554784D01*
X2871470Y1567840D01*
X2876042Y1581607D01*
X2878785Y1595831D01*
X2879750Y1610309D01*
X2878785Y1624787D01*
X2876042Y1639011D01*
X2871470Y1652778D01*
X2865170Y1665833D01*
X2857246Y1677974D01*
X2847848Y1688998D01*
X2837129Y1698752D01*
X2825242Y1707032D01*
X2812389Y1713738D01*
X2798775Y1718767D01*
X2784652Y1721967D01*
X2770225Y1723389D01*
X2755747Y1722932D01*
X2741422Y1720596D01*
X2727502Y1716481D01*
X2714244Y1710588D01*
X2701848Y1703120D01*
X2690520Y1694078D01*
X2680462Y1683664D01*
X2671775Y1672031D01*
X2664663Y1659382D01*
X2659227Y1645970D01*
X2655570Y1631950D01*
X2653690Y1617573D01*
X2653690Y1603044D01*
X2655570Y1588668D01*
X2659227Y1574647D01*
X2664663Y1561236D01*
X2671775Y1548587D01*
X2680462Y1536954D01*
X2690520Y1526540D01*
X2701848Y1517497D01*
X2714244Y1510030D01*
X2727502Y1504137D01*
X2741422Y1500022D01*
X2755747Y1497685D01*
G37*
G36*
X2520137Y1497228D02*
G01*
X2534564Y1498650D01*
X2548737Y1501851D01*
X2562301Y1506880D01*
X2575153Y1513586D01*
X2587091Y1521866D01*
X2597810Y1531620D01*
X2607208Y1542643D01*
X2615082Y1554784D01*
X2621381Y1567840D01*
X2625953Y1581607D01*
X2628747Y1595831D01*
X2629662Y1610309D01*
X2628747Y1624787D01*
X2625953Y1639011D01*
X2621381Y1652778D01*
X2615082Y1665833D01*
X2607208Y1677974D01*
X2597810Y1688998D01*
X2587091Y1698752D01*
X2575153Y1707032D01*
X2562301Y1713738D01*
X2548737Y1718767D01*
X2534564Y1721967D01*
X2520137Y1723389D01*
X2505659Y1722932D01*
X2491333Y1720596D01*
X2477465Y1716481D01*
X2464206Y1710588D01*
X2451811Y1703120D01*
X2440482Y1694078D01*
X2430373Y1683664D01*
X2421737Y1672031D01*
X2414625Y1659382D01*
X2409139Y1645970D01*
X2405481Y1631950D01*
X2403652Y1617573D01*
X2403652Y1603044D01*
X2405481Y1588668D01*
X2409139Y1574647D01*
X2414625Y1561236D01*
X2421737Y1548587D01*
X2430373Y1536954D01*
X2440482Y1526540D01*
X2451811Y1517497D01*
X2464206Y1510030D01*
X2477465Y1504137D01*
X2491333Y1500022D01*
X2505659Y1497685D01*
G37*
G36*
X2966567Y1509014D02*
G01*
X2966567Y1560220D01*
X2915310Y1560220D01*
X2921863Y1548587D01*
X2930499Y1536954D01*
X2940608Y1526540D01*
X2951937Y1517497D01*
X2964332Y1510030D01*
G37*
G36*
X3066745Y1509115D02*
G01*
X3075279Y1513586D01*
X3087217Y1521866D01*
X3097936Y1531620D01*
X3107334Y1542643D01*
X3115208Y1554784D01*
X3117850Y1560220D01*
X3066745Y1560220D01*
G37*
G36*
X424535Y1629105D02*
G01*
X439064Y1629105D01*
X453440Y1630984D01*
X467461Y1634642D01*
X480872Y1640078D01*
X493522Y1647189D01*
X505155Y1655876D01*
X515569Y1665935D01*
X524611Y1677263D01*
X532079Y1689658D01*
X537972Y1702917D01*
X542086Y1716836D01*
X544423Y1731162D01*
X544880Y1745640D01*
X543458Y1760067D01*
X540258Y1774189D01*
X535228Y1787804D01*
X528523Y1800656D01*
X520242Y1812543D01*
X510489Y1823262D01*
X499465Y1832660D01*
X487324Y1840585D01*
X474268Y1846884D01*
X460501Y1851456D01*
X446278Y1854200D01*
X431800Y1855165D01*
X417322Y1854200D01*
X403098Y1851456D01*
X389331Y1846884D01*
X376275Y1840585D01*
X364134Y1832660D01*
X353110Y1823262D01*
X343357Y1812543D01*
X335076Y1800656D01*
X328371Y1787804D01*
X323342Y1774189D01*
X320141Y1760067D01*
X318719Y1745640D01*
X319176Y1731162D01*
X321513Y1716836D01*
X325628Y1702917D01*
X331520Y1689658D01*
X338988Y1677263D01*
X348030Y1665935D01*
X358444Y1655876D01*
X370078Y1647189D01*
X382727Y1640078D01*
X396138Y1634642D01*
X410159Y1630984D01*
G37*
G36*
X3066745Y1660398D02*
G01*
X3117850Y1660398D01*
X3115208Y1665833D01*
X3107334Y1677974D01*
X3097936Y1688998D01*
X3087217Y1698752D01*
X3075279Y1707032D01*
X3066745Y1711502D01*
G37*
G36*
X2915310Y1660398D02*
G01*
X2966567Y1660398D01*
X2966567Y1711604D01*
X2964332Y1710588D01*
X2951937Y1703120D01*
X2940608Y1694078D01*
X2930499Y1683664D01*
X2921863Y1672031D01*
G37*
G36*
X5653379Y1662125D02*
G01*
X5832195Y1662125D01*
X5838494Y1662836D01*
X5843879Y1664716D01*
X5848756Y1667814D01*
X5852769Y1671828D01*
X5855868Y1676704D01*
X5857748Y1682089D01*
X5858459Y1688388D01*
X5858459Y1867204D01*
X5857748Y1873504D01*
X5855868Y1878888D01*
X5852769Y1883765D01*
X5848756Y1887778D01*
X5843879Y1890826D01*
X5838494Y1892757D01*
X5832195Y1893468D01*
X5653379Y1893468D01*
X5647080Y1892757D01*
X5641695Y1890826D01*
X5636818Y1887778D01*
X5632805Y1883765D01*
X5629757Y1878888D01*
X5627827Y1873504D01*
X5627116Y1867204D01*
X5627116Y1688388D01*
X5627827Y1682089D01*
X5629757Y1676704D01*
X5632805Y1671828D01*
X5636818Y1667814D01*
X5641695Y1664716D01*
X5647080Y1662836D01*
G37*
G36*
X6042812Y1662175D02*
G01*
X6057290Y1663090D01*
X6071565Y1665782D01*
X6085332Y1670304D01*
X6098489Y1676450D01*
X6110732Y1684223D01*
X6121958Y1693519D01*
X6131864Y1704086D01*
X6140399Y1715820D01*
X6147409Y1728571D01*
X6152743Y1742084D01*
X6156350Y1756105D01*
X6158179Y1770532D01*
X6158179Y1785061D01*
X6156350Y1799488D01*
X6152743Y1813509D01*
X6147409Y1827022D01*
X6140399Y1839772D01*
X6131864Y1851507D01*
X6121958Y1862074D01*
X6110732Y1871370D01*
X6098489Y1879142D01*
X6085332Y1885289D01*
X6071565Y1889810D01*
X6057290Y1892503D01*
X6042812Y1893417D01*
X6028283Y1892503D01*
X6014008Y1889810D01*
X6000242Y1885289D01*
X5987084Y1879142D01*
X5974842Y1871370D01*
X5963615Y1862074D01*
X5953709Y1851507D01*
X5945174Y1839772D01*
X5938164Y1827022D01*
X5932830Y1813509D01*
X5929223Y1799488D01*
X5927394Y1785061D01*
X5927394Y1770532D01*
X5929223Y1756105D01*
X5932830Y1742084D01*
X5938164Y1728571D01*
X5945174Y1715820D01*
X5953709Y1704086D01*
X5963615Y1693519D01*
X5974842Y1684223D01*
X5987084Y1676450D01*
X6000242Y1670304D01*
X6014008Y1665782D01*
X6028283Y1663090D01*
G37*
G36*
X1270000Y1748993D02*
G01*
X1285138Y1749907D01*
X1300073Y1752600D01*
X1314551Y1757121D01*
X1328369Y1763369D01*
X1341374Y1771192D01*
X1353312Y1780590D01*
X1364030Y1791309D01*
X1373378Y1803247D01*
X1381252Y1816201D01*
X1387449Y1830070D01*
X1391970Y1844548D01*
X1394714Y1859483D01*
X1395628Y1874621D01*
X1394714Y1889760D01*
X1391970Y1904695D01*
X1387449Y1919173D01*
X1381252Y1932990D01*
X1373378Y1945995D01*
X1364030Y1957933D01*
X1353312Y1968652D01*
X1341374Y1977999D01*
X1328369Y1985873D01*
X1314551Y1992071D01*
X1300073Y1996592D01*
X1285138Y1999335D01*
X1270000Y2000250D01*
X1254861Y1999335D01*
X1239926Y1996592D01*
X1225448Y1992071D01*
X1211630Y1985873D01*
X1198626Y1977999D01*
X1186688Y1968652D01*
X1175969Y1957933D01*
X1166622Y1945995D01*
X1158748Y1932990D01*
X1152550Y1919173D01*
X1148029Y1904695D01*
X1145286Y1889760D01*
X1144371Y1874621D01*
X1145286Y1859483D01*
X1148029Y1844548D01*
X1152550Y1830070D01*
X1158748Y1816201D01*
X1166622Y1803247D01*
X1175969Y1791309D01*
X1186688Y1780590D01*
X1198626Y1771192D01*
X1211630Y1763369D01*
X1225448Y1757121D01*
X1239926Y1752600D01*
X1254861Y1749907D01*
G37*
G36*
X6042812Y1962150D02*
G01*
X6057290Y1963064D01*
X6071565Y1965807D01*
X6085332Y1970278D01*
X6098489Y1976475D01*
X6110732Y1984248D01*
X6121958Y1993493D01*
X6131864Y2004110D01*
X6140399Y2015845D01*
X6147409Y2028545D01*
X6152743Y2042058D01*
X6156350Y2056130D01*
X6158179Y2070557D01*
X6158179Y2085035D01*
X6156350Y2099462D01*
X6152743Y2113534D01*
X6147409Y2127046D01*
X6140399Y2139746D01*
X6131864Y2151481D01*
X6121958Y2162098D01*
X6110732Y2171344D01*
X6098489Y2179116D01*
X6085332Y2185314D01*
X6071565Y2189784D01*
X6057290Y2192528D01*
X6042812Y2193442D01*
X6028283Y2192528D01*
X6014008Y2189784D01*
X6000242Y2185314D01*
X5987084Y2179116D01*
X5974842Y2171344D01*
X5963615Y2162098D01*
X5953709Y2151481D01*
X5945174Y2139746D01*
X5938164Y2127046D01*
X5932830Y2113534D01*
X5929223Y2099462D01*
X5927394Y2085035D01*
X5927394Y2070557D01*
X5929223Y2056130D01*
X5932830Y2042058D01*
X5938164Y2028545D01*
X5945174Y2015845D01*
X5953709Y2004110D01*
X5963615Y1993493D01*
X5974842Y1984248D01*
X5987084Y1976475D01*
X6000242Y1970278D01*
X6014008Y1965807D01*
X6028283Y1963064D01*
G37*
G36*
X5742787Y1962150D02*
G01*
X5757265Y1963064D01*
X5771540Y1965807D01*
X5785358Y1970278D01*
X5798515Y1976475D01*
X5810758Y1984248D01*
X5821934Y1993493D01*
X5831890Y2004110D01*
X5840425Y2015845D01*
X5847435Y2028545D01*
X5852769Y2042058D01*
X5856376Y2056130D01*
X5858205Y2070557D01*
X5858205Y2085035D01*
X5856376Y2099462D01*
X5852769Y2113534D01*
X5847435Y2127046D01*
X5840425Y2139746D01*
X5831890Y2151481D01*
X5821934Y2162098D01*
X5810758Y2171344D01*
X5798515Y2179116D01*
X5785358Y2185314D01*
X5771540Y2189784D01*
X5757265Y2192528D01*
X5742787Y2193442D01*
X5728309Y2192528D01*
X5714034Y2189784D01*
X5700217Y2185314D01*
X5687060Y2179116D01*
X5674817Y2171344D01*
X5663641Y2162098D01*
X5653684Y2151481D01*
X5645150Y2139746D01*
X5638139Y2127046D01*
X5632805Y2113534D01*
X5629198Y2099462D01*
X5627370Y2085035D01*
X5627370Y2070557D01*
X5629198Y2056130D01*
X5632805Y2042058D01*
X5638139Y2028545D01*
X5645150Y2015845D01*
X5653684Y2004110D01*
X5663641Y1993493D01*
X5674817Y1984248D01*
X5687060Y1976475D01*
X5700217Y1970278D01*
X5714034Y1965807D01*
X5728309Y1963064D01*
G37*
G36*
X507288Y2350211D02*
G01*
X570331Y2350211D01*
X570331Y2387041D01*
X569671Y2393289D01*
X567740Y2398674D01*
X564692Y2403551D01*
X560679Y2407615D01*
X555802Y2410663D01*
X550418Y2412542D01*
X544118Y2413254D01*
X507288Y2413254D01*
G37*
G36*
X4873904Y2081225D02*
G01*
X5052720Y2081225D01*
X5059019Y2081936D01*
X5064404Y2083816D01*
X5069281Y2086914D01*
X5073294Y2090928D01*
X5076393Y2095804D01*
X5078272Y2101189D01*
X5078984Y2107488D01*
X5078984Y2286304D01*
X5078272Y2292604D01*
X5076393Y2297988D01*
X5073294Y2302865D01*
X5069281Y2306878D01*
X5064404Y2309926D01*
X5059019Y2311857D01*
X5052720Y2312568D01*
X4873904Y2312568D01*
X4867605Y2311857D01*
X4862220Y2309926D01*
X4857343Y2306878D01*
X4853330Y2302865D01*
X4850282Y2297988D01*
X4848352Y2292604D01*
X4847640Y2286304D01*
X4847640Y2107488D01*
X4848352Y2101189D01*
X4850282Y2095804D01*
X4853330Y2090928D01*
X4857343Y2086914D01*
X4862220Y2083816D01*
X4867605Y2081936D01*
G37*
G36*
X4656074Y2081479D02*
G01*
X4670552Y2081479D01*
X4684979Y2083307D01*
X4699050Y2086914D01*
X4712563Y2092248D01*
X4725263Y2099259D01*
X4736998Y2107793D01*
X4747615Y2117750D01*
X4756861Y2128926D01*
X4764633Y2141169D01*
X4770831Y2154326D01*
X4775301Y2168144D01*
X4778044Y2182418D01*
X4778959Y2196896D01*
X4778044Y2211374D01*
X4775301Y2225649D01*
X4770831Y2239467D01*
X4764633Y2252624D01*
X4756861Y2264867D01*
X4747615Y2276043D01*
X4736998Y2286000D01*
X4725263Y2294534D01*
X4712563Y2301544D01*
X4699050Y2306878D01*
X4684979Y2310485D01*
X4670552Y2312314D01*
X4656074Y2312314D01*
X4641646Y2310485D01*
X4627575Y2306878D01*
X4614062Y2301544D01*
X4601362Y2294534D01*
X4589627Y2286000D01*
X4579010Y2276043D01*
X4569764Y2264867D01*
X4561992Y2252624D01*
X4555794Y2239467D01*
X4551324Y2225649D01*
X4548581Y2211374D01*
X4547666Y2196896D01*
X4548581Y2182418D01*
X4551324Y2168144D01*
X4555794Y2154326D01*
X4561992Y2141169D01*
X4569764Y2128926D01*
X4579010Y2117750D01*
X4589627Y2107793D01*
X4601362Y2099259D01*
X4614062Y2092248D01*
X4627575Y2086914D01*
X4641646Y2083307D01*
G37*
G36*
X1274673Y2133904D02*
G01*
X1293215Y2135378D01*
X1311503Y2138680D01*
X1329334Y2143912D01*
X1346555Y2150922D01*
X1362964Y2159660D01*
X1378407Y2170023D01*
X1392682Y2181910D01*
X1405686Y2195271D01*
X1417218Y2209850D01*
X1427226Y2225548D01*
X1435506Y2242159D01*
X1442059Y2259584D01*
X1446834Y2277567D01*
X1449679Y2295906D01*
X1450644Y2314498D01*
X1449679Y2333091D01*
X1446834Y2351430D01*
X1442059Y2369413D01*
X1435506Y2386838D01*
X1427226Y2403449D01*
X1417218Y2419146D01*
X1405686Y2433726D01*
X1392682Y2447036D01*
X1378407Y2458974D01*
X1362964Y2469337D01*
X1346555Y2478074D01*
X1329334Y2485085D01*
X1311503Y2490317D01*
X1293215Y2493619D01*
X1274673Y2495092D01*
X1256080Y2494584D01*
X1237640Y2492197D01*
X1219504Y2487930D01*
X1201928Y2481834D01*
X1185113Y2473960D01*
X1169162Y2464358D01*
X1154277Y2453182D01*
X1140663Y2440584D01*
X1128369Y2426614D01*
X1117600Y2411425D01*
X1108405Y2395270D01*
X1100988Y2378202D01*
X1095349Y2360523D01*
X1091539Y2342286D01*
X1089609Y2323795D01*
X1089609Y2305202D01*
X1091539Y2286711D01*
X1095349Y2268474D01*
X1100988Y2250795D01*
X1108405Y2233726D01*
X1117600Y2217572D01*
X1128369Y2202383D01*
X1140663Y2188413D01*
X1154277Y2175814D01*
X1169162Y2164638D01*
X1185113Y2155037D01*
X1201928Y2147163D01*
X1219504Y2141067D01*
X1237640Y2136800D01*
X1256080Y2134412D01*
G37*
G36*
X2089962Y2157679D02*
G01*
X2104491Y2157679D01*
X2118868Y2159508D01*
X2132939Y2163114D01*
X2146452Y2168448D01*
X2159152Y2175459D01*
X2170938Y2183993D01*
X2181504Y2193950D01*
X2190750Y2205126D01*
X2198522Y2217369D01*
X2204720Y2230526D01*
X2209190Y2244344D01*
X2211933Y2258618D01*
X2212848Y2273096D01*
X2211933Y2287574D01*
X2209190Y2301849D01*
X2204720Y2315667D01*
X2198522Y2328773D01*
X2190750Y2341067D01*
X2181504Y2352243D01*
X2170938Y2362200D01*
X2159152Y2370734D01*
X2146452Y2377694D01*
X2132939Y2383078D01*
X2118868Y2386685D01*
X2104491Y2388514D01*
X2089962Y2388514D01*
X2075535Y2386685D01*
X2061464Y2383078D01*
X2047951Y2377694D01*
X2035251Y2370734D01*
X2023516Y2362200D01*
X2012899Y2352243D01*
X2003653Y2341067D01*
X1995881Y2328773D01*
X1989683Y2315667D01*
X1985213Y2301849D01*
X1982470Y2287574D01*
X1981555Y2273096D01*
X1982470Y2258618D01*
X1985213Y2244344D01*
X1989683Y2230526D01*
X1995881Y2217369D01*
X2003653Y2205126D01*
X2012899Y2193950D01*
X2023516Y2183993D01*
X2035251Y2175459D01*
X2047951Y2168448D01*
X2061464Y2163114D01*
X2075535Y2159508D01*
G37*
G36*
X3889959Y2157679D02*
G01*
X3904487Y2157679D01*
X3918864Y2159508D01*
X3932936Y2163114D01*
X3946448Y2168448D01*
X3959148Y2175459D01*
X3970934Y2183993D01*
X3981500Y2193950D01*
X3990746Y2205126D01*
X3998518Y2217369D01*
X4004716Y2230526D01*
X4009186Y2244344D01*
X4011929Y2258618D01*
X4012844Y2273096D01*
X4011929Y2287574D01*
X4009186Y2301849D01*
X4004716Y2315667D01*
X3998518Y2328773D01*
X3990746Y2341067D01*
X3981500Y2352243D01*
X3970934Y2362200D01*
X3959148Y2370734D01*
X3946448Y2377694D01*
X3932936Y2383078D01*
X3918864Y2386685D01*
X3904487Y2388514D01*
X3889959Y2388514D01*
X3875532Y2386685D01*
X3861460Y2383078D01*
X3847947Y2377694D01*
X3835247Y2370734D01*
X3823512Y2362200D01*
X3812895Y2352243D01*
X3803650Y2341067D01*
X3795877Y2328773D01*
X3789679Y2315667D01*
X3785209Y2301849D01*
X3782466Y2287574D01*
X3781551Y2273096D01*
X3782466Y2258618D01*
X3785209Y2244344D01*
X3789679Y2230526D01*
X3795877Y2217369D01*
X3803650Y2205126D01*
X3812895Y2193950D01*
X3823512Y2183993D01*
X3835247Y2175459D01*
X3847947Y2168448D01*
X3861460Y2163114D01*
X3875532Y2159508D01*
G37*
G36*
X2893822Y2324455D02*
G01*
X2945841Y2324455D01*
X2945841Y2376576D01*
X2935224Y2370734D01*
X2923489Y2362200D01*
X2912922Y2352243D01*
X2903677Y2341067D01*
X2895854Y2328773D01*
G37*
G36*
X3048558Y2324455D02*
G01*
X3100578Y2324455D01*
X3098546Y2328773D01*
X3090773Y2341067D01*
X3081477Y2352243D01*
X3070910Y2362200D01*
X3059176Y2370734D01*
X3048558Y2376576D01*
G37*
G36*
X2945841Y2169617D02*
G01*
X2945841Y2221738D01*
X2893822Y2221738D01*
X2895854Y2217369D01*
X2903677Y2205126D01*
X2912922Y2193950D01*
X2923489Y2183993D01*
X2935224Y2175459D01*
G37*
G36*
X3048558Y2169617D02*
G01*
X3059176Y2175459D01*
X3070910Y2183993D01*
X3081477Y2193950D01*
X3090773Y2205126D01*
X3098546Y2217369D01*
X3100578Y2221738D01*
X3048558Y2221738D01*
G37*
G36*
X507288Y2186940D02*
G01*
X544118Y2186940D01*
X550418Y2187651D01*
X555802Y2189530D01*
X560679Y2192578D01*
X564692Y2196642D01*
X567740Y2201519D01*
X569671Y2206904D01*
X570331Y2213152D01*
X570331Y2249982D01*
X507288Y2249982D01*
G37*
G36*
X370281Y2186940D02*
G01*
X407111Y2186940D01*
X407111Y2249982D01*
X344068Y2249982D01*
X344068Y2213152D01*
X344728Y2206904D01*
X346659Y2201519D01*
X349707Y2196642D01*
X353720Y2192578D01*
X358597Y2189530D01*
X363982Y2187651D01*
G37*
G36*
X6136792Y2292197D02*
G01*
X6148984Y2293061D01*
X6160922Y2295652D01*
X6172352Y2299919D01*
X6183071Y2305761D01*
X6192875Y2313076D01*
X6201511Y2321712D01*
X6208826Y2331516D01*
X6214668Y2342235D01*
X6218936Y2353665D01*
X6221526Y2365603D01*
X6222441Y2377795D01*
X6221526Y2389987D01*
X6218936Y2401925D01*
X6214668Y2413355D01*
X6208826Y2424074D01*
X6201511Y2433878D01*
X6192875Y2442514D01*
X6183071Y2449830D01*
X6172352Y2455672D01*
X6160922Y2459939D01*
X6148984Y2462580D01*
X6136792Y2463444D01*
X6124600Y2462580D01*
X6112662Y2459939D01*
X6101232Y2455672D01*
X6090513Y2449830D01*
X6080709Y2442514D01*
X6072073Y2433878D01*
X6064758Y2424074D01*
X6058916Y2413355D01*
X6054648Y2401925D01*
X6052058Y2389987D01*
X6051143Y2377795D01*
X6052058Y2365603D01*
X6054648Y2353665D01*
X6058916Y2342235D01*
X6064758Y2331516D01*
X6072073Y2321712D01*
X6080709Y2313076D01*
X6090513Y2305761D01*
X6101232Y2299919D01*
X6112662Y2295652D01*
X6124600Y2293061D01*
G37*
G36*
X1270000Y1448968D02*
G01*
X1285138Y1449882D01*
X1300073Y1452626D01*
X1314551Y1457147D01*
X1328369Y1463344D01*
X1341374Y1471218D01*
X1353312Y1480566D01*
X1364030Y1491284D01*
X1373378Y1503222D01*
X1381252Y1516227D01*
X1387449Y1530045D01*
X1391970Y1544523D01*
X1394714Y1559458D01*
X1395628Y1574596D01*
X1394714Y1589735D01*
X1391970Y1604670D01*
X1387449Y1619148D01*
X1381252Y1633016D01*
X1373378Y1645970D01*
X1364030Y1657908D01*
X1353312Y1668627D01*
X1341374Y1678025D01*
X1328369Y1685848D01*
X1314551Y1692097D01*
X1300073Y1696618D01*
X1285138Y1699310D01*
X1270000Y1700225D01*
X1254861Y1699310D01*
X1239926Y1696618D01*
X1225448Y1692097D01*
X1211630Y1685848D01*
X1198626Y1678025D01*
X1186688Y1668627D01*
X1175969Y1657908D01*
X1166622Y1645970D01*
X1158748Y1633016D01*
X1152550Y1619148D01*
X1148029Y1604670D01*
X1145286Y1589735D01*
X1144371Y1574596D01*
X1145286Y1559458D01*
X1148029Y1544523D01*
X1152550Y1530045D01*
X1158748Y1516227D01*
X1166622Y1503222D01*
X1175969Y1491284D01*
X1186688Y1480566D01*
X1198626Y1471218D01*
X1211630Y1463344D01*
X1225448Y1457147D01*
X1239926Y1452626D01*
X1254861Y1449882D01*
G37*

%LPD*%
D11*
X2387600Y1051499D02*
G01*
X2266589Y1172502D01*
X2266589Y1610299D01*
X2946400Y1051499D02*
G01*
X2946400Y772099D01*
X2362200Y187899D01*
X762000Y187899D01*
X736600Y213299D01*
D12*
X1409700Y1026099D02*
G01*
X1422400Y1026099D01*
X2552700Y2156399D01*
X2552700Y2428562D01*
X2697200Y2573063D01*
D14*
X3001180Y530799D02*
G01*
X3454400Y984023D01*
X3454400Y2003999D01*
X3297199Y2161199D01*
X3297199Y2273061D01*
D11*
X3873500Y530799D02*
G01*
X3597201Y807097D01*
X3597201Y2273061D01*
D16*
X2697223Y2272987D02*
G01*
X3263900Y1706311D01*
X3263900Y1127699D01*
X3187700Y1051499D01*
X2946400Y1051499D01*
D18*
G01*
X1270000Y1874586D03*
G01*
X1270000Y1574586D03*
D19*
G01*
X3897198Y2273061D03*
G01*
X3897198Y2573060D03*
G01*
X3597198Y2273061D03*
G01*
X3597198Y2573060D03*
G01*
X3297199Y2273061D03*
G01*
X3297199Y2573060D03*
G01*
X2997200Y2273061D03*
G01*
X2997200Y2573060D03*
G01*
X2697200Y2273061D03*
G01*
X2697200Y2573060D03*
G01*
X2397201Y2273061D03*
G01*
X2397201Y2573060D03*
G01*
X2097201Y2273061D03*
G36*
X2187318Y2483070D02*
G01*
X2007232Y2483070D01*
X2007232Y2663156D01*
X2187318Y2663156D01*
G37*
G36*
X3786002Y618296D02*
G01*
X3960997Y618296D01*
X3960997Y443301D01*
X3786002Y443301D01*
G37*
D22*
G01*
X4123512Y530799D03*
G01*
X4373499Y530799D03*
D21*
G01*
X431800Y1241999D03*
D22*
G01*
X431800Y1492011D03*
G01*
X431800Y1741998D03*
D23*
G01*
X3822700Y1483299D03*
D18*
G01*
X4102100Y1483299D03*
G01*
X4381500Y1483299D03*
D23*
G01*
X4381500Y1051499D03*
D18*
G01*
X4102100Y1051499D03*
G01*
X3822700Y1051499D03*
D23*
G01*
X1689100Y1026099D03*
D18*
G01*
X1409700Y1026099D03*
G01*
X1130300Y1026099D03*
D23*
G01*
X2946400Y1051499D03*
D18*
G01*
X2667000Y1051499D03*
G01*
X2387600Y1051499D03*
G36*
X1135689Y618296D02*
G01*
X1310685Y618296D01*
X1310685Y443301D01*
X1135689Y443301D01*
G37*
D22*
G01*
X1473200Y530799D03*
G36*
X2024689Y618296D02*
G01*
X2199685Y618296D01*
X2199685Y443301D01*
X2024689Y443301D01*
G37*
G01*
X2362200Y530799D03*
G36*
X2913689Y618296D02*
G01*
X3088685Y618296D01*
X3088685Y443301D01*
X2913689Y443301D01*
G37*
G01*
X3251200Y530799D03*
D21*
G01*
X457200Y2300086D03*
D22*
G01*
X457200Y2550099D03*
G36*
X4873299Y2286899D02*
G01*
X5053299Y2286899D01*
X5053299Y2106899D01*
X4873299Y2106899D01*
G37*
D19*
G01*
X4663313Y2196886D03*
G01*
X4963312Y2496886D03*
G01*
X4663313Y2496886D03*
D20*
G01*
X5742810Y1777794D03*
D19*
G01*
X5742785Y2077793D03*
G01*
X6042784Y1777794D03*
G01*
X6042784Y2077793D03*
G36*
X5179921Y1181046D02*
G01*
X5354673Y1181046D01*
X5354673Y1006294D01*
X5179921Y1006294D01*
G37*
D22*
G01*
X5517306Y1093678D03*
G01*
X5767293Y1093678D03*
G01*
X6017305Y1093678D03*
G36*
X2179218Y1697675D02*
G01*
X2353970Y1697675D01*
X2353970Y1522923D01*
X2179218Y1522923D01*
G37*
G01*
X2516606Y1610299D03*
G01*
X2766593Y1610299D03*
G01*
X3016605Y1610299D03*
D23*
G01*
X736600Y213299D03*
D18*
G01*
X736600Y492699D03*
G01*
X736600Y772099D03*
D17*
G01*
X482600Y1965899D03*
G01*
X1447800Y2016699D03*
G01*
X1117600Y1394399D03*
G01*
X2425700Y1724599D03*
G01*
X2768600Y1800799D03*
G01*
X3022600Y1775399D03*
G01*
X2692400Y2118299D03*
G01*
X3175000Y2118299D03*
G01*
X3873500Y1902399D03*
G01*
X5842000Y2232599D03*
G01*
X6121400Y1927799D03*
G01*
X5499100Y1648399D03*
G01*
X5080000Y2016699D03*
G01*
X4965700Y1305499D03*
G01*
X5664200Y1546799D03*
G01*
X5918200Y1508699D03*
G01*
X6146800Y899099D03*
G01*
X5905500Y2105599D03*
G01*
X5626100Y2232599D03*
G01*
X6159500Y1622999D03*
G01*
X6197600Y1153099D03*
G01*
X6235700Y848299D03*
G01*
X5130800Y835599D03*
G01*
X4584700Y619699D03*
G01*
X4445000Y340299D03*
G01*
X3746500Y391099D03*
G01*
X3289300Y365699D03*
G01*
X3149600Y924499D03*
G01*
X3441700Y746699D03*
G01*
X2679700Y1356299D03*
G01*
X3340100Y1661099D03*
G01*
X3771900Y2118299D03*
G01*
X2832100Y2435799D03*
G01*
X3492500Y2435799D03*
G01*
X3175000Y2423099D03*
G01*
X1689100Y2384999D03*
G01*
X889000Y2334199D03*
G01*
X1016000Y2435799D03*
G01*
X2311400Y2423099D03*
G01*
X863600Y657799D03*
G01*
X609600Y1508699D03*
G01*
X1409700Y352999D03*
G01*
X1130300Y352999D03*
G01*
X2070100Y289499D03*
G01*
X2044700Y733999D03*
G01*
X1955800Y1432499D03*
G01*
X1587500Y1419799D03*
G01*
X2667000Y721299D03*
G01*
X3721100Y911799D03*
G01*
X3784600Y1229299D03*
G01*
X4241800Y1394399D03*
G01*
X4394200Y2321499D03*
G01*
X4457700Y2054799D03*
G01*
X5156200Y2372299D03*
G01*
X3695700Y2397699D03*
G01*
X4216400Y2613599D03*
G01*
X4483100Y2537399D03*
G01*
X1016000Y1851599D03*
G01*
X1333500Y1394399D03*
G01*
X584200Y1153099D03*
G01*
X215900Y835599D03*
G01*
X368300Y2677099D03*
G01*
X342900Y2092899D03*
G01*
X317500Y1927799D03*
M02*
