G04 Layer: TopLayer*
G04 EasyEDA v6.4.14, 2021-01-31T15:52:51+00:00*
G04 53acab47483b404e891b66caa61737d9,c23c5ad5fcdd482d9714491510f6a4f3,10*
G04 Gerber Generator version 0.2*
G04 Scale: 100 percent, Rotated: No, Reflected: No *
G04 Dimensions in millimeters *
G04 leading zeros omitted , absolute positions ,4 integer and 5 decimal *
%FSLAX45Y45*%
%MOMM*%

%ADD11C,0.7000*%
%ADD12C,0.4000*%
%ADD13C,0.4500*%
%ADD14C,1.0000*%
%ADD15C,1.5000*%
%ADD16C,0.5000*%
%ADD17C,0.6096*%
%ADD18C,2.0000*%
%ADD19C,1.8000*%
%ADD20R,1.8000X1.8000*%
%ADD21R,1.7500X1.7500*%
%ADD22C,1.7500*%
%ADD23R,2.0000X2.0000*%

%LPD*%
G36*
X200355Y23063D02*
G01*
X182422Y24028D01*
X165506Y26568D01*
X148945Y30784D01*
X132842Y36576D01*
X117398Y43942D01*
X102768Y52781D01*
X89052Y62991D01*
X76403Y74523D01*
X64973Y87223D01*
X54813Y100990D01*
X46075Y115671D01*
X38760Y131165D01*
X33070Y147269D01*
X28956Y163880D01*
X26517Y180797D01*
X25654Y198272D01*
X25654Y2819146D01*
X26619Y2837586D01*
X29159Y2854502D01*
X33375Y2871063D01*
X39166Y2887167D01*
X46532Y2902610D01*
X55372Y2917240D01*
X65582Y2930956D01*
X77114Y2943606D01*
X89814Y2955036D01*
X103581Y2965196D01*
X118262Y2973933D01*
X133756Y2981248D01*
X149860Y2986938D01*
X166471Y2991053D01*
X183388Y2993491D01*
X200863Y2994355D01*
X6249162Y2994355D01*
X6267602Y2993390D01*
X6284468Y2990850D01*
X6301079Y2986633D01*
X6317183Y2980842D01*
X6332575Y2973476D01*
X6347256Y2964637D01*
X6360972Y2954426D01*
X6373571Y2942894D01*
X6385052Y2930194D01*
X6395212Y2916428D01*
X6403949Y2901746D01*
X6411214Y2886252D01*
X6416954Y2870149D01*
X6421018Y2853537D01*
X6423507Y2836621D01*
X6424371Y2819146D01*
X6424371Y198272D01*
X6423406Y179832D01*
X6420866Y162915D01*
X6416649Y146354D01*
X6410858Y130251D01*
X6403492Y114808D01*
X6394653Y100177D01*
X6384391Y86461D01*
X6372910Y73812D01*
X6360160Y62382D01*
X6346393Y52222D01*
X6331712Y43484D01*
X6316218Y36169D01*
X6300114Y30480D01*
X6283502Y26365D01*
X6266586Y23926D01*
X6249162Y23063D01*
G37*

%LPC*%
G36*
X637184Y87630D02*
G01*
X836015Y87630D01*
X842314Y88341D01*
X847699Y90271D01*
X852576Y93319D01*
X856589Y97332D01*
X859637Y102209D01*
X861568Y107594D01*
X862279Y113893D01*
X862279Y312724D01*
X861568Y319024D01*
X859637Y324408D01*
X856589Y329285D01*
X852576Y333298D01*
X847699Y336346D01*
X842314Y338277D01*
X836015Y338937D01*
X637184Y338937D01*
X630885Y338277D01*
X625500Y336346D01*
X620623Y333298D01*
X616610Y329285D01*
X613562Y324408D01*
X611632Y319024D01*
X610971Y312724D01*
X610971Y113893D01*
X611632Y107594D01*
X613562Y102209D01*
X616610Y97332D01*
X620623Y93319D01*
X625500Y90271D01*
X630885Y88341D01*
G37*
G36*
X284073Y286715D02*
G01*
X302615Y288137D01*
X320903Y291490D01*
X338734Y296672D01*
X355955Y303682D01*
X372414Y312420D01*
X387807Y322834D01*
X402082Y334721D01*
X415086Y348081D01*
X426618Y362661D01*
X436626Y378358D01*
X444906Y394970D01*
X451510Y412394D01*
X456234Y430377D01*
X459079Y448716D01*
X460044Y467309D01*
X459079Y485901D01*
X456234Y504240D01*
X451510Y522224D01*
X444906Y539648D01*
X436626Y556260D01*
X426618Y571957D01*
X415086Y586536D01*
X402082Y599897D01*
X387807Y611784D01*
X372414Y622198D01*
X355955Y630936D01*
X338734Y637946D01*
X320903Y643128D01*
X302615Y646430D01*
X284073Y647903D01*
X265480Y647395D01*
X246989Y645007D01*
X228904Y640740D01*
X211328Y634644D01*
X194513Y626770D01*
X178562Y617169D01*
X163677Y606044D01*
X150012Y593394D01*
X137769Y579424D01*
X127000Y564235D01*
X117805Y548081D01*
X110388Y531012D01*
X104698Y513334D01*
X100888Y495096D01*
X99009Y476605D01*
X99009Y458012D01*
X100888Y439521D01*
X104698Y421284D01*
X110388Y403606D01*
X117805Y386537D01*
X127000Y370382D01*
X137769Y355193D01*
X150012Y341223D01*
X163677Y328574D01*
X178562Y317449D01*
X194513Y307848D01*
X211328Y299974D01*
X228904Y293878D01*
X246989Y289610D01*
X265480Y287223D01*
G37*
G36*
X5948273Y299415D02*
G01*
X5966815Y300837D01*
X5985103Y304190D01*
X6002934Y309372D01*
X6020155Y316382D01*
X6036614Y325120D01*
X6052007Y335534D01*
X6066282Y347421D01*
X6079286Y360781D01*
X6090818Y375361D01*
X6100826Y391058D01*
X6109106Y407670D01*
X6115710Y425094D01*
X6120434Y443077D01*
X6123279Y461416D01*
X6124244Y480009D01*
X6123279Y498601D01*
X6120434Y516940D01*
X6115710Y534924D01*
X6109106Y552348D01*
X6100826Y568960D01*
X6090818Y584657D01*
X6079286Y599236D01*
X6066282Y612597D01*
X6052007Y624484D01*
X6036614Y634898D01*
X6020155Y643636D01*
X6002934Y650646D01*
X5985103Y655828D01*
X5966815Y659130D01*
X5948273Y660603D01*
X5929680Y660095D01*
X5911189Y657707D01*
X5893104Y653440D01*
X5875528Y647344D01*
X5858713Y639470D01*
X5842762Y629869D01*
X5827877Y618744D01*
X5814212Y606094D01*
X5801969Y592124D01*
X5791200Y576935D01*
X5782005Y560781D01*
X5774588Y543712D01*
X5768898Y526034D01*
X5765088Y507796D01*
X5763209Y489305D01*
X5763209Y470712D01*
X5765088Y452221D01*
X5768898Y433984D01*
X5774588Y416306D01*
X5782005Y399237D01*
X5791200Y383082D01*
X5801969Y367893D01*
X5814212Y353923D01*
X5827877Y341274D01*
X5842762Y330149D01*
X5858713Y320548D01*
X5875528Y312674D01*
X5893104Y306578D01*
X5911189Y302310D01*
X5929680Y299923D01*
G37*
G36*
X736600Y367080D02*
G01*
X751738Y367995D01*
X766673Y370738D01*
X781151Y375259D01*
X794969Y381457D01*
X807974Y389331D01*
X819912Y398678D01*
X830630Y409397D01*
X839978Y421335D01*
X847852Y434340D01*
X854049Y448157D01*
X858570Y462635D01*
X861314Y477570D01*
X862228Y492709D01*
X861314Y507847D01*
X858570Y522782D01*
X854049Y537260D01*
X847852Y551078D01*
X839978Y564083D01*
X830630Y576021D01*
X819912Y586740D01*
X807974Y596087D01*
X794969Y603961D01*
X781151Y610158D01*
X766673Y614680D01*
X751738Y617423D01*
X736600Y618337D01*
X721461Y617423D01*
X706526Y614680D01*
X691540Y610006D01*
X687882Y609600D01*
X684326Y610463D01*
X681329Y612546D01*
X289915Y1003960D01*
X287731Y1007262D01*
X286969Y1011123D01*
X286969Y1307795D01*
X287731Y1311656D01*
X289915Y1314958D01*
X301294Y1326337D01*
X304596Y1328572D01*
X308508Y1329334D01*
X312369Y1328572D01*
X315671Y1326337D01*
X317855Y1323035D01*
X318668Y1319174D01*
X318668Y1292098D01*
X381711Y1292098D01*
X381711Y1355140D01*
X354634Y1355140D01*
X350774Y1355953D01*
X347472Y1358138D01*
X345236Y1361440D01*
X344474Y1365300D01*
X345236Y1369212D01*
X347472Y1372514D01*
X365963Y1391005D01*
X369620Y1393342D01*
X373938Y1393952D01*
X378104Y1392682D01*
X382727Y1390091D01*
X396138Y1384655D01*
X410159Y1380998D01*
X424535Y1379118D01*
X439064Y1379118D01*
X453440Y1380998D01*
X467461Y1384655D01*
X480872Y1390091D01*
X493522Y1397203D01*
X505155Y1405890D01*
X515569Y1415948D01*
X524611Y1427276D01*
X532079Y1439672D01*
X537972Y1452930D01*
X542086Y1466850D01*
X544423Y1481175D01*
X544880Y1495653D01*
X543458Y1510080D01*
X540258Y1524203D01*
X535228Y1537817D01*
X528523Y1550670D01*
X520242Y1562557D01*
X510489Y1573276D01*
X499465Y1582674D01*
X487324Y1590598D01*
X474268Y1596898D01*
X460501Y1601470D01*
X446278Y1604213D01*
X431800Y1605178D01*
X417322Y1604213D01*
X403098Y1601470D01*
X389331Y1596898D01*
X376275Y1590598D01*
X364134Y1582674D01*
X353110Y1573276D01*
X343357Y1562557D01*
X335076Y1550670D01*
X328371Y1537817D01*
X323342Y1524203D01*
X320141Y1510080D01*
X318719Y1495653D01*
X319430Y1476400D01*
X318465Y1473352D01*
X316585Y1470761D01*
X207822Y1361897D01*
X202539Y1354937D01*
X198780Y1347368D01*
X196443Y1339291D01*
X195630Y1330452D01*
X195681Y986231D01*
X196900Y977544D01*
X199593Y969568D01*
X203657Y962253D01*
X209346Y955395D01*
X616762Y547979D01*
X618845Y544982D01*
X619709Y541426D01*
X619302Y537768D01*
X614629Y522782D01*
X611886Y507847D01*
X610971Y492709D01*
X611886Y477570D01*
X614629Y462635D01*
X619150Y448157D01*
X625348Y434340D01*
X633222Y421335D01*
X642569Y409397D01*
X653288Y398678D01*
X665226Y389331D01*
X678230Y381457D01*
X692048Y375259D01*
X706526Y370738D01*
X721461Y367995D01*
G37*
G36*
X5960973Y2509215D02*
G01*
X5979515Y2510637D01*
X5997803Y2513990D01*
X6015634Y2519172D01*
X6032855Y2526182D01*
X6049314Y2534920D01*
X6064707Y2545334D01*
X6078982Y2557221D01*
X6091986Y2570581D01*
X6103518Y2585161D01*
X6113526Y2600858D01*
X6121806Y2617470D01*
X6128410Y2634894D01*
X6133134Y2652877D01*
X6135979Y2671216D01*
X6136944Y2689809D01*
X6135979Y2708402D01*
X6133134Y2726740D01*
X6128410Y2744724D01*
X6121806Y2762148D01*
X6113526Y2778760D01*
X6103518Y2794457D01*
X6091986Y2809036D01*
X6078982Y2822397D01*
X6064707Y2834284D01*
X6049314Y2844698D01*
X6032855Y2853436D01*
X6015634Y2860446D01*
X5997803Y2865628D01*
X5979515Y2868930D01*
X5960973Y2870403D01*
X5942380Y2869895D01*
X5923889Y2867507D01*
X5905804Y2863240D01*
X5888228Y2857144D01*
X5871413Y2849270D01*
X5855462Y2839669D01*
X5840577Y2828544D01*
X5826912Y2815894D01*
X5814669Y2801924D01*
X5803900Y2786735D01*
X5794705Y2770581D01*
X5787288Y2753512D01*
X5781598Y2735834D01*
X5777788Y2717596D01*
X5775909Y2699105D01*
X5775909Y2680512D01*
X5777788Y2662021D01*
X5781598Y2643784D01*
X5787288Y2626106D01*
X5794705Y2609037D01*
X5803900Y2592882D01*
X5814669Y2577693D01*
X5826912Y2563723D01*
X5840577Y2551074D01*
X5855462Y2539949D01*
X5871413Y2530348D01*
X5888228Y2522474D01*
X5905804Y2516378D01*
X5923889Y2512110D01*
X5942380Y2509723D01*
G37*
G36*
X1136243Y417677D02*
G01*
X1173073Y417677D01*
X1173073Y480720D01*
X1110030Y480720D01*
X1110030Y443890D01*
X1110742Y437591D01*
X1112621Y432206D01*
X1115669Y427329D01*
X1119733Y423316D01*
X1124610Y420268D01*
X1129995Y418338D01*
G37*
G36*
X1273302Y417677D02*
G01*
X1310132Y417677D01*
X1316380Y418338D01*
X1321765Y420268D01*
X1326642Y423316D01*
X1330706Y427329D01*
X1333754Y432206D01*
X1335633Y437591D01*
X1336344Y443890D01*
X1336344Y480720D01*
X1273302Y480720D01*
G37*
G36*
X3786581Y417677D02*
G01*
X3960418Y417677D01*
X3966718Y418338D01*
X3972102Y420268D01*
X3976979Y423316D01*
X3980992Y427329D01*
X3984040Y432206D01*
X3985971Y437591D01*
X3986631Y443890D01*
X3986631Y617728D01*
X3985971Y624027D01*
X3984040Y629412D01*
X3980992Y634238D01*
X3976979Y638302D01*
X3972102Y641350D01*
X3966718Y643280D01*
X3960418Y643940D01*
X3786581Y643940D01*
X3780332Y643280D01*
X3774897Y641350D01*
X3770071Y638302D01*
X3766007Y634238D01*
X3762959Y629412D01*
X3761028Y624027D01*
X3760368Y617728D01*
X3760368Y443890D01*
X3761028Y437591D01*
X3762959Y432206D01*
X3766007Y427329D01*
X3770071Y423316D01*
X3774897Y420268D01*
X3780332Y418338D01*
G37*
G36*
X1476806Y417728D02*
G01*
X1491234Y419150D01*
X1505407Y422351D01*
X1518970Y427380D01*
X1531823Y434085D01*
X1543761Y442366D01*
X1554480Y452120D01*
X1563878Y463143D01*
X1571752Y475284D01*
X1578051Y488340D01*
X1582623Y502107D01*
X1585417Y516331D01*
X1586331Y530809D01*
X1585417Y545287D01*
X1582623Y559511D01*
X1578051Y573278D01*
X1571752Y586333D01*
X1563878Y598474D01*
X1554480Y609498D01*
X1543761Y619252D01*
X1531823Y627532D01*
X1518970Y634238D01*
X1505407Y639267D01*
X1491234Y642467D01*
X1476806Y643890D01*
X1462328Y643432D01*
X1448003Y641096D01*
X1437944Y638098D01*
X1434388Y637743D01*
X1430883Y638606D01*
X1427886Y640689D01*
X1178915Y889609D01*
X1176731Y892911D01*
X1175969Y896823D01*
X1175969Y902563D01*
X1176680Y906373D01*
X1178763Y909624D01*
X1181963Y911809D01*
X1188669Y914857D01*
X1201674Y922731D01*
X1213612Y932078D01*
X1224330Y942797D01*
X1233678Y954735D01*
X1241552Y967740D01*
X1247749Y981557D01*
X1252270Y996035D01*
X1255014Y1010970D01*
X1255928Y1026109D01*
X1255014Y1041247D01*
X1252270Y1056182D01*
X1247749Y1070660D01*
X1241552Y1084478D01*
X1233678Y1097483D01*
X1224330Y1109421D01*
X1213612Y1120140D01*
X1201674Y1129487D01*
X1188669Y1137361D01*
X1174851Y1143558D01*
X1160373Y1148080D01*
X1145438Y1150823D01*
X1130300Y1151737D01*
X1115161Y1150823D01*
X1100226Y1148080D01*
X1085748Y1143558D01*
X1071930Y1137361D01*
X1058926Y1129487D01*
X1046987Y1120140D01*
X1036269Y1109421D01*
X1026921Y1097483D01*
X1019048Y1084478D01*
X1012850Y1070660D01*
X1008329Y1056182D01*
X1005586Y1041247D01*
X1004671Y1026109D01*
X1005586Y1010970D01*
X1008329Y996035D01*
X1012850Y981557D01*
X1019048Y967740D01*
X1026921Y954735D01*
X1036269Y942797D01*
X1046987Y932078D01*
X1058926Y922731D01*
X1071930Y914857D01*
X1078636Y911809D01*
X1081836Y909624D01*
X1083919Y906373D01*
X1084630Y902563D01*
X1084681Y871931D01*
X1085900Y863244D01*
X1088593Y855268D01*
X1092657Y847902D01*
X1098346Y841095D01*
X1278128Y661314D01*
X1280464Y657707D01*
X1281074Y653491D01*
X1279906Y649376D01*
X1277162Y646074D01*
X1273302Y644245D01*
X1273302Y580898D01*
X1336598Y580898D01*
X1338478Y584758D01*
X1341729Y587552D01*
X1345844Y588721D01*
X1350111Y588060D01*
X1353667Y585724D01*
X1363218Y576224D01*
X1365199Y573379D01*
X1366113Y569976D01*
X1365859Y566470D01*
X1362151Y552450D01*
X1360322Y538073D01*
X1360322Y523544D01*
X1362151Y509168D01*
X1365808Y495147D01*
X1371295Y481736D01*
X1378407Y469087D01*
X1387043Y457454D01*
X1397152Y447040D01*
X1408480Y437997D01*
X1420876Y430530D01*
X1434134Y424637D01*
X1448003Y420522D01*
X1462328Y418185D01*
G37*
G36*
X4377131Y417728D02*
G01*
X4391558Y419150D01*
X4405680Y422351D01*
X4419295Y427380D01*
X4432147Y434085D01*
X4444034Y442366D01*
X4454753Y452120D01*
X4464151Y463143D01*
X4472076Y475284D01*
X4478375Y488340D01*
X4482947Y502107D01*
X4485690Y516331D01*
X4486656Y530809D01*
X4485690Y545287D01*
X4482947Y559511D01*
X4479696Y569214D01*
X4479188Y572922D01*
X4480052Y576529D01*
X4482185Y579628D01*
X4618177Y715721D01*
X4623460Y722680D01*
X4627219Y730250D01*
X4629556Y738327D01*
X4630369Y747166D01*
X4630318Y1281887D01*
X4629099Y1290574D01*
X4626406Y1298549D01*
X4622342Y1305864D01*
X4616653Y1312722D01*
X4501337Y1428038D01*
X4499254Y1431036D01*
X4498390Y1434592D01*
X4498797Y1438249D01*
X4503470Y1453235D01*
X4506214Y1468170D01*
X4507128Y1483309D01*
X4506214Y1498447D01*
X4503470Y1513382D01*
X4498949Y1527860D01*
X4492752Y1541678D01*
X4484878Y1554683D01*
X4475530Y1566621D01*
X4464812Y1577340D01*
X4452874Y1586687D01*
X4439869Y1594561D01*
X4426051Y1600758D01*
X4411573Y1605280D01*
X4396638Y1608023D01*
X4381500Y1608937D01*
X4366361Y1608023D01*
X4351426Y1605280D01*
X4336948Y1600758D01*
X4323130Y1594561D01*
X4310126Y1586687D01*
X4298188Y1577340D01*
X4287469Y1566621D01*
X4278122Y1554683D01*
X4270248Y1541678D01*
X4264050Y1527860D01*
X4259529Y1513382D01*
X4256786Y1498447D01*
X4255871Y1483309D01*
X4256786Y1468170D01*
X4259529Y1453235D01*
X4264050Y1438757D01*
X4270248Y1424940D01*
X4278122Y1411935D01*
X4287469Y1399997D01*
X4298188Y1389278D01*
X4310126Y1379931D01*
X4323130Y1372057D01*
X4336948Y1365859D01*
X4351426Y1361338D01*
X4366361Y1358595D01*
X4381500Y1357680D01*
X4396638Y1358595D01*
X4411573Y1361338D01*
X4426559Y1366012D01*
X4430217Y1366418D01*
X4433773Y1365554D01*
X4436770Y1363472D01*
X4536084Y1264158D01*
X4538268Y1260856D01*
X4539030Y1256995D01*
X4539030Y769823D01*
X4538268Y765962D01*
X4536084Y762660D01*
X4415383Y641959D01*
X4412589Y639978D01*
X4409338Y639013D01*
X4405934Y639216D01*
X4391558Y642467D01*
X4377131Y643890D01*
X4362653Y643432D01*
X4348327Y641096D01*
X4334408Y636981D01*
X4321149Y631088D01*
X4308754Y623620D01*
X4297426Y614578D01*
X4287367Y604164D01*
X4278680Y592531D01*
X4271568Y579882D01*
X4266133Y566470D01*
X4262475Y552450D01*
X4260596Y538073D01*
X4260596Y523544D01*
X4262475Y509168D01*
X4266133Y495147D01*
X4271568Y481736D01*
X4278680Y469087D01*
X4287367Y457454D01*
X4297426Y447040D01*
X4308754Y437997D01*
X4321149Y430530D01*
X4334408Y424637D01*
X4348327Y420522D01*
X4362653Y418185D01*
G37*
G36*
X1110030Y580898D02*
G01*
X1173073Y580898D01*
X1173073Y643940D01*
X1136243Y643940D01*
X1129995Y643280D01*
X1124610Y641350D01*
X1119733Y638302D01*
X1115669Y634238D01*
X1112621Y629412D01*
X1110742Y624027D01*
X1110030Y617728D01*
G37*
G36*
X736600Y646480D02*
G01*
X751738Y647395D01*
X766673Y650138D01*
X781151Y654659D01*
X794969Y660857D01*
X807974Y668731D01*
X819912Y678078D01*
X830630Y688797D01*
X839978Y700735D01*
X847852Y713740D01*
X854049Y727557D01*
X858570Y742035D01*
X861314Y756970D01*
X862228Y772109D01*
X861314Y787247D01*
X858570Y802182D01*
X854049Y816660D01*
X847852Y830478D01*
X839978Y843483D01*
X830630Y855421D01*
X819912Y866140D01*
X807974Y875487D01*
X802182Y879043D01*
X799541Y881278D01*
X797864Y884326D01*
X797255Y887730D01*
X797255Y895197D01*
X798017Y899058D01*
X800252Y902360D01*
X1127048Y1229156D01*
X1130350Y1231392D01*
X1134211Y1232154D01*
X1948891Y1232154D01*
X1956917Y1232662D01*
X1966722Y1234744D01*
X1968703Y1235354D01*
X1976018Y1238402D01*
X1977898Y1239367D01*
X1986280Y1244803D01*
X1992325Y1250137D01*
X2236368Y1494180D01*
X2239619Y1496364D01*
X2243531Y1497177D01*
X2314346Y1497177D01*
X2318258Y1496364D01*
X2321560Y1494180D01*
X2323744Y1490878D01*
X2324506Y1487017D01*
X2323744Y1483106D01*
X2321560Y1479804D01*
X1916480Y1074724D01*
X1913178Y1072540D01*
X1909267Y1071778D01*
X1824888Y1071778D01*
X1821027Y1072540D01*
X1817725Y1074724D01*
X1815541Y1078026D01*
X1814779Y1081938D01*
X1814779Y1125524D01*
X1814068Y1131824D01*
X1812137Y1137208D01*
X1809089Y1142085D01*
X1805076Y1146098D01*
X1800199Y1149146D01*
X1794814Y1151077D01*
X1788515Y1151737D01*
X1589684Y1151737D01*
X1583385Y1151077D01*
X1578000Y1149146D01*
X1573123Y1146098D01*
X1569110Y1142085D01*
X1566062Y1137208D01*
X1564132Y1131824D01*
X1563471Y1125524D01*
X1563471Y926693D01*
X1564132Y920394D01*
X1566062Y915009D01*
X1569110Y910132D01*
X1573123Y906119D01*
X1578000Y903071D01*
X1583385Y901141D01*
X1589684Y900430D01*
X1788515Y900430D01*
X1794814Y901141D01*
X1800199Y903071D01*
X1805076Y906119D01*
X1809089Y910132D01*
X1812137Y915009D01*
X1814068Y920394D01*
X1814779Y926693D01*
X1814779Y970280D01*
X1815541Y974191D01*
X1817725Y977493D01*
X1821027Y979678D01*
X1824888Y980440D01*
X1934159Y980490D01*
X1942846Y981710D01*
X1950821Y984402D01*
X1958187Y988466D01*
X1965045Y994156D01*
X2471267Y1500428D01*
X2474264Y1502460D01*
X2477770Y1503375D01*
X2481376Y1502968D01*
X2491333Y1500022D01*
X2505659Y1497685D01*
X2520137Y1497228D01*
X2534564Y1498650D01*
X2548737Y1501851D01*
X2562301Y1506880D01*
X2575153Y1513586D01*
X2587091Y1521866D01*
X2597810Y1531620D01*
X2607208Y1542643D01*
X2615082Y1554784D01*
X2621381Y1567840D01*
X2625953Y1581607D01*
X2628747Y1595831D01*
X2629662Y1610309D01*
X2628747Y1624787D01*
X2625953Y1639011D01*
X2621381Y1652778D01*
X2615082Y1665833D01*
X2607208Y1677974D01*
X2597810Y1688998D01*
X2587091Y1698752D01*
X2575153Y1707032D01*
X2562301Y1713738D01*
X2548737Y1718767D01*
X2534564Y1721967D01*
X2520137Y1723389D01*
X2505659Y1722932D01*
X2491333Y1720596D01*
X2477465Y1716481D01*
X2464206Y1710588D01*
X2451811Y1703120D01*
X2440482Y1694078D01*
X2430373Y1683664D01*
X2421737Y1672031D01*
X2414625Y1659382D01*
X2409139Y1645970D01*
X2405481Y1631950D01*
X2403652Y1617573D01*
X2403652Y1603044D01*
X2405481Y1588668D01*
X2409190Y1574546D01*
X2409494Y1571091D01*
X2408580Y1567688D01*
X2406548Y1564792D01*
X2397099Y1555343D01*
X2393797Y1553159D01*
X2389886Y1552397D01*
X2386025Y1553159D01*
X2382723Y1555343D01*
X2380538Y1558645D01*
X2379726Y1562557D01*
X2379726Y1697228D01*
X2379065Y1703527D01*
X2377135Y1708912D01*
X2374087Y1713738D01*
X2370074Y1717802D01*
X2365197Y1720850D01*
X2359812Y1722780D01*
X2353513Y1723440D01*
X2337409Y1723440D01*
X2333498Y1724253D01*
X2330196Y1726438D01*
X2328011Y1729739D01*
X2327249Y1733600D01*
X2327249Y1891792D01*
X2328011Y1895652D01*
X2330196Y1898954D01*
X2595372Y2164080D01*
X2600706Y2170125D01*
X2606090Y2178456D01*
X2607411Y2181148D01*
X2609697Y2184146D01*
X2612898Y2186076D01*
X2616606Y2186736D01*
X2620314Y2186025D01*
X2623515Y2183993D01*
X2635250Y2175459D01*
X2647950Y2168448D01*
X2661462Y2163114D01*
X2675534Y2159508D01*
X2689961Y2157679D01*
X2704490Y2157679D01*
X2718866Y2159508D01*
X2732938Y2163114D01*
X2746451Y2168448D01*
X2759151Y2175459D01*
X2770936Y2183993D01*
X2781503Y2193950D01*
X2790748Y2205126D01*
X2798521Y2217369D01*
X2804718Y2230526D01*
X2809189Y2244344D01*
X2811932Y2258618D01*
X2812846Y2273096D01*
X2811932Y2287574D01*
X2809189Y2301849D01*
X2804718Y2315667D01*
X2798521Y2328773D01*
X2790748Y2341067D01*
X2781503Y2352243D01*
X2770936Y2362200D01*
X2759151Y2370734D01*
X2746451Y2377694D01*
X2732938Y2383078D01*
X2718866Y2386685D01*
X2704490Y2388514D01*
X2689961Y2388514D01*
X2675534Y2386685D01*
X2661462Y2383078D01*
X2647950Y2377694D01*
X2635250Y2370734D01*
X2629509Y2366518D01*
X2625394Y2364790D01*
X2620975Y2364892D01*
X2617012Y2366924D01*
X2614320Y2370429D01*
X2613355Y2374747D01*
X2613355Y2471420D01*
X2614320Y2475738D01*
X2617012Y2479243D01*
X2620975Y2481275D01*
X2625394Y2481376D01*
X2629509Y2479649D01*
X2635250Y2475433D01*
X2647950Y2468473D01*
X2661462Y2463088D01*
X2675534Y2459482D01*
X2689961Y2457704D01*
X2704490Y2457704D01*
X2718866Y2459482D01*
X2732938Y2463088D01*
X2746451Y2468473D01*
X2759151Y2475433D01*
X2770936Y2483967D01*
X2781503Y2493924D01*
X2790748Y2505100D01*
X2798521Y2517394D01*
X2804718Y2530500D01*
X2809189Y2544318D01*
X2811932Y2558592D01*
X2812846Y2573070D01*
X2811932Y2587599D01*
X2809189Y2601823D01*
X2804718Y2615641D01*
X2798521Y2628798D01*
X2790748Y2641041D01*
X2781503Y2652268D01*
X2770936Y2662174D01*
X2759151Y2670708D01*
X2746451Y2677718D01*
X2732938Y2683052D01*
X2718866Y2686659D01*
X2704490Y2688488D01*
X2689961Y2688488D01*
X2675534Y2686659D01*
X2661462Y2683052D01*
X2647950Y2677718D01*
X2635250Y2670708D01*
X2629509Y2666542D01*
X2625394Y2664764D01*
X2620975Y2664917D01*
X2617012Y2666949D01*
X2614320Y2670403D01*
X2613355Y2674772D01*
X2613355Y2727604D01*
X2612847Y2735630D01*
X2610764Y2745435D01*
X2610154Y2747416D01*
X2607106Y2754731D01*
X2606141Y2756611D01*
X2600706Y2764993D01*
X2595372Y2771038D01*
X2583129Y2783281D01*
X2577084Y2788615D01*
X2568702Y2794050D01*
X2566822Y2795016D01*
X2559507Y2798064D01*
X2549753Y2800451D01*
X2547721Y2800756D01*
X2539695Y2801264D01*
X2264968Y2801264D01*
X2256942Y2800756D01*
X2247188Y2798673D01*
X2245156Y2798064D01*
X2237841Y2795016D01*
X2229256Y2789834D01*
X2227580Y2788615D01*
X2221534Y2783281D01*
X2130044Y2691790D01*
X2126742Y2689555D01*
X2122881Y2688793D01*
X2007870Y2688793D01*
X2001570Y2688082D01*
X1996186Y2686202D01*
X1991309Y2683154D01*
X1987296Y2679090D01*
X1984248Y2674264D01*
X1982317Y2668828D01*
X1981606Y2662580D01*
X1981606Y2643936D01*
X1980844Y2640025D01*
X1978660Y2636774D01*
X1975357Y2634538D01*
X1971446Y2633776D01*
X536803Y2633776D01*
X533298Y2634386D01*
X530250Y2636215D01*
X524865Y2640787D01*
X512724Y2648661D01*
X499668Y2654960D01*
X485901Y2659532D01*
X471678Y2662326D01*
X457200Y2663240D01*
X442722Y2662326D01*
X428498Y2659532D01*
X414731Y2654960D01*
X401675Y2648661D01*
X389534Y2640787D01*
X378510Y2631389D01*
X368757Y2620670D01*
X360476Y2608732D01*
X353771Y2595880D01*
X348742Y2582316D01*
X345541Y2568143D01*
X344119Y2553716D01*
X344576Y2539238D01*
X346913Y2524912D01*
X351028Y2511044D01*
X356920Y2497785D01*
X364388Y2485390D01*
X373430Y2474061D01*
X383844Y2463952D01*
X395478Y2455316D01*
X408127Y2448204D01*
X421538Y2442718D01*
X435559Y2439060D01*
X449935Y2437231D01*
X464464Y2437231D01*
X478840Y2439060D01*
X492861Y2442718D01*
X506272Y2448204D01*
X518922Y2455316D01*
X530555Y2463952D01*
X540969Y2474061D01*
X550011Y2485390D01*
X557479Y2497785D01*
X561340Y2506421D01*
X563524Y2509621D01*
X566826Y2511704D01*
X570636Y2512466D01*
X1236522Y2512466D01*
X1240790Y2511552D01*
X1244244Y2508910D01*
X1246276Y2505100D01*
X1246581Y2500782D01*
X1245006Y2496718D01*
X1241907Y2493670D01*
X1237640Y2492197D01*
X1219504Y2487930D01*
X1201928Y2481834D01*
X1185113Y2473960D01*
X1169162Y2464358D01*
X1154277Y2453182D01*
X1140663Y2440584D01*
X1128369Y2426614D01*
X1117600Y2411425D01*
X1108405Y2395270D01*
X1100988Y2378202D01*
X1095349Y2360523D01*
X1091539Y2342286D01*
X1089609Y2323795D01*
X1089609Y2305202D01*
X1091539Y2286711D01*
X1095349Y2268474D01*
X1100988Y2250795D01*
X1108405Y2233726D01*
X1117600Y2217572D01*
X1128369Y2202383D01*
X1140663Y2188413D01*
X1154277Y2175814D01*
X1169162Y2164638D01*
X1181150Y2157425D01*
X1184351Y2154428D01*
X1185926Y2150364D01*
X1185722Y2145995D01*
X1183690Y2142134D01*
X1180185Y2139492D01*
X1175918Y2138578D01*
X768248Y2138527D01*
X759561Y2137308D01*
X751586Y2134616D01*
X744220Y2130552D01*
X737362Y2124862D01*
X467207Y1854707D01*
X464566Y1852777D01*
X461416Y1851812D01*
X458114Y1851914D01*
X446278Y1854200D01*
X431800Y1855165D01*
X417322Y1854200D01*
X403098Y1851456D01*
X389331Y1846884D01*
X376275Y1840585D01*
X364134Y1832660D01*
X353110Y1823262D01*
X343357Y1812543D01*
X335076Y1800656D01*
X328371Y1787804D01*
X323342Y1774189D01*
X320141Y1760067D01*
X318719Y1745640D01*
X319176Y1731162D01*
X321513Y1716836D01*
X325628Y1702917D01*
X331520Y1689658D01*
X338988Y1677263D01*
X348030Y1665935D01*
X358444Y1655876D01*
X370078Y1647189D01*
X382727Y1640078D01*
X396138Y1634642D01*
X410159Y1630984D01*
X424535Y1629105D01*
X439064Y1629105D01*
X453440Y1630984D01*
X467461Y1634642D01*
X480872Y1640078D01*
X493522Y1647189D01*
X505155Y1655876D01*
X515569Y1665935D01*
X524611Y1677263D01*
X532079Y1689658D01*
X537972Y1702917D01*
X542086Y1716836D01*
X544423Y1731162D01*
X544880Y1745640D01*
X543458Y1760067D01*
X540258Y1774189D01*
X535940Y1785924D01*
X535330Y1789734D01*
X536143Y1793443D01*
X538276Y1796643D01*
X785926Y2044293D01*
X789228Y2046478D01*
X793140Y2047239D01*
X1589278Y2047290D01*
X1597964Y2048510D01*
X1605940Y2051202D01*
X1613255Y2055266D01*
X1620113Y2060956D01*
X1946351Y2387193D01*
X1949653Y2389378D01*
X1953514Y2390140D01*
X2031034Y2390140D01*
X2035352Y2389174D01*
X2038857Y2386482D01*
X2040889Y2382520D01*
X2040991Y2378100D01*
X2039264Y2374036D01*
X2035251Y2370734D01*
X2023516Y2362200D01*
X2012899Y2352243D01*
X2003653Y2341067D01*
X1995881Y2328773D01*
X1989683Y2315667D01*
X1986737Y2306523D01*
X1985721Y2304338D01*
X1984248Y2302459D01*
X1659991Y1978202D01*
X1656689Y1976018D01*
X1652828Y1975256D01*
X1348384Y1975256D01*
X1345082Y1975815D01*
X1328369Y1985873D01*
X1314551Y1992071D01*
X1300073Y1996592D01*
X1285138Y1999335D01*
X1270000Y2000250D01*
X1254861Y1999335D01*
X1239926Y1996592D01*
X1225448Y1992071D01*
X1211630Y1985873D01*
X1198626Y1977999D01*
X1186688Y1968652D01*
X1175969Y1957933D01*
X1166622Y1945995D01*
X1158748Y1932990D01*
X1152550Y1919173D01*
X1148029Y1904695D01*
X1145286Y1889760D01*
X1144371Y1874621D01*
X1145286Y1859483D01*
X1148029Y1844548D01*
X1152550Y1830070D01*
X1158748Y1816201D01*
X1166622Y1803247D01*
X1175969Y1791309D01*
X1186688Y1780590D01*
X1198626Y1771192D01*
X1211630Y1763369D01*
X1225448Y1757121D01*
X1239926Y1752600D01*
X1254861Y1749907D01*
X1270000Y1748993D01*
X1285138Y1749907D01*
X1300073Y1752600D01*
X1314551Y1757121D01*
X1328369Y1763369D01*
X1345031Y1773377D01*
X1348333Y1773936D01*
X1698396Y1773936D01*
X1711858Y1774799D01*
X1724761Y1777390D01*
X1735582Y1781048D01*
X1740052Y1781556D01*
X1744319Y1780032D01*
X1747469Y1776831D01*
X1748942Y1772564D01*
X1748434Y1768093D01*
X1746046Y1764284D01*
X1659991Y1678228D01*
X1656689Y1676044D01*
X1652828Y1675231D01*
X1348384Y1675231D01*
X1345082Y1675790D01*
X1328369Y1685848D01*
X1314551Y1692097D01*
X1300073Y1696618D01*
X1285138Y1699310D01*
X1270000Y1700225D01*
X1254861Y1699310D01*
X1239926Y1696618D01*
X1225448Y1692097D01*
X1211630Y1685848D01*
X1198626Y1678025D01*
X1186688Y1668627D01*
X1175969Y1657908D01*
X1166622Y1645970D01*
X1158748Y1633016D01*
X1152550Y1619148D01*
X1148029Y1604670D01*
X1145286Y1589735D01*
X1144371Y1574596D01*
X1145286Y1559458D01*
X1148029Y1544523D01*
X1152550Y1530045D01*
X1158748Y1516227D01*
X1166622Y1503222D01*
X1175969Y1491284D01*
X1186688Y1480566D01*
X1198626Y1471218D01*
X1211630Y1463344D01*
X1225448Y1457147D01*
X1239926Y1452626D01*
X1254861Y1449882D01*
X1270000Y1448968D01*
X1285138Y1449882D01*
X1300073Y1452626D01*
X1314551Y1457147D01*
X1328369Y1463344D01*
X1345031Y1473403D01*
X1348333Y1473962D01*
X1698396Y1473962D01*
X1711858Y1474825D01*
X1724761Y1477416D01*
X1737258Y1481632D01*
X1749043Y1487424D01*
X1759966Y1494739D01*
X1770125Y1503680D01*
X2188616Y1922119D01*
X2191867Y1924304D01*
X2195779Y1925116D01*
X2199640Y1924304D01*
X2202942Y1922119D01*
X2205177Y1918817D01*
X2205939Y1914956D01*
X2205939Y1733600D01*
X2205177Y1729739D01*
X2202942Y1726438D01*
X2199640Y1724253D01*
X2195779Y1723440D01*
X2179675Y1723440D01*
X2173376Y1722780D01*
X2167991Y1720850D01*
X2163114Y1717802D01*
X2159101Y1713738D01*
X2156053Y1708912D01*
X2154123Y1703527D01*
X2153462Y1697228D01*
X2153462Y1587042D01*
X2152650Y1583131D01*
X2150465Y1579880D01*
X1927047Y1356461D01*
X1923745Y1354226D01*
X1919884Y1353464D01*
X1105204Y1353464D01*
X1097178Y1352956D01*
X1087374Y1350873D01*
X1085392Y1350264D01*
X1078077Y1347216D01*
X1076198Y1346250D01*
X1067816Y1340815D01*
X1061770Y1335481D01*
X693928Y967638D01*
X688594Y961593D01*
X683158Y953211D01*
X682193Y951331D01*
X679145Y944016D01*
X676757Y934262D01*
X676452Y932230D01*
X675944Y924204D01*
X675944Y887730D01*
X675335Y884326D01*
X673658Y881278D01*
X671017Y879043D01*
X665226Y875487D01*
X653288Y866140D01*
X642569Y855421D01*
X633222Y843483D01*
X625348Y830478D01*
X619150Y816660D01*
X614629Y802182D01*
X611886Y787247D01*
X610971Y772109D01*
X611886Y756970D01*
X614629Y742035D01*
X619150Y727557D01*
X625348Y713740D01*
X633222Y700735D01*
X642569Y688797D01*
X653288Y678078D01*
X665226Y668731D01*
X678230Y660857D01*
X692048Y654659D01*
X706526Y650138D01*
X721461Y647395D01*
G37*
G36*
X5263337Y2505252D02*
G01*
X5275478Y2506167D01*
X5287416Y2508758D01*
X5298897Y2513025D01*
X5309616Y2518867D01*
X5319369Y2526182D01*
X5328005Y2534818D01*
X5335371Y2544622D01*
X5341213Y2555341D01*
X5345480Y2566771D01*
X5348071Y2578709D01*
X5348935Y2590901D01*
X5348071Y2603093D01*
X5345480Y2615031D01*
X5341213Y2626461D01*
X5335371Y2637180D01*
X5328005Y2646984D01*
X5319369Y2655620D01*
X5309616Y2662936D01*
X5298897Y2668778D01*
X5287416Y2673045D01*
X5275478Y2675636D01*
X5263337Y2676550D01*
X5251145Y2675636D01*
X5239207Y2673045D01*
X5227726Y2668778D01*
X5217007Y2662936D01*
X5207254Y2655620D01*
X5198618Y2646984D01*
X5191252Y2637180D01*
X5185410Y2626461D01*
X5181142Y2615031D01*
X5178552Y2603093D01*
X5177688Y2590901D01*
X5178552Y2578709D01*
X5181142Y2566771D01*
X5185410Y2555341D01*
X5191252Y2544622D01*
X5198618Y2534818D01*
X5207254Y2526182D01*
X5217007Y2518867D01*
X5227726Y2513025D01*
X5239207Y2508758D01*
X5251145Y2506167D01*
G37*
G36*
X1409700Y900480D02*
G01*
X1424838Y901395D01*
X1439773Y904138D01*
X1454251Y908659D01*
X1468069Y914857D01*
X1481074Y922731D01*
X1493012Y932078D01*
X1503730Y942797D01*
X1513078Y954735D01*
X1520952Y967740D01*
X1527149Y981557D01*
X1531670Y996035D01*
X1534414Y1010970D01*
X1535328Y1026109D01*
X1534414Y1041247D01*
X1531670Y1056182D01*
X1527149Y1070660D01*
X1520952Y1084478D01*
X1513078Y1097483D01*
X1503730Y1109421D01*
X1493012Y1120140D01*
X1481074Y1129487D01*
X1468069Y1137361D01*
X1454251Y1143558D01*
X1439773Y1148080D01*
X1424838Y1150823D01*
X1409700Y1151737D01*
X1394561Y1150823D01*
X1379626Y1148080D01*
X1365148Y1143558D01*
X1351330Y1137361D01*
X1338326Y1129487D01*
X1326388Y1120140D01*
X1315669Y1109421D01*
X1306322Y1097483D01*
X1298448Y1084478D01*
X1292250Y1070660D01*
X1287729Y1056182D01*
X1284986Y1041247D01*
X1284071Y1026109D01*
X1284986Y1010970D01*
X1287729Y996035D01*
X1292250Y981557D01*
X1298448Y967740D01*
X1306322Y954735D01*
X1315669Y942797D01*
X1326388Y932078D01*
X1338326Y922731D01*
X1351330Y914857D01*
X1365148Y908659D01*
X1379626Y904138D01*
X1394561Y901395D01*
G37*
G36*
X5180380Y980541D02*
G01*
X5354218Y980541D01*
X5360466Y981252D01*
X5365902Y983132D01*
X5370728Y986180D01*
X5374792Y990244D01*
X5377840Y995070D01*
X5379720Y1000506D01*
X5380431Y1006754D01*
X5380431Y1180592D01*
X5379720Y1186891D01*
X5377840Y1192276D01*
X5374792Y1197152D01*
X5370728Y1201166D01*
X5365902Y1204214D01*
X5360466Y1206144D01*
X5354218Y1206855D01*
X5338114Y1206855D01*
X5334203Y1207617D01*
X5330952Y1209802D01*
X5328716Y1213104D01*
X5327954Y1217015D01*
X5327954Y1572971D01*
X5328716Y1576882D01*
X5330952Y1580184D01*
X5609793Y1859025D01*
X5613095Y1861210D01*
X5616956Y1862023D01*
X5620867Y1861210D01*
X5624169Y1859025D01*
X5626354Y1855724D01*
X5627116Y1851863D01*
X5627116Y1752142D01*
X5626354Y1748231D01*
X5624169Y1744929D01*
X5474665Y1595424D01*
X5469331Y1589430D01*
X5468061Y1587754D01*
X5463844Y1580997D01*
X5459882Y1571802D01*
X5459222Y1569821D01*
X5457444Y1562100D01*
X5457139Y1560017D01*
X5456631Y1551990D01*
X5456631Y1194663D01*
X5456224Y1191666D01*
X5454904Y1188923D01*
X5452821Y1186738D01*
X5441188Y1177442D01*
X5431078Y1167028D01*
X5422442Y1155395D01*
X5415280Y1142746D01*
X5409844Y1129334D01*
X5406186Y1115314D01*
X5404358Y1100937D01*
X5404358Y1086408D01*
X5406186Y1072032D01*
X5409844Y1058011D01*
X5415280Y1044600D01*
X5422442Y1031951D01*
X5431078Y1020368D01*
X5441188Y1009954D01*
X5452516Y1000912D01*
X5464911Y993394D01*
X5478170Y987501D01*
X5492038Y983386D01*
X5506364Y981049D01*
X5520842Y980592D01*
X5535269Y982014D01*
X5549442Y985215D01*
X5563006Y990244D01*
X5575858Y996950D01*
X5587746Y1005230D01*
X5598515Y1014984D01*
X5607913Y1026007D01*
X5615787Y1038148D01*
X5622086Y1051204D01*
X5626658Y1064971D01*
X5629452Y1079195D01*
X5630367Y1093673D01*
X5629452Y1108151D01*
X5626658Y1122375D01*
X5622086Y1136142D01*
X5615787Y1149197D01*
X5607913Y1161338D01*
X5598515Y1172362D01*
X5587746Y1182116D01*
X5582310Y1185926D01*
X5579973Y1188212D01*
X5578500Y1191056D01*
X5577941Y1194257D01*
X5577941Y1522984D01*
X5578754Y1526895D01*
X5580938Y1530197D01*
X5709920Y1659178D01*
X5713222Y1661363D01*
X5717133Y1662125D01*
X5783529Y1662125D01*
X5787440Y1661363D01*
X5790742Y1659178D01*
X5792927Y1655876D01*
X5793689Y1651965D01*
X5792927Y1648104D01*
X5790742Y1644802D01*
X5724652Y1578711D01*
X5718048Y1570990D01*
X5713882Y1564284D01*
X5712917Y1562404D01*
X5709208Y1553108D01*
X5707430Y1545386D01*
X5707126Y1543304D01*
X5706668Y1535277D01*
X5706668Y1194612D01*
X5706211Y1191615D01*
X5704890Y1188872D01*
X5702808Y1186688D01*
X5691225Y1177442D01*
X5681167Y1167028D01*
X5672480Y1155395D01*
X5665368Y1142746D01*
X5659932Y1129334D01*
X5656275Y1115314D01*
X5654395Y1100937D01*
X5654395Y1086408D01*
X5656275Y1072032D01*
X5659932Y1058011D01*
X5665368Y1044600D01*
X5672480Y1031951D01*
X5681167Y1020368D01*
X5691225Y1009954D01*
X5702554Y1000912D01*
X5714949Y993394D01*
X5728208Y987501D01*
X5742127Y983386D01*
X5756452Y981049D01*
X5770930Y980592D01*
X5785358Y982014D01*
X5799480Y985215D01*
X5813094Y990244D01*
X5825947Y996950D01*
X5837834Y1005230D01*
X5848553Y1014984D01*
X5857951Y1026007D01*
X5865876Y1038148D01*
X5872175Y1051204D01*
X5876747Y1064971D01*
X5879490Y1079195D01*
X5880404Y1093673D01*
X5879490Y1108151D01*
X5876747Y1122375D01*
X5872175Y1136142D01*
X5865876Y1149197D01*
X5857951Y1161338D01*
X5848553Y1172362D01*
X5837834Y1182116D01*
X5832297Y1185976D01*
X5829960Y1188262D01*
X5828487Y1191107D01*
X5827979Y1194308D01*
X5827979Y1506270D01*
X5828741Y1510131D01*
X5830925Y1513433D01*
X5935472Y1617980D01*
X5938875Y1621840D01*
X5942126Y1624330D01*
X5946089Y1625295D01*
X5950102Y1624634D01*
X5953506Y1622450D01*
X5955842Y1619097D01*
X5956655Y1615135D01*
X5956655Y1194562D01*
X5956198Y1191564D01*
X5954877Y1188821D01*
X5952845Y1186637D01*
X5941314Y1177442D01*
X5931204Y1167028D01*
X5922568Y1155395D01*
X5915406Y1142746D01*
X5909970Y1129334D01*
X5906312Y1115314D01*
X5904484Y1100937D01*
X5904484Y1086408D01*
X5906312Y1072032D01*
X5909970Y1058011D01*
X5915406Y1044600D01*
X5922568Y1031951D01*
X5931204Y1020368D01*
X5941314Y1009954D01*
X5952642Y1000912D01*
X5965037Y993394D01*
X5978296Y987501D01*
X5992164Y983386D01*
X6006490Y981049D01*
X6020968Y980592D01*
X6035395Y982014D01*
X6049568Y985215D01*
X6063132Y990244D01*
X6075984Y996950D01*
X6087872Y1005230D01*
X6098641Y1014984D01*
X6108039Y1026007D01*
X6115913Y1038148D01*
X6122212Y1051204D01*
X6126784Y1064971D01*
X6129578Y1079195D01*
X6130493Y1093673D01*
X6129578Y1108151D01*
X6126784Y1122375D01*
X6122212Y1136142D01*
X6115913Y1149197D01*
X6108039Y1161338D01*
X6098641Y1172362D01*
X6087872Y1182116D01*
X6082334Y1186027D01*
X6079998Y1188262D01*
X6078474Y1191158D01*
X6077966Y1194358D01*
X6077966Y1395476D01*
X6078829Y1399590D01*
X6081268Y1402994D01*
X6084824Y1405128D01*
X6088989Y1405636D01*
X6093002Y1404416D01*
X6101232Y1399895D01*
X6112662Y1395628D01*
X6124600Y1393037D01*
X6136792Y1392174D01*
X6148984Y1393037D01*
X6160922Y1395628D01*
X6172352Y1399895D01*
X6183071Y1405788D01*
X6192875Y1413103D01*
X6201511Y1421739D01*
X6208826Y1431493D01*
X6214668Y1442212D01*
X6218936Y1453692D01*
X6221526Y1465630D01*
X6222441Y1477822D01*
X6221526Y1490014D01*
X6218936Y1501952D01*
X6214668Y1513382D01*
X6208826Y1524101D01*
X6201511Y1533855D01*
X6192875Y1542542D01*
X6183071Y1549857D01*
X6172352Y1555699D01*
X6160922Y1559966D01*
X6148984Y1562557D01*
X6136792Y1563420D01*
X6124600Y1562557D01*
X6112662Y1559966D01*
X6101232Y1555699D01*
X6093002Y1551178D01*
X6088989Y1550009D01*
X6084824Y1550517D01*
X6081268Y1552651D01*
X6078829Y1556054D01*
X6077966Y1560118D01*
X6077966Y1660499D01*
X6078829Y1664614D01*
X6081318Y1668068D01*
X6085332Y1670304D01*
X6098489Y1676450D01*
X6110732Y1684223D01*
X6121958Y1693519D01*
X6131864Y1704086D01*
X6140399Y1715820D01*
X6147409Y1728571D01*
X6152743Y1742084D01*
X6156350Y1756105D01*
X6158179Y1770532D01*
X6158179Y1785061D01*
X6156350Y1799488D01*
X6152743Y1813509D01*
X6147409Y1827022D01*
X6140399Y1839772D01*
X6131864Y1851507D01*
X6121958Y1862074D01*
X6110732Y1871370D01*
X6098489Y1879142D01*
X6085332Y1885289D01*
X6071565Y1889810D01*
X6057290Y1892503D01*
X6042812Y1893417D01*
X6028283Y1892503D01*
X6014008Y1889810D01*
X6000242Y1885289D01*
X5987084Y1879142D01*
X5974842Y1871370D01*
X5970066Y1867458D01*
X5966764Y1865579D01*
X5962954Y1865122D01*
X5959297Y1866087D01*
X5956198Y1868322D01*
X5954166Y1871522D01*
X5953455Y1875282D01*
X5953455Y1898497D01*
X5954217Y1902358D01*
X5956452Y1905660D01*
X6012332Y1961591D01*
X6015024Y1963521D01*
X6018174Y1964486D01*
X6021425Y1964385D01*
X6028283Y1963064D01*
X6042812Y1962150D01*
X6057290Y1963064D01*
X6071565Y1965807D01*
X6085332Y1970278D01*
X6098489Y1976475D01*
X6110732Y1984248D01*
X6121958Y1993493D01*
X6131864Y2004110D01*
X6140399Y2015845D01*
X6147409Y2028545D01*
X6152743Y2042058D01*
X6156350Y2056130D01*
X6158179Y2070557D01*
X6158179Y2085035D01*
X6156350Y2099462D01*
X6152743Y2113534D01*
X6147409Y2127046D01*
X6140399Y2139746D01*
X6131864Y2151481D01*
X6121958Y2162098D01*
X6110732Y2171344D01*
X6098489Y2179116D01*
X6085332Y2185314D01*
X6071565Y2189784D01*
X6057290Y2192528D01*
X6042812Y2193442D01*
X6028283Y2192528D01*
X6014008Y2189784D01*
X6000242Y2185314D01*
X5987084Y2179116D01*
X5974842Y2171344D01*
X5963615Y2162098D01*
X5953709Y2151481D01*
X5945174Y2139746D01*
X5938164Y2127046D01*
X5932830Y2113534D01*
X5929223Y2099462D01*
X5927394Y2085035D01*
X5927394Y2070557D01*
X5929274Y2055622D01*
X5929172Y2052574D01*
X5928207Y2049627D01*
X5926378Y2047189D01*
X5850128Y1970938D01*
X5844794Y1964893D01*
X5839358Y1956511D01*
X5838393Y1954631D01*
X5834735Y1945335D01*
X5832652Y1935530D01*
X5832144Y1927504D01*
X5832144Y1903628D01*
X5831382Y1899716D01*
X5829147Y1896414D01*
X5825896Y1894230D01*
X5821984Y1893468D01*
X5668721Y1893468D01*
X5664860Y1894230D01*
X5661558Y1896414D01*
X5659374Y1899716D01*
X5658561Y1903628D01*
X5659374Y1907489D01*
X5661558Y1910791D01*
X5712358Y1961591D01*
X5715000Y1963521D01*
X5718149Y1964486D01*
X5721451Y1964385D01*
X5728309Y1963064D01*
X5742787Y1962150D01*
X5757265Y1963064D01*
X5771540Y1965807D01*
X5785358Y1970278D01*
X5798515Y1976475D01*
X5810758Y1984248D01*
X5821934Y1993493D01*
X5831890Y2004110D01*
X5840425Y2015845D01*
X5847435Y2028545D01*
X5852769Y2042058D01*
X5856376Y2056130D01*
X5858205Y2070557D01*
X5858205Y2085035D01*
X5856376Y2099462D01*
X5852769Y2113534D01*
X5847435Y2127046D01*
X5840425Y2139746D01*
X5831890Y2151481D01*
X5821934Y2162098D01*
X5810758Y2171344D01*
X5798515Y2179116D01*
X5785358Y2185314D01*
X5771540Y2189784D01*
X5757265Y2192528D01*
X5742787Y2193442D01*
X5728309Y2192528D01*
X5714034Y2189784D01*
X5700217Y2185314D01*
X5687060Y2179116D01*
X5674817Y2171344D01*
X5663641Y2162098D01*
X5653684Y2151481D01*
X5645150Y2139746D01*
X5638139Y2127046D01*
X5632805Y2113534D01*
X5629198Y2099462D01*
X5627370Y2085035D01*
X5627370Y2070557D01*
X5629249Y2055622D01*
X5629198Y2052574D01*
X5628182Y2049627D01*
X5626354Y2047189D01*
X5224627Y1645412D01*
X5219293Y1639417D01*
X5213858Y1630984D01*
X5212892Y1629156D01*
X5209844Y1621790D01*
X5207457Y1612087D01*
X5207152Y1610004D01*
X5206644Y1601978D01*
X5206644Y1217015D01*
X5205882Y1213104D01*
X5203647Y1209802D01*
X5200396Y1207617D01*
X5196484Y1206855D01*
X5180380Y1206855D01*
X5174081Y1206144D01*
X5168696Y1204214D01*
X5163820Y1201166D01*
X5159806Y1197152D01*
X5156758Y1192276D01*
X5154828Y1186891D01*
X5154168Y1180592D01*
X5154168Y1006754D01*
X5154828Y1000506D01*
X5156758Y995070D01*
X5159806Y990244D01*
X5163820Y986180D01*
X5168696Y983132D01*
X5174081Y981252D01*
G37*
G36*
X344881Y1128877D02*
G01*
X381711Y1128877D01*
X381711Y1191920D01*
X318668Y1191920D01*
X318668Y1155090D01*
X319328Y1148842D01*
X321259Y1143406D01*
X324307Y1138580D01*
X328320Y1134516D01*
X333197Y1131468D01*
X338582Y1129538D01*
G37*
G36*
X481888Y1128877D02*
G01*
X518718Y1128877D01*
X525018Y1129538D01*
X530402Y1131468D01*
X535279Y1134516D01*
X539292Y1138580D01*
X542340Y1143406D01*
X544271Y1148842D01*
X544931Y1155090D01*
X544931Y1191920D01*
X481888Y1191920D01*
G37*
G36*
X481888Y1292098D02*
G01*
X544931Y1292098D01*
X544931Y1328928D01*
X544271Y1335227D01*
X542340Y1340612D01*
X539292Y1345488D01*
X535279Y1349502D01*
X530402Y1352550D01*
X525018Y1354480D01*
X518718Y1355140D01*
X481888Y1355140D01*
G37*
G36*
X3723284Y1357630D02*
G01*
X3922115Y1357630D01*
X3928414Y1358341D01*
X3933799Y1360271D01*
X3938676Y1363319D01*
X3942689Y1367332D01*
X3945737Y1372209D01*
X3947668Y1377594D01*
X3948379Y1383893D01*
X3948379Y1582724D01*
X3947668Y1589024D01*
X3945737Y1594408D01*
X3942689Y1599285D01*
X3938676Y1603298D01*
X3933799Y1606346D01*
X3928414Y1608277D01*
X3922115Y1608937D01*
X3723284Y1608937D01*
X3716985Y1608277D01*
X3711600Y1606346D01*
X3706723Y1603298D01*
X3702710Y1599285D01*
X3699662Y1594408D01*
X3697732Y1589024D01*
X3697071Y1582724D01*
X3697071Y1539138D01*
X3696258Y1535226D01*
X3694074Y1531924D01*
X3690772Y1529740D01*
X3686911Y1528978D01*
X3117138Y1528978D01*
X3112922Y1529892D01*
X3109468Y1532483D01*
X3107385Y1536293D01*
X3107080Y1540611D01*
X3108655Y1544675D01*
X3115208Y1554784D01*
X3117850Y1560220D01*
X3066745Y1560220D01*
X3066745Y1539138D01*
X3065983Y1535226D01*
X3063798Y1531924D01*
X3060496Y1529740D01*
X3056585Y1528978D01*
X2976727Y1528978D01*
X2972816Y1529740D01*
X2969514Y1531924D01*
X2967329Y1535226D01*
X2966567Y1539138D01*
X2966567Y1560220D01*
X2915310Y1560220D01*
X2921863Y1548587D01*
X2922981Y1547114D01*
X2924759Y1543151D01*
X2924759Y1538833D01*
X2922930Y1534922D01*
X2919679Y1532077D01*
X2915564Y1530858D01*
X2911246Y1531518D01*
X2907639Y1533804D01*
X2876448Y1565046D01*
X2874314Y1568094D01*
X2873451Y1571752D01*
X2873959Y1575409D01*
X2876042Y1581607D01*
X2878785Y1595831D01*
X2879750Y1610309D01*
X2878785Y1624787D01*
X2876042Y1639011D01*
X2871470Y1652778D01*
X2865170Y1665833D01*
X2857246Y1677974D01*
X2847848Y1688998D01*
X2837129Y1698752D01*
X2825242Y1707032D01*
X2812389Y1713738D01*
X2798775Y1718767D01*
X2784652Y1721967D01*
X2770225Y1723389D01*
X2755747Y1722932D01*
X2741422Y1720596D01*
X2727502Y1716481D01*
X2714244Y1710588D01*
X2701848Y1703120D01*
X2690520Y1694078D01*
X2680462Y1683664D01*
X2671775Y1672031D01*
X2664663Y1659382D01*
X2659227Y1645970D01*
X2655570Y1631950D01*
X2653690Y1617573D01*
X2653690Y1603044D01*
X2655570Y1588668D01*
X2659227Y1574647D01*
X2664663Y1561236D01*
X2671775Y1548587D01*
X2680462Y1536954D01*
X2690520Y1526540D01*
X2701848Y1517497D01*
X2714244Y1510030D01*
X2727502Y1504137D01*
X2741422Y1500022D01*
X2755747Y1497685D01*
X2770225Y1497228D01*
X2784652Y1498650D01*
X2798775Y1501851D01*
X2801213Y1502765D01*
X2805023Y1503375D01*
X2808782Y1502562D01*
X2811932Y1500428D01*
X2862580Y1449832D01*
X2869590Y1444548D01*
X2877108Y1440789D01*
X2885186Y1438452D01*
X2894076Y1437640D01*
X3686911Y1437640D01*
X3690772Y1436878D01*
X3694074Y1434693D01*
X3696258Y1431391D01*
X3697071Y1427480D01*
X3697071Y1383893D01*
X3697732Y1377594D01*
X3699662Y1372209D01*
X3702710Y1367332D01*
X3706723Y1363319D01*
X3711600Y1360271D01*
X3716985Y1358341D01*
G37*
G36*
X4102100Y1357680D02*
G01*
X4117238Y1358595D01*
X4132173Y1361338D01*
X4146651Y1365859D01*
X4160469Y1372057D01*
X4173474Y1379931D01*
X4185412Y1389278D01*
X4196130Y1399997D01*
X4205478Y1411935D01*
X4213352Y1424940D01*
X4219549Y1438757D01*
X4224070Y1453235D01*
X4226814Y1468170D01*
X4227728Y1483309D01*
X4226814Y1498447D01*
X4224070Y1513382D01*
X4219549Y1527860D01*
X4213352Y1541678D01*
X4205478Y1554683D01*
X4196130Y1566621D01*
X4185412Y1577340D01*
X4173474Y1586687D01*
X4160469Y1594561D01*
X4153763Y1597609D01*
X4150563Y1599793D01*
X4148480Y1603044D01*
X4147769Y1606854D01*
X4147718Y2069947D01*
X4146499Y2078634D01*
X4143806Y2086610D01*
X4139742Y2093925D01*
X4134053Y2100783D01*
X4009034Y2225802D01*
X4006900Y2228850D01*
X4006037Y2232456D01*
X4006545Y2236114D01*
X4009186Y2244344D01*
X4011929Y2258618D01*
X4012844Y2273096D01*
X4011929Y2287574D01*
X4009186Y2301849D01*
X4004716Y2315667D01*
X3998518Y2328773D01*
X3990746Y2341067D01*
X3981500Y2352243D01*
X3978656Y2354884D01*
X3976370Y2358186D01*
X3975455Y2362098D01*
X3976166Y2366010D01*
X3978351Y2369413D01*
X3981704Y2371648D01*
X3985615Y2372461D01*
X4013403Y2372461D01*
X4017314Y2371699D01*
X4020616Y2369464D01*
X4228846Y2161235D01*
X4232249Y2158085D01*
X4235754Y2155393D01*
X4239463Y2153056D01*
X4243425Y2150973D01*
X4247489Y2149297D01*
X4251706Y2147976D01*
X4256024Y2147011D01*
X4260392Y2146452D01*
X4265015Y2146249D01*
X4553204Y2146249D01*
X4556556Y2145690D01*
X4559503Y2144064D01*
X4561789Y2141524D01*
X4569764Y2128926D01*
X4579010Y2117750D01*
X4589627Y2107793D01*
X4601362Y2099259D01*
X4614062Y2092248D01*
X4627575Y2086914D01*
X4641646Y2083307D01*
X4656074Y2081479D01*
X4670552Y2081479D01*
X4684979Y2083307D01*
X4699050Y2086914D01*
X4712563Y2092248D01*
X4725263Y2099259D01*
X4736998Y2107793D01*
X4747615Y2117750D01*
X4756861Y2128926D01*
X4764633Y2141169D01*
X4770831Y2154326D01*
X4775301Y2168144D01*
X4778044Y2182418D01*
X4778959Y2196896D01*
X4778044Y2211374D01*
X4775301Y2225649D01*
X4770831Y2239467D01*
X4764633Y2252624D01*
X4756861Y2264867D01*
X4747615Y2276043D01*
X4744821Y2278684D01*
X4742484Y2281986D01*
X4741621Y2285898D01*
X4742332Y2289810D01*
X4744516Y2293213D01*
X4747818Y2295448D01*
X4751730Y2296261D01*
X4788103Y2296261D01*
X4792014Y2295499D01*
X4795316Y2293264D01*
X4844694Y2243886D01*
X4846878Y2240584D01*
X4847640Y2236724D01*
X4847640Y2107488D01*
X4848352Y2101189D01*
X4850282Y2095804D01*
X4853330Y2090928D01*
X4857343Y2086914D01*
X4862220Y2083816D01*
X4867605Y2081936D01*
X4873904Y2081225D01*
X5052720Y2081225D01*
X5059019Y2081936D01*
X5064404Y2083816D01*
X5069281Y2086914D01*
X5073294Y2090928D01*
X5076393Y2095804D01*
X5078272Y2101189D01*
X5078984Y2107488D01*
X5078984Y2286304D01*
X5078272Y2292604D01*
X5076393Y2297988D01*
X5073294Y2302865D01*
X5069281Y2306878D01*
X5064404Y2309926D01*
X5059019Y2311857D01*
X5052720Y2312568D01*
X4923485Y2312568D01*
X4919624Y2313330D01*
X4916322Y2315514D01*
X4849266Y2382570D01*
X4845862Y2385720D01*
X4842357Y2388412D01*
X4838598Y2390749D01*
X4834686Y2392832D01*
X4830622Y2394508D01*
X4826406Y2395829D01*
X4822088Y2396794D01*
X4817719Y2397353D01*
X4813096Y2397556D01*
X4751781Y2397556D01*
X4747869Y2398369D01*
X4744516Y2400604D01*
X4742332Y2403957D01*
X4741621Y2407920D01*
X4742484Y2411831D01*
X4744821Y2415133D01*
X4747615Y2417724D01*
X4756861Y2428951D01*
X4764633Y2441194D01*
X4770831Y2454351D01*
X4775301Y2468118D01*
X4778044Y2482392D01*
X4778959Y2496870D01*
X4778044Y2511399D01*
X4775301Y2525674D01*
X4770831Y2539441D01*
X4764633Y2552598D01*
X4756861Y2564841D01*
X4747615Y2576068D01*
X4736998Y2585974D01*
X4725263Y2594508D01*
X4712563Y2601518D01*
X4699050Y2606852D01*
X4684979Y2610459D01*
X4670552Y2612288D01*
X4656074Y2612288D01*
X4641646Y2610459D01*
X4631131Y2607767D01*
X4627626Y2607513D01*
X4624273Y2608427D01*
X4621428Y2610459D01*
X4508449Y2723388D01*
X4506214Y2726690D01*
X4505452Y2730601D01*
X4506214Y2734462D01*
X4508449Y2737764D01*
X4511751Y2739999D01*
X4515612Y2740761D01*
X4643628Y2740761D01*
X4647488Y2739999D01*
X4650790Y2737764D01*
X4849774Y2538831D01*
X4851857Y2535783D01*
X4852720Y2532176D01*
X4852212Y2528468D01*
X4851298Y2525674D01*
X4848606Y2511399D01*
X4847691Y2496870D01*
X4848606Y2482392D01*
X4851298Y2468118D01*
X4855819Y2454351D01*
X4861966Y2441194D01*
X4869738Y2428951D01*
X4879035Y2417724D01*
X4889601Y2407818D01*
X4901336Y2399284D01*
X4914087Y2392273D01*
X4927600Y2386939D01*
X4941620Y2383332D01*
X4956048Y2381504D01*
X4970576Y2381504D01*
X4985004Y2383332D01*
X4999024Y2386939D01*
X5012537Y2392273D01*
X5025288Y2399284D01*
X5037023Y2407818D01*
X5047589Y2417724D01*
X5056886Y2428951D01*
X5064658Y2441194D01*
X5070805Y2454351D01*
X5075326Y2468118D01*
X5078018Y2482392D01*
X5078933Y2496870D01*
X5078018Y2511399D01*
X5075326Y2525674D01*
X5070805Y2539441D01*
X5064658Y2552598D01*
X5056886Y2564841D01*
X5047589Y2576068D01*
X5037023Y2585974D01*
X5025288Y2594508D01*
X5012537Y2601518D01*
X4999024Y2606852D01*
X4985004Y2610459D01*
X4970576Y2612288D01*
X4956048Y2612288D01*
X4941620Y2610459D01*
X4931105Y2607767D01*
X4927650Y2607513D01*
X4924247Y2608427D01*
X4921402Y2610459D01*
X4704791Y2827070D01*
X4701336Y2830220D01*
X4697831Y2832912D01*
X4694123Y2835249D01*
X4690211Y2837332D01*
X4686096Y2839008D01*
X4681931Y2840329D01*
X4677613Y2841294D01*
X4673193Y2841853D01*
X4668570Y2842056D01*
X3215741Y2842056D01*
X3211118Y2841853D01*
X3206750Y2841294D01*
X3202432Y2840329D01*
X3198215Y2839008D01*
X3194151Y2837332D01*
X3190240Y2835249D01*
X3186480Y2832912D01*
X3182975Y2830220D01*
X3179572Y2827070D01*
X3039110Y2686608D01*
X3036265Y2684627D01*
X3032912Y2683713D01*
X3029407Y2683967D01*
X3018891Y2686659D01*
X3004464Y2688488D01*
X2989935Y2688488D01*
X2975559Y2686659D01*
X2961487Y2683052D01*
X2947974Y2677718D01*
X2935224Y2670708D01*
X2923489Y2662174D01*
X2912922Y2652268D01*
X2903677Y2641041D01*
X2895854Y2628798D01*
X2889707Y2615641D01*
X2885186Y2601823D01*
X2882493Y2587599D01*
X2881579Y2573070D01*
X2882493Y2558592D01*
X2885186Y2544318D01*
X2889707Y2530500D01*
X2895854Y2517394D01*
X2903677Y2505100D01*
X2912922Y2493924D01*
X2923489Y2483967D01*
X2935224Y2475433D01*
X2947974Y2468473D01*
X2961487Y2463088D01*
X2975559Y2459482D01*
X2989935Y2457704D01*
X3004464Y2457704D01*
X3018891Y2459482D01*
X3032963Y2463088D01*
X3046425Y2468473D01*
X3059176Y2475433D01*
X3070910Y2483967D01*
X3081477Y2493924D01*
X3090773Y2505100D01*
X3098546Y2517394D01*
X3104743Y2530500D01*
X3109214Y2544318D01*
X3111906Y2558592D01*
X3112820Y2573070D01*
X3111906Y2587599D01*
X3109214Y2601823D01*
X3108299Y2604668D01*
X3107791Y2608326D01*
X3108655Y2611932D01*
X3110788Y2614980D01*
X3233572Y2737764D01*
X3236823Y2739999D01*
X3240735Y2740761D01*
X3368700Y2740761D01*
X3372612Y2739999D01*
X3375914Y2737764D01*
X3378098Y2734462D01*
X3378860Y2730601D01*
X3378098Y2726690D01*
X3375914Y2723388D01*
X3339134Y2686608D01*
X3336239Y2684627D01*
X3332886Y2683713D01*
X3329432Y2683967D01*
X3318865Y2686659D01*
X3304489Y2688488D01*
X3289960Y2688488D01*
X3275533Y2686659D01*
X3261461Y2683052D01*
X3247948Y2677718D01*
X3235248Y2670708D01*
X3223514Y2662174D01*
X3212896Y2652268D01*
X3203651Y2641041D01*
X3195878Y2628798D01*
X3189681Y2615641D01*
X3185210Y2601823D01*
X3182467Y2587599D01*
X3181553Y2573070D01*
X3182467Y2558592D01*
X3185210Y2544318D01*
X3189681Y2530500D01*
X3195878Y2517394D01*
X3203651Y2505100D01*
X3212896Y2493924D01*
X3223514Y2483967D01*
X3235248Y2475433D01*
X3247948Y2468473D01*
X3261461Y2463088D01*
X3275533Y2459482D01*
X3289960Y2457704D01*
X3304489Y2457704D01*
X3318865Y2459482D01*
X3332937Y2463088D01*
X3346450Y2468473D01*
X3359150Y2475433D01*
X3370935Y2483967D01*
X3381501Y2493924D01*
X3390747Y2505100D01*
X3398520Y2517394D01*
X3404717Y2530500D01*
X3409187Y2544318D01*
X3411931Y2558592D01*
X3412845Y2573070D01*
X3411931Y2587599D01*
X3409187Y2601823D01*
X3408273Y2604668D01*
X3407816Y2608326D01*
X3408679Y2611932D01*
X3410762Y2614980D01*
X3457346Y2661564D01*
X3460648Y2663799D01*
X3464509Y2664561D01*
X3501491Y2664561D01*
X3505250Y2663850D01*
X3508451Y2661818D01*
X3510686Y2658719D01*
X3511651Y2655011D01*
X3511143Y2651252D01*
X3509314Y2647899D01*
X3503676Y2641041D01*
X3495852Y2628798D01*
X3489706Y2615641D01*
X3485184Y2601823D01*
X3482492Y2587599D01*
X3481578Y2573070D01*
X3482492Y2558592D01*
X3485184Y2544318D01*
X3489706Y2530500D01*
X3495852Y2517394D01*
X3503676Y2505100D01*
X3512921Y2493924D01*
X3523487Y2483967D01*
X3535222Y2475433D01*
X3547973Y2468473D01*
X3561486Y2463088D01*
X3575558Y2459482D01*
X3589934Y2457704D01*
X3604463Y2457704D01*
X3618890Y2459482D01*
X3632962Y2463088D01*
X3646424Y2468473D01*
X3659174Y2475433D01*
X3670909Y2483967D01*
X3681476Y2493924D01*
X3685336Y2498547D01*
X3688587Y2501138D01*
X3692651Y2502204D01*
X3696817Y2501544D01*
X3700322Y2499258D01*
X3812133Y2387447D01*
X3815537Y2384298D01*
X3819042Y2381605D01*
X3823106Y2379065D01*
X3825951Y2376322D01*
X3827526Y2372766D01*
X3827678Y2368804D01*
X3826256Y2365146D01*
X3823512Y2362200D01*
X3812895Y2352243D01*
X3803650Y2341067D01*
X3795877Y2328773D01*
X3789679Y2315667D01*
X3785209Y2301849D01*
X3782466Y2287574D01*
X3781551Y2273096D01*
X3782466Y2258618D01*
X3785209Y2244344D01*
X3789679Y2230526D01*
X3795877Y2217369D01*
X3803650Y2205126D01*
X3812895Y2193950D01*
X3823512Y2183993D01*
X3835247Y2175459D01*
X3847947Y2168448D01*
X3861460Y2163114D01*
X3875532Y2159508D01*
X3889959Y2157679D01*
X3904487Y2157679D01*
X3918864Y2159508D01*
X3937508Y2164130D01*
X3941318Y2163318D01*
X3944569Y2161133D01*
X4053484Y2052218D01*
X4055668Y2048916D01*
X4056430Y2045055D01*
X4056430Y1606854D01*
X4055719Y1603044D01*
X4053636Y1599793D01*
X4050436Y1597609D01*
X4043730Y1594561D01*
X4030726Y1586687D01*
X4018787Y1577340D01*
X4008069Y1566621D01*
X3998722Y1554683D01*
X3990848Y1541678D01*
X3984650Y1527860D01*
X3980129Y1513382D01*
X3977386Y1498447D01*
X3976471Y1483309D01*
X3977386Y1468170D01*
X3980129Y1453235D01*
X3984650Y1438757D01*
X3990848Y1424940D01*
X3998722Y1411935D01*
X4008069Y1399997D01*
X4018787Y1389278D01*
X4030726Y1379931D01*
X4043730Y1372057D01*
X4057548Y1365859D01*
X4072026Y1361338D01*
X4086961Y1358595D01*
G37*
G36*
X2302764Y264668D02*
G01*
X2491841Y264718D01*
X2500680Y265531D01*
X2503068Y265938D01*
X2511704Y268071D01*
X2513990Y268833D01*
X2522169Y272237D01*
X2524404Y273354D01*
X2531973Y277926D01*
X2540812Y284988D01*
X2708046Y452170D01*
X2711348Y454406D01*
X2715260Y455168D01*
X2877870Y455168D01*
X2881782Y454406D01*
X2885033Y452170D01*
X2887268Y448868D01*
X2888742Y437591D01*
X2890621Y432206D01*
X2893669Y427329D01*
X2897733Y423316D01*
X2902610Y420268D01*
X2907995Y418338D01*
X2914243Y417677D01*
X3088132Y417677D01*
X3094380Y418338D01*
X3099765Y420268D01*
X3104642Y423316D01*
X3108706Y427329D01*
X3111754Y432206D01*
X3113633Y437591D01*
X3114344Y443890D01*
X3114344Y557377D01*
X3115106Y561238D01*
X3117342Y564540D01*
X3120593Y566724D01*
X3124504Y567537D01*
X3128365Y566724D01*
X3131667Y564540D01*
X3137052Y559206D01*
X3138881Y556717D01*
X3139846Y553770D01*
X3139948Y550722D01*
X3138322Y538073D01*
X3138322Y523544D01*
X3140151Y509168D01*
X3143808Y495147D01*
X3149295Y481736D01*
X3156407Y469087D01*
X3165043Y457454D01*
X3175152Y447040D01*
X3186480Y437997D01*
X3198876Y430530D01*
X3212134Y424637D01*
X3226003Y420522D01*
X3240328Y418185D01*
X3254806Y417728D01*
X3269234Y419150D01*
X3283407Y422351D01*
X3296970Y427380D01*
X3309823Y434085D01*
X3321761Y442366D01*
X3332479Y452120D01*
X3341878Y463143D01*
X3349751Y475284D01*
X3356051Y488340D01*
X3360623Y502107D01*
X3363417Y516331D01*
X3364331Y530809D01*
X3363417Y545287D01*
X3360623Y559511D01*
X3356051Y573278D01*
X3349751Y586333D01*
X3341878Y598474D01*
X3332479Y609498D01*
X3321761Y619252D01*
X3309823Y627532D01*
X3296970Y634238D01*
X3283407Y639267D01*
X3269234Y642467D01*
X3254806Y643890D01*
X3240328Y643432D01*
X3231743Y642010D01*
X3228543Y642010D01*
X3225495Y642975D01*
X3222904Y644855D01*
X3027629Y840181D01*
X3021584Y845515D01*
X3013202Y850950D01*
X3011322Y851916D01*
X3004007Y854964D01*
X2994253Y857351D01*
X2992221Y857656D01*
X2984195Y858164D01*
X2950311Y858164D01*
X2946450Y858926D01*
X2943148Y861161D01*
X2895752Y908507D01*
X2893568Y911809D01*
X2892806Y915669D01*
X2893568Y919581D01*
X2895752Y922883D01*
X2899054Y925068D01*
X2902966Y925830D01*
X3045815Y925830D01*
X3052114Y926541D01*
X3057499Y928471D01*
X3062376Y931519D01*
X3066389Y935532D01*
X3069437Y940409D01*
X3071368Y945794D01*
X3072079Y952093D01*
X3072079Y993190D01*
X3072841Y997102D01*
X3075025Y1000353D01*
X3078327Y1002588D01*
X3082239Y1003350D01*
X3404870Y1003350D01*
X3408730Y1002588D01*
X3412032Y1000353D01*
X3612184Y800252D01*
X3619550Y794715D01*
X3627526Y790752D01*
X3636060Y788314D01*
X3645357Y787450D01*
X3837279Y787501D01*
X3846423Y788771D01*
X3854856Y791616D01*
X3862578Y795934D01*
X3869791Y801878D01*
X3997756Y929894D01*
X4003294Y937260D01*
X4007256Y945235D01*
X4008069Y948080D01*
X4009898Y951585D01*
X4012895Y954176D01*
X4016654Y955395D01*
X4020565Y955090D01*
X4024122Y953312D01*
X4030726Y948131D01*
X4043730Y940257D01*
X4056887Y934364D01*
X4060037Y932129D01*
X4062120Y928878D01*
X4062831Y925068D01*
X4062831Y631748D01*
X4062425Y628751D01*
X4061104Y626008D01*
X4059021Y623773D01*
X4047439Y614578D01*
X4037380Y604164D01*
X4028694Y592531D01*
X4021582Y579882D01*
X4016146Y566470D01*
X4012488Y552450D01*
X4010609Y538073D01*
X4010609Y523544D01*
X4012488Y509168D01*
X4016146Y495147D01*
X4021582Y481736D01*
X4028694Y469087D01*
X4037380Y457454D01*
X4047439Y447040D01*
X4058767Y437997D01*
X4071162Y430530D01*
X4084421Y424637D01*
X4098340Y420522D01*
X4112666Y418185D01*
X4127144Y417728D01*
X4141571Y419150D01*
X4155694Y422351D01*
X4169308Y427380D01*
X4182160Y434085D01*
X4194048Y442366D01*
X4204766Y452120D01*
X4214164Y463143D01*
X4222089Y475284D01*
X4228388Y488340D01*
X4232960Y502107D01*
X4235704Y516331D01*
X4236669Y530809D01*
X4235704Y545287D01*
X4232960Y559511D01*
X4228388Y573278D01*
X4222089Y586333D01*
X4214164Y598474D01*
X4204766Y609498D01*
X4194048Y619252D01*
X4188510Y623112D01*
X4186174Y625398D01*
X4184700Y628243D01*
X4184142Y631444D01*
X4184142Y951992D01*
X4184954Y955903D01*
X4187139Y959205D01*
X4196130Y968197D01*
X4205478Y980135D01*
X4213352Y993140D01*
X4219549Y1006957D01*
X4224070Y1021435D01*
X4226814Y1036370D01*
X4227728Y1051509D01*
X4226814Y1066647D01*
X4224070Y1081582D01*
X4219549Y1096060D01*
X4213352Y1109878D01*
X4205478Y1122883D01*
X4196130Y1134821D01*
X4185412Y1145540D01*
X4179366Y1150315D01*
X4176674Y1153464D01*
X4175506Y1157478D01*
X4176014Y1161592D01*
X4178147Y1165199D01*
X4181551Y1167587D01*
X4185615Y1168450D01*
X4192270Y1168450D01*
X4196130Y1167688D01*
X4199432Y1165453D01*
X4252874Y1112062D01*
X4255058Y1108760D01*
X4255871Y1104849D01*
X4255871Y952093D01*
X4256532Y945794D01*
X4258462Y940409D01*
X4261510Y935532D01*
X4265523Y931519D01*
X4270400Y928471D01*
X4275785Y926541D01*
X4282084Y925830D01*
X4480915Y925830D01*
X4487214Y926541D01*
X4492599Y928471D01*
X4497476Y931519D01*
X4501489Y935532D01*
X4504537Y940409D01*
X4506468Y945794D01*
X4507179Y952093D01*
X4507179Y1150924D01*
X4506468Y1157224D01*
X4504537Y1162608D01*
X4501489Y1167485D01*
X4497476Y1171498D01*
X4492599Y1174546D01*
X4487214Y1176477D01*
X4480915Y1177137D01*
X4328160Y1177137D01*
X4324248Y1177950D01*
X4320946Y1180134D01*
X4249115Y1251966D01*
X4241749Y1257503D01*
X4233773Y1261465D01*
X4225239Y1263904D01*
X4215942Y1264767D01*
X4036720Y1264716D01*
X4027576Y1263446D01*
X4019143Y1260602D01*
X4011422Y1256284D01*
X4004208Y1250340D01*
X3927043Y1173124D01*
X3921506Y1165758D01*
X3917543Y1157782D01*
X3916730Y1154938D01*
X3914901Y1151432D01*
X3911904Y1148842D01*
X3908145Y1147622D01*
X3904234Y1147927D01*
X3900678Y1149705D01*
X3894074Y1154887D01*
X3881069Y1162761D01*
X3867251Y1168958D01*
X3852773Y1173480D01*
X3837838Y1176223D01*
X3822700Y1177137D01*
X3807561Y1176223D01*
X3792677Y1173480D01*
X3789426Y1173429D01*
X3786327Y1174394D01*
X3783685Y1176324D01*
X3662629Y1297381D01*
X3656584Y1302715D01*
X3648201Y1308150D01*
X3646322Y1309116D01*
X3639007Y1312164D01*
X3629253Y1314551D01*
X3627221Y1314856D01*
X3619195Y1315364D01*
X2591104Y1315364D01*
X2583078Y1314856D01*
X2573274Y1312773D01*
X2571292Y1312164D01*
X2563977Y1309116D01*
X2562098Y1308150D01*
X2553716Y1302715D01*
X2547670Y1297381D01*
X2426614Y1176324D01*
X2423972Y1174394D01*
X2420874Y1173429D01*
X2417622Y1173480D01*
X2402738Y1176223D01*
X2387600Y1177137D01*
X2372461Y1176223D01*
X2357526Y1173480D01*
X2343048Y1168958D01*
X2329230Y1162761D01*
X2316226Y1154887D01*
X2304288Y1145540D01*
X2293569Y1134821D01*
X2284222Y1122883D01*
X2276348Y1109878D01*
X2270150Y1096060D01*
X2265629Y1081582D01*
X2262886Y1066647D01*
X2261971Y1051509D01*
X2262886Y1036370D01*
X2265629Y1021435D01*
X2270150Y1006957D01*
X2276348Y993140D01*
X2284222Y980135D01*
X2293569Y968197D01*
X2304288Y957478D01*
X2316226Y948131D01*
X2329230Y940257D01*
X2343048Y934059D01*
X2357526Y929538D01*
X2372461Y926795D01*
X2387600Y925880D01*
X2402738Y926795D01*
X2417673Y929538D01*
X2432151Y934059D01*
X2439060Y937158D01*
X2442972Y938021D01*
X2446934Y937361D01*
X2450287Y935177D01*
X2452573Y931875D01*
X2453386Y927963D01*
X2452624Y924052D01*
X2450388Y920699D01*
X2319528Y789787D01*
X2314194Y783793D01*
X2308758Y775360D01*
X2307793Y773531D01*
X2304745Y766165D01*
X2302357Y756462D01*
X2302052Y754430D01*
X2301544Y746404D01*
X2301544Y631748D01*
X2301087Y628751D01*
X2299766Y626008D01*
X2297684Y623773D01*
X2286152Y614578D01*
X2276043Y604164D01*
X2267407Y592531D01*
X2260295Y579882D01*
X2254808Y566470D01*
X2251151Y552450D01*
X2249322Y538073D01*
X2249322Y525221D01*
X2248509Y521309D01*
X2246325Y518007D01*
X2243023Y515823D01*
X2239162Y515061D01*
X2235250Y515823D01*
X2231948Y518007D01*
X2228342Y521665D01*
X2226106Y524967D01*
X2225344Y528828D01*
X2225344Y617728D01*
X2224633Y624027D01*
X2222754Y629412D01*
X2219706Y634238D01*
X2215642Y638302D01*
X2210765Y641350D01*
X2205380Y643280D01*
X2199132Y643940D01*
X2025243Y643940D01*
X2018995Y643280D01*
X2013610Y641350D01*
X2008733Y638302D01*
X2004669Y634238D01*
X2001621Y629412D01*
X1999742Y624027D01*
X1999030Y617728D01*
X1999030Y443890D01*
X1999742Y437591D01*
X2001621Y432206D01*
X2004669Y427329D01*
X2008733Y423316D01*
X2013610Y420268D01*
X2018995Y418338D01*
X2025243Y417677D01*
X2114143Y417677D01*
X2118004Y416864D01*
X2121306Y414680D01*
X2251100Y284988D01*
X2257907Y279349D01*
X2259888Y277926D01*
X2267508Y273354D01*
X2269693Y272237D01*
X2277872Y268833D01*
X2280208Y268071D01*
X2288794Y265938D01*
X2291232Y265531D01*
X2300020Y264718D01*
G37*
G36*
X3066745Y1660398D02*
G01*
X3117850Y1660398D01*
X3115208Y1665833D01*
X3107334Y1677974D01*
X3097936Y1688998D01*
X3087217Y1698752D01*
X3075279Y1707032D01*
X3066745Y1711502D01*
G37*
G36*
X2915310Y1660398D02*
G01*
X2966567Y1660398D01*
X2966567Y1711604D01*
X2964332Y1710588D01*
X2951937Y1703120D01*
X2940608Y1694078D01*
X2930499Y1683664D01*
X2921863Y1672031D01*
G37*
G36*
X344068Y2350211D02*
G01*
X407111Y2350211D01*
X407111Y2413254D01*
X370281Y2413254D01*
X363982Y2412542D01*
X358597Y2410663D01*
X353720Y2407615D01*
X349707Y2403551D01*
X346659Y2398674D01*
X344728Y2393289D01*
X344068Y2387041D01*
G37*
G36*
X3589934Y2157679D02*
G01*
X3604463Y2157679D01*
X3618890Y2159508D01*
X3632962Y2163114D01*
X3646424Y2168448D01*
X3659174Y2175459D01*
X3670909Y2183993D01*
X3681476Y2193950D01*
X3690772Y2205126D01*
X3698544Y2217369D01*
X3704742Y2230526D01*
X3709212Y2244344D01*
X3711905Y2258618D01*
X3712819Y2273096D01*
X3711905Y2287574D01*
X3709212Y2301849D01*
X3704742Y2315667D01*
X3698544Y2328773D01*
X3690772Y2341067D01*
X3681476Y2352243D01*
X3670909Y2362200D01*
X3659174Y2370734D01*
X3646424Y2377694D01*
X3632962Y2383078D01*
X3618890Y2386685D01*
X3604463Y2388514D01*
X3589934Y2388514D01*
X3575558Y2386685D01*
X3561486Y2383078D01*
X3547973Y2377694D01*
X3535222Y2370734D01*
X3523487Y2362200D01*
X3512921Y2352243D01*
X3503676Y2341067D01*
X3495852Y2328773D01*
X3489706Y2315667D01*
X3485184Y2301849D01*
X3482492Y2287574D01*
X3481578Y2273096D01*
X3482492Y2258618D01*
X3485184Y2244344D01*
X3489706Y2230526D01*
X3495852Y2217369D01*
X3503676Y2205126D01*
X3512921Y2193950D01*
X3523487Y2183993D01*
X3535222Y2175459D01*
X3547973Y2168448D01*
X3561486Y2163114D01*
X3575558Y2159508D01*
G37*
G36*
X3289960Y2157679D02*
G01*
X3304489Y2157679D01*
X3318865Y2159508D01*
X3332937Y2163114D01*
X3346450Y2168448D01*
X3359150Y2175459D01*
X3370935Y2183993D01*
X3381501Y2193950D01*
X3390747Y2205126D01*
X3398520Y2217369D01*
X3404717Y2230526D01*
X3409187Y2244344D01*
X3411931Y2258618D01*
X3412845Y2273096D01*
X3411931Y2287574D01*
X3409187Y2301849D01*
X3404717Y2315667D01*
X3398520Y2328773D01*
X3390747Y2341067D01*
X3381501Y2352243D01*
X3370935Y2362200D01*
X3359150Y2370734D01*
X3346450Y2377694D01*
X3332937Y2383078D01*
X3318865Y2386685D01*
X3304489Y2388514D01*
X3289960Y2388514D01*
X3275533Y2386685D01*
X3261461Y2383078D01*
X3247948Y2377694D01*
X3235248Y2370734D01*
X3223514Y2362200D01*
X3212896Y2352243D01*
X3203651Y2341067D01*
X3195878Y2328773D01*
X3189681Y2315667D01*
X3185210Y2301849D01*
X3182467Y2287574D01*
X3181553Y2273096D01*
X3182467Y2258618D01*
X3185210Y2244344D01*
X3189681Y2230526D01*
X3195878Y2217369D01*
X3203651Y2205126D01*
X3212896Y2193950D01*
X3223514Y2183993D01*
X3235248Y2175459D01*
X3247948Y2168448D01*
X3261461Y2163114D01*
X3275533Y2159508D01*
G37*
G36*
X2945841Y2169617D02*
G01*
X2945841Y2221738D01*
X2893822Y2221738D01*
X2895854Y2217369D01*
X2903677Y2205126D01*
X2912922Y2193950D01*
X2923489Y2183993D01*
X2935224Y2175459D01*
G37*
G36*
X3048558Y2169617D02*
G01*
X3059176Y2175459D01*
X3070910Y2183993D01*
X3081477Y2193950D01*
X3090773Y2205126D01*
X3098546Y2217369D01*
X3100578Y2221738D01*
X3048558Y2221738D01*
G37*
G36*
X507288Y2186940D02*
G01*
X544118Y2186940D01*
X550418Y2187651D01*
X555802Y2189530D01*
X560679Y2192578D01*
X564692Y2196642D01*
X567740Y2201519D01*
X569671Y2206904D01*
X570331Y2213152D01*
X570331Y2249982D01*
X507288Y2249982D01*
G37*
G36*
X370281Y2186940D02*
G01*
X407111Y2186940D01*
X407111Y2249982D01*
X344068Y2249982D01*
X344068Y2213152D01*
X344728Y2206904D01*
X346659Y2201519D01*
X349707Y2196642D01*
X353720Y2192578D01*
X358597Y2189530D01*
X363982Y2187651D01*
G37*
G36*
X507288Y2350211D02*
G01*
X570331Y2350211D01*
X570331Y2387041D01*
X569671Y2393289D01*
X567740Y2398674D01*
X564692Y2403551D01*
X560679Y2407615D01*
X555802Y2410663D01*
X550418Y2412542D01*
X544118Y2413254D01*
X507288Y2413254D01*
G37*
G36*
X2893822Y2324455D02*
G01*
X2945841Y2324455D01*
X2945841Y2376576D01*
X2935224Y2370734D01*
X2923489Y2362200D01*
X2912922Y2352243D01*
X2903677Y2341067D01*
X2895854Y2328773D01*
G37*
G36*
X6136792Y2292197D02*
G01*
X6148984Y2293061D01*
X6160922Y2295652D01*
X6172352Y2299919D01*
X6183071Y2305761D01*
X6192875Y2313076D01*
X6201511Y2321712D01*
X6208826Y2331516D01*
X6214668Y2342235D01*
X6218936Y2353665D01*
X6221526Y2365603D01*
X6222441Y2377795D01*
X6221526Y2389987D01*
X6218936Y2401925D01*
X6214668Y2413355D01*
X6208826Y2424074D01*
X6201511Y2433878D01*
X6192875Y2442514D01*
X6183071Y2449830D01*
X6172352Y2455672D01*
X6160922Y2459939D01*
X6148984Y2462580D01*
X6136792Y2463444D01*
X6124600Y2462580D01*
X6112662Y2459939D01*
X6101232Y2455672D01*
X6090513Y2449830D01*
X6080709Y2442514D01*
X6072073Y2433878D01*
X6064758Y2424074D01*
X6058916Y2413355D01*
X6054648Y2401925D01*
X6052058Y2389987D01*
X6051143Y2377795D01*
X6052058Y2365603D01*
X6054648Y2353665D01*
X6058916Y2342235D01*
X6064758Y2331516D01*
X6072073Y2321712D01*
X6080709Y2313076D01*
X6090513Y2305761D01*
X6101232Y2299919D01*
X6112662Y2295652D01*
X6124600Y2293061D01*
G37*
G36*
X3048558Y2324455D02*
G01*
X3100578Y2324455D01*
X3098546Y2328773D01*
X3090773Y2341067D01*
X3081477Y2352243D01*
X3070910Y2362200D01*
X3059176Y2370734D01*
X3048558Y2376576D01*
G37*

%LPD*%
G36*
X4228896Y2511856D02*
G01*
X4224985Y2512618D01*
X4221683Y2514854D01*
X4127804Y2608732D01*
X4124401Y2611882D01*
X4120896Y2614574D01*
X4117187Y2616911D01*
X4113225Y2618994D01*
X4109161Y2620670D01*
X4104944Y2621991D01*
X4100626Y2622956D01*
X4096258Y2623515D01*
X4091635Y2623718D01*
X4007358Y2623718D01*
X4004005Y2624277D01*
X4001008Y2625902D01*
X3998772Y2628442D01*
X3990746Y2641041D01*
X3985056Y2647899D01*
X3983228Y2651252D01*
X3982770Y2655011D01*
X3983685Y2658719D01*
X3985971Y2661818D01*
X3989171Y2663850D01*
X3992879Y2664561D01*
X4291634Y2664561D01*
X4295546Y2663799D01*
X4298848Y2661564D01*
X4301032Y2658262D01*
X4301794Y2654401D01*
X4301032Y2650490D01*
X4291279Y2637180D01*
X4285437Y2626461D01*
X4281170Y2615031D01*
X4278579Y2603093D01*
X4277664Y2590901D01*
X4278579Y2578709D01*
X4281170Y2566771D01*
X4285437Y2555341D01*
X4291279Y2544622D01*
X4298594Y2534818D01*
X4304233Y2529230D01*
X4306417Y2525928D01*
X4307179Y2522016D01*
X4306417Y2518156D01*
X4304233Y2514854D01*
X4300931Y2512618D01*
X4297019Y2511856D01*
G37*

%LPD*%
G36*
X4571796Y2397556D02*
G01*
X4567885Y2398318D01*
X4564583Y2400554D01*
X4468266Y2496870D01*
X4464862Y2500020D01*
X4461357Y2502712D01*
X4457598Y2505049D01*
X4453686Y2507132D01*
X4449622Y2508808D01*
X4445406Y2510129D01*
X4441088Y2511094D01*
X4436770Y2511653D01*
X4429302Y2511856D01*
X4425492Y2512720D01*
X4422292Y2514955D01*
X4420158Y2518257D01*
X4419447Y2522118D01*
X4420209Y2525979D01*
X4422394Y2529230D01*
X4428032Y2534818D01*
X4435348Y2544622D01*
X4441190Y2555341D01*
X4445457Y2566771D01*
X4448048Y2578709D01*
X4448962Y2590901D01*
X4448048Y2603093D01*
X4444441Y2619908D01*
X4445304Y2623718D01*
X4447590Y2626918D01*
X4450892Y2629052D01*
X4454702Y2629763D01*
X4458563Y2628950D01*
X4461814Y2626766D01*
X4549749Y2538831D01*
X4551832Y2535783D01*
X4552696Y2532176D01*
X4552238Y2528519D01*
X4551324Y2525674D01*
X4548581Y2511399D01*
X4547666Y2496870D01*
X4548581Y2482392D01*
X4551324Y2468118D01*
X4555794Y2454351D01*
X4561992Y2441194D01*
X4569764Y2428951D01*
X4579010Y2417724D01*
X4581804Y2415133D01*
X4584141Y2411831D01*
X4585004Y2407920D01*
X4584293Y2403957D01*
X4582109Y2400604D01*
X4578756Y2398369D01*
X4574844Y2397556D01*
G37*

%LPD*%
G36*
X4290009Y2247544D02*
G01*
X4286097Y2248306D01*
X4282795Y2250541D01*
X4074566Y2458770D01*
X4071162Y2461920D01*
X4067657Y2464612D01*
X4063898Y2466949D01*
X4059986Y2469032D01*
X4055922Y2470708D01*
X4051706Y2472029D01*
X4047388Y2472994D01*
X4043019Y2473553D01*
X4038396Y2473756D01*
X3985666Y2473756D01*
X3981754Y2474569D01*
X3978401Y2476804D01*
X3976217Y2480157D01*
X3975506Y2484120D01*
X3976420Y2488031D01*
X3978706Y2491333D01*
X3981500Y2493924D01*
X3990746Y2505100D01*
X3998722Y2517698D01*
X4001008Y2520238D01*
X4003954Y2521864D01*
X4007307Y2522423D01*
X4066641Y2522423D01*
X4070553Y2521661D01*
X4073855Y2519426D01*
X4167733Y2425547D01*
X4171137Y2422398D01*
X4174642Y2419705D01*
X4178401Y2417368D01*
X4182313Y2415286D01*
X4186377Y2413609D01*
X4190593Y2412288D01*
X4194911Y2411323D01*
X4199280Y2410764D01*
X4203903Y2410561D01*
X4407103Y2410561D01*
X4411014Y2409799D01*
X4414316Y2407564D01*
X4510633Y2311247D01*
X4514037Y2308098D01*
X4517542Y2305405D01*
X4521301Y2303068D01*
X4525213Y2300986D01*
X4529277Y2299309D01*
X4533493Y2297988D01*
X4537811Y2297023D01*
X4542180Y2296464D01*
X4546803Y2296261D01*
X4574895Y2296261D01*
X4578807Y2295448D01*
X4582109Y2293213D01*
X4584293Y2289810D01*
X4585004Y2285898D01*
X4584141Y2281986D01*
X4581804Y2278684D01*
X4579010Y2276043D01*
X4569764Y2264867D01*
X4561789Y2252268D01*
X4559503Y2249728D01*
X4556556Y2248103D01*
X4553204Y2247544D01*
G37*

%LPD*%
G36*
X2220772Y2243836D02*
G01*
X2216658Y2245004D01*
X2213356Y2247747D01*
X2211527Y2251608D01*
X2211425Y2255875D01*
X2211933Y2258618D01*
X2212848Y2273096D01*
X2211933Y2287574D01*
X2209190Y2301849D01*
X2204720Y2315667D01*
X2198522Y2328773D01*
X2190750Y2341067D01*
X2181504Y2352243D01*
X2170938Y2362200D01*
X2159152Y2370734D01*
X2155139Y2374036D01*
X2153412Y2378100D01*
X2153564Y2382520D01*
X2155545Y2386482D01*
X2159050Y2389174D01*
X2163368Y2390140D01*
X2211578Y2390190D01*
X2220264Y2391410D01*
X2228240Y2394102D01*
X2235555Y2398166D01*
X2242413Y2403856D01*
X2316784Y2478278D01*
X2319731Y2480310D01*
X2323185Y2481173D01*
X2326741Y2480868D01*
X2329942Y2479294D01*
X2335225Y2475433D01*
X2347976Y2468473D01*
X2361488Y2463088D01*
X2375560Y2459482D01*
X2389936Y2457704D01*
X2404465Y2457704D01*
X2418892Y2459482D01*
X2432964Y2463088D01*
X2446426Y2468473D01*
X2459177Y2475433D01*
X2470912Y2483967D01*
X2474925Y2487777D01*
X2478227Y2489860D01*
X2482088Y2490520D01*
X2485898Y2489657D01*
X2489149Y2487472D01*
X2491282Y2484170D01*
X2492044Y2480360D01*
X2492044Y2365806D01*
X2491282Y2361996D01*
X2489149Y2358694D01*
X2485898Y2356510D01*
X2482088Y2355646D01*
X2478227Y2356358D01*
X2474925Y2358390D01*
X2470912Y2362200D01*
X2459177Y2370734D01*
X2446426Y2377694D01*
X2432964Y2383078D01*
X2418892Y2386685D01*
X2404465Y2388514D01*
X2389936Y2388514D01*
X2375560Y2386685D01*
X2361488Y2383078D01*
X2347976Y2377694D01*
X2335225Y2370734D01*
X2323490Y2362200D01*
X2312924Y2352243D01*
X2303678Y2341067D01*
X2295855Y2328773D01*
X2289708Y2315667D01*
X2286711Y2306523D01*
X2285695Y2304338D01*
X2284222Y2302459D01*
X2228596Y2246782D01*
X2224989Y2244496D01*
G37*

%LPD*%
G36*
X1364081Y2138578D02*
G01*
X1359763Y2139543D01*
X1356258Y2142286D01*
X1354226Y2146249D01*
X1354124Y2150719D01*
X1355953Y2154783D01*
X1359306Y2157679D01*
X1362964Y2159660D01*
X1378407Y2170023D01*
X1392682Y2181910D01*
X1405686Y2195271D01*
X1417218Y2209850D01*
X1427226Y2225548D01*
X1435506Y2242159D01*
X1442059Y2259584D01*
X1446834Y2277567D01*
X1449679Y2295906D01*
X1450644Y2314498D01*
X1449679Y2333091D01*
X1446834Y2351430D01*
X1442059Y2369413D01*
X1435506Y2386838D01*
X1427226Y2403449D01*
X1417218Y2419146D01*
X1405686Y2433726D01*
X1392682Y2447036D01*
X1378407Y2458974D01*
X1362964Y2469337D01*
X1346555Y2478074D01*
X1329334Y2485085D01*
X1311503Y2490317D01*
X1300429Y2492298D01*
X1296517Y2493924D01*
X1293571Y2497023D01*
X1292199Y2501087D01*
X1292555Y2505303D01*
X1294688Y2509062D01*
X1298092Y2511552D01*
X1302258Y2512466D01*
X1971446Y2512466D01*
X1975357Y2511704D01*
X1978660Y2509469D01*
X1980844Y2506218D01*
X1981606Y2502306D01*
X1981606Y2491638D01*
X1980844Y2487726D01*
X1978660Y2484424D01*
X1975357Y2482240D01*
X1971446Y2481478D01*
X1928622Y2481427D01*
X1919935Y2480208D01*
X1911959Y2477516D01*
X1904644Y2473452D01*
X1897786Y2467762D01*
X1571548Y2141524D01*
X1568246Y2139340D01*
X1564386Y2138578D01*
G37*

%LPD*%
G36*
X3669029Y883767D02*
G01*
X3665169Y884529D01*
X3661867Y886764D01*
X3461715Y1086866D01*
X3454349Y1092403D01*
X3446373Y1096365D01*
X3437839Y1098804D01*
X3428542Y1099667D01*
X3082239Y1099667D01*
X3078327Y1100429D01*
X3075025Y1102664D01*
X3072841Y1105916D01*
X3072079Y1109827D01*
X3072079Y1150924D01*
X3071368Y1157224D01*
X3069437Y1162608D01*
X3066389Y1167485D01*
X3062376Y1171498D01*
X3056280Y1175258D01*
X3053130Y1178255D01*
X3051556Y1182319D01*
X3051810Y1186637D01*
X3053892Y1190498D01*
X3057347Y1193139D01*
X3061614Y1194054D01*
X3590188Y1194054D01*
X3594049Y1193292D01*
X3597351Y1191056D01*
X3697884Y1090523D01*
X3699814Y1087882D01*
X3700779Y1084783D01*
X3700729Y1081532D01*
X3697986Y1066647D01*
X3697071Y1051509D01*
X3697986Y1036370D01*
X3700729Y1021435D01*
X3705250Y1006957D01*
X3711448Y993140D01*
X3719322Y980135D01*
X3728669Y968197D01*
X3739387Y957478D01*
X3751326Y948131D01*
X3764330Y940257D01*
X3778148Y934059D01*
X3792626Y929538D01*
X3807561Y926795D01*
X3822700Y925880D01*
X3833063Y926490D01*
X3837076Y925931D01*
X3840581Y923848D01*
X3842969Y920546D01*
X3843832Y916584D01*
X3843121Y912571D01*
X3840886Y909167D01*
X3818432Y886764D01*
X3815130Y884529D01*
X3811270Y883767D01*
G37*

%LPD*%
G36*
X2427224Y415950D02*
G01*
X2423058Y416864D01*
X2419604Y419354D01*
X2417521Y423062D01*
X2417114Y427329D01*
X2418486Y431342D01*
X2421432Y434441D01*
X2432761Y442366D01*
X2443480Y452120D01*
X2452878Y463143D01*
X2460752Y475284D01*
X2467051Y488340D01*
X2471623Y502107D01*
X2474417Y516331D01*
X2475331Y530809D01*
X2474417Y545287D01*
X2471623Y559511D01*
X2467051Y573278D01*
X2460752Y586333D01*
X2452878Y598474D01*
X2443480Y609498D01*
X2432761Y619252D01*
X2427173Y623112D01*
X2424836Y625398D01*
X2423363Y628243D01*
X2422855Y631444D01*
X2422855Y717346D01*
X2423617Y721258D01*
X2425801Y724560D01*
X2627985Y926693D01*
X2630627Y928624D01*
X2633726Y929589D01*
X2636977Y929538D01*
X2651861Y926795D01*
X2667000Y925880D01*
X2682138Y926795D01*
X2697022Y929538D01*
X2700274Y929589D01*
X2703372Y928624D01*
X2706014Y926693D01*
X2877870Y754837D01*
X2883916Y749503D01*
X2892298Y744067D01*
X2894177Y743102D01*
X2901492Y740054D01*
X2911246Y737666D01*
X2913278Y737362D01*
X2921304Y736854D01*
X2955188Y736854D01*
X2959049Y736092D01*
X2962351Y733856D01*
X3034944Y661314D01*
X3037128Y658012D01*
X3037890Y654100D01*
X3037128Y650240D01*
X3034944Y646938D01*
X3031642Y644753D01*
X3027730Y643940D01*
X2914243Y643940D01*
X2907995Y643280D01*
X2902610Y641350D01*
X2897733Y638302D01*
X2893669Y634238D01*
X2890621Y629412D01*
X2888742Y624027D01*
X2888030Y616610D01*
X2887268Y612749D01*
X2885033Y609447D01*
X2881782Y607212D01*
X2877870Y606450D01*
X2677058Y606399D01*
X2668219Y605586D01*
X2665831Y605180D01*
X2657195Y603046D01*
X2654909Y602284D01*
X2646730Y598881D01*
X2644495Y597763D01*
X2636926Y593191D01*
X2628087Y586130D01*
X2460853Y418947D01*
X2457551Y416712D01*
X2453640Y415950D01*
G37*

%LPD*%
D11*
X6042781Y2077798D02*
G01*
X5892800Y1927799D01*
X5892800Y1661099D01*
X5767301Y1535587D01*
X5767301Y1093673D01*
D12*
X406400Y1729298D02*
G01*
X770000Y2092899D01*
X1101305Y2092899D01*
X2397252Y2572959D02*
G01*
X2346959Y2572959D01*
X2209800Y2435799D01*
X1930400Y2435799D01*
X1587500Y2092899D01*
X1079500Y2092899D01*
D11*
X2266695Y1610299D02*
G01*
X1949195Y1292799D01*
X1104900Y1292799D01*
X1104900Y1292799D02*
G01*
X736600Y924499D01*
X736600Y772099D01*
D12*
X736600Y492699D02*
G01*
X241300Y987999D01*
X241300Y1330899D01*
X389707Y1479311D01*
X406400Y1479311D01*
X1689100Y1026099D02*
G01*
X1932409Y1026099D01*
X2516609Y1610299D01*
D13*
X4381500Y1051499D02*
G01*
X4216400Y1216599D01*
X4038600Y1216599D01*
X3962400Y1140399D01*
X3962400Y962599D01*
X3835400Y835599D01*
X3644900Y835599D01*
X3429000Y1051499D01*
X2946400Y1051499D01*
D12*
X3822700Y1483299D02*
G01*
X2893590Y1483299D01*
X2766590Y1610299D01*
D11*
X2097272Y2573210D02*
G01*
X2264669Y2740599D01*
X2540000Y2740599D01*
X2552700Y2727899D01*
X2552700Y2207199D01*
X2266589Y1921095D01*
X2266589Y1610299D01*
D14*
X2112180Y530799D02*
G01*
X2302680Y340299D01*
X2489200Y340299D01*
X2679700Y530799D01*
X3001180Y530799D01*
D11*
X5742792Y1777786D02*
G01*
X5517306Y1552310D01*
X5517306Y1093673D01*
X5742792Y2077798D02*
G01*
X5267299Y1602305D01*
X5267299Y1093673D01*
D15*
X1270000Y1874586D02*
G01*
X1698724Y1874586D01*
X2097199Y2273061D01*
X1270000Y1574586D02*
G01*
X1698724Y1574586D01*
X2397198Y2273061D01*
D12*
X1473187Y530799D02*
G01*
X1130300Y873686D01*
X1130300Y1026099D01*
D11*
X2667000Y1051499D02*
G01*
X2921000Y797499D01*
X2984500Y797499D01*
X3251187Y530811D01*
X2667000Y1051499D02*
G01*
X2362187Y746686D01*
X2362187Y530799D01*
X4123507Y530799D02*
G01*
X4123507Y1030086D01*
X4102100Y1051499D01*
D12*
X4373501Y530799D02*
G01*
X4373501Y535500D01*
X4584700Y746699D01*
X4584700Y1280099D01*
X4381500Y1483299D01*
D11*
X3822700Y1051499D02*
G01*
X3619500Y1254699D01*
X2590800Y1254699D01*
X2387600Y1051499D01*
D12*
X4102100Y1483299D02*
G01*
X4102100Y2068161D01*
X3897200Y2273061D01*
D11*
X457200Y2550086D02*
G01*
X480220Y2573111D01*
X2097272Y2573111D01*
D16*
X4963307Y2496886D02*
G01*
X4668799Y2791399D01*
X3215543Y2791399D01*
X2997200Y2573063D01*
X4663318Y2496886D02*
G01*
X4445000Y2715199D01*
X3568700Y2715199D01*
X3568700Y2715199D02*
G01*
X3439342Y2715199D01*
X3297199Y2573063D01*
X4963281Y2196912D02*
G01*
X4813300Y2346899D01*
X4546600Y2346899D01*
X4432300Y2461199D01*
X4203700Y2461199D01*
X4091843Y2573063D01*
X3897200Y2573063D01*
X4663318Y2196886D02*
G01*
X4264807Y2196886D01*
X4038600Y2423099D01*
X3848100Y2423099D01*
X3698143Y2573063D01*
X3597201Y2573063D01*
D11*
X6042781Y1777786D02*
G01*
X6017308Y1752312D01*
X6017308Y1093673D01*
D18*
G01*
X1270000Y1874586D03*
G01*
X1270000Y1574586D03*
D19*
G01*
X3897198Y2273061D03*
G01*
X3897198Y2573060D03*
G01*
X3597198Y2273061D03*
G01*
X3597198Y2573060D03*
G01*
X3297199Y2273061D03*
G01*
X3297199Y2573060D03*
G01*
X2997200Y2273061D03*
G01*
X2997200Y2573060D03*
G01*
X2697200Y2273061D03*
G01*
X2697200Y2573060D03*
G01*
X2397201Y2273061D03*
G01*
X2397201Y2573060D03*
G01*
X2097201Y2273061D03*
G36*
X2187318Y2483070D02*
G01*
X2007232Y2483070D01*
X2007232Y2663156D01*
X2187318Y2663156D01*
G37*
G36*
X3786002Y618296D02*
G01*
X3960997Y618296D01*
X3960997Y443301D01*
X3786002Y443301D01*
G37*
D22*
G01*
X4123512Y530799D03*
G01*
X4373499Y530799D03*
D21*
G01*
X431800Y1241999D03*
D22*
G01*
X431800Y1492011D03*
G01*
X431800Y1741998D03*
D23*
G01*
X3822700Y1483299D03*
D18*
G01*
X4102100Y1483299D03*
G01*
X4381500Y1483299D03*
D23*
G01*
X4381500Y1051499D03*
D18*
G01*
X4102100Y1051499D03*
G01*
X3822700Y1051499D03*
D23*
G01*
X1689100Y1026099D03*
D18*
G01*
X1409700Y1026099D03*
G01*
X1130300Y1026099D03*
D23*
G01*
X2946400Y1051499D03*
D18*
G01*
X2667000Y1051499D03*
G01*
X2387600Y1051499D03*
G36*
X1135689Y618296D02*
G01*
X1310685Y618296D01*
X1310685Y443301D01*
X1135689Y443301D01*
G37*
D22*
G01*
X1473200Y530799D03*
G36*
X2024689Y618296D02*
G01*
X2199685Y618296D01*
X2199685Y443301D01*
X2024689Y443301D01*
G37*
G01*
X2362200Y530799D03*
G36*
X2913689Y618296D02*
G01*
X3088685Y618296D01*
X3088685Y443301D01*
X2913689Y443301D01*
G37*
G01*
X3251200Y530799D03*
D21*
G01*
X457200Y2300086D03*
D22*
G01*
X457200Y2550099D03*
G36*
X4873299Y2286899D02*
G01*
X5053299Y2286899D01*
X5053299Y2106899D01*
X4873299Y2106899D01*
G37*
D19*
G01*
X4663313Y2196886D03*
G01*
X4963312Y2496886D03*
G01*
X4663313Y2496886D03*
D20*
G01*
X5742810Y1777794D03*
D19*
G01*
X5742785Y2077793D03*
G01*
X6042784Y1777794D03*
G01*
X6042784Y2077793D03*
G36*
X5179921Y1181046D02*
G01*
X5354673Y1181046D01*
X5354673Y1006294D01*
X5179921Y1006294D01*
G37*
D22*
G01*
X5517306Y1093678D03*
G01*
X5767293Y1093678D03*
G01*
X6017305Y1093678D03*
G36*
X2179218Y1697675D02*
G01*
X2353970Y1697675D01*
X2353970Y1522923D01*
X2179218Y1522923D01*
G37*
G01*
X2516606Y1610299D03*
G01*
X2766593Y1610299D03*
G01*
X3016605Y1610299D03*
D23*
G01*
X736600Y213299D03*
D18*
G01*
X736600Y492699D03*
G01*
X736600Y772099D03*
D17*
G01*
X482600Y1965899D03*
G01*
X1447800Y2016699D03*
G01*
X1117600Y1394399D03*
G01*
X2425700Y1724599D03*
G01*
X2768600Y1800799D03*
G01*
X3022600Y1775399D03*
G01*
X2692400Y2118299D03*
G01*
X3175000Y2118299D03*
G01*
X3873500Y1902399D03*
G01*
X5842000Y2232599D03*
G01*
X6121400Y1927799D03*
G01*
X5499100Y1648399D03*
G01*
X5080000Y2016699D03*
G01*
X4965700Y1305499D03*
G01*
X5664200Y1546799D03*
G01*
X5918200Y1508699D03*
G01*
X6146800Y899099D03*
G01*
X5905500Y2105599D03*
G01*
X5626100Y2232599D03*
G01*
X6159500Y1622999D03*
G01*
X6197600Y1153099D03*
G01*
X6235700Y848299D03*
G01*
X5130800Y835599D03*
G01*
X4584700Y619699D03*
G01*
X4445000Y340299D03*
G01*
X3746500Y391099D03*
G01*
X3289300Y365699D03*
G01*
X3149600Y924499D03*
G01*
X3441700Y746699D03*
G01*
X2679700Y1356299D03*
G01*
X3340100Y1661099D03*
G01*
X3771900Y2118299D03*
G01*
X2832100Y2435799D03*
G01*
X3492500Y2435799D03*
G01*
X3175000Y2423099D03*
G01*
X1689100Y2384999D03*
G01*
X889000Y2334199D03*
G01*
X1016000Y2435799D03*
G01*
X2311400Y2423099D03*
G01*
X863600Y657799D03*
G01*
X609600Y1508699D03*
G01*
X1409700Y352999D03*
G01*
X1130300Y352999D03*
G01*
X2070100Y289499D03*
G01*
X2044700Y733999D03*
G01*
X1955800Y1432499D03*
G01*
X1587500Y1419799D03*
G01*
X2667000Y721299D03*
G01*
X3721100Y911799D03*
G01*
X3784600Y1229299D03*
G01*
X4241800Y1394399D03*
G01*
X4394200Y2321499D03*
G01*
X4457700Y2054799D03*
G01*
X5156200Y2372299D03*
G01*
X3695700Y2397699D03*
G01*
X4216400Y2613599D03*
G01*
X4483100Y2537399D03*
G01*
X1016000Y1851599D03*
G01*
X1333500Y1394399D03*
G01*
X584200Y1153099D03*
G01*
X215900Y835599D03*
G01*
X368300Y2677099D03*
G01*
X342900Y2092899D03*
G01*
X317500Y1927799D03*
M02*
