M48
METRIC,LZ,0000.00
;FILE_FORMAT=4:2
;TYPE=PLATED
;Layer: Drill PTH
;EasyEDA v6.4.14, 2021-01-31T15:52:51+00:00
;53acab47483b404e891b66caa61737d9,c23c5ad5fcdd482d9714491510f6a4f3,10
;Gerber Generator version 0.2
;Holesize 1 = 0.305 mm
T01C0.305
;Holesize 2 = 0.800 mm
T02C0.800
;Holesize 3 = 0.901 mm
T03C0.901
;Holesize 4 = 1.000 mm
T04C1.000
;Holesize 5 = 1.200 mm
T05C1.200
;Holesize 6 = 1.301 mm
T06C1.301
%
G05
G90
T01
X000483Y001966
X001448Y002017
X001118Y001394
X002426Y001725
X002769Y001801
X003023Y001775
X002692Y002118
X003175Y002118
X003874Y001902
X005842Y002233
X006121Y001928
X005499Y001648
X005080Y002017
X004966Y001305
X005664Y001547
X005918Y001509
X006147Y000899
X005906Y002106
X005626Y002233
X006160Y001623
X006198Y001153
X006236Y000848
X005131Y000836
X004585Y000620
X004445Y000340
X003747Y000391
X003289Y000366
X003150Y000924
X003442Y000747
X002680Y001356
X003340Y001661
X003772Y002118
X002832Y002436
X003493Y002436
X003175Y002423
X001689Y002385
X000889Y002334
X001016Y002436
X002311Y002423
X000864Y000658
X000610Y001509
X001410Y000353
X001130Y000353
X002070Y000289
X002045Y000734
X001956Y001432
X001588Y001420
X002667Y000721
X003721Y000912
X003785Y001229
X004242Y001394
X004394Y002321
X004458Y002055
X005156Y002372
X003696Y002398
X004216Y002614
X004483Y002537
X001016Y001852
X001334Y001394
X000584Y001153
X000216Y000836
X000368Y002677
X000343Y002093
X000318Y001928
T02
X003823Y001483
X004102Y001483
X004382Y001483
X004382Y001051
X004102Y001051
X003823Y001051
X001689Y001026
X001410Y001026
X001130Y001026
X002946Y001051
X002667Y001051
X002388Y001051
X000737Y000213
X000737Y000493
X000737Y000772
T03
X003874Y000531G85X003874Y000531
X004124Y000531G85X004124Y000531
X004374Y000531G85X004373Y000531
X000432Y001242G85X000432Y001242
X000432Y001492G85X000432Y001492
X000432Y001742G85X000432Y001742
X005267Y001094G85X005268Y001094
X005517Y001094G85X005517Y001094
X005767Y001094G85X005767Y001094
X006017Y001094G85X006018Y001094
X002266Y001610G85X002267Y001610
X002516Y001610G85X002517Y001610
X002766Y001610G85X002767Y001610
X003016Y001610G85X003017Y001610
T04
X001223Y000531G85X001223Y000531
X001473Y000531G85X001473Y000531
X002112Y000531G85X002112Y000531
X002362Y000531G85X002362Y000531
X003001Y000531G85X003001Y000531
X003251Y000531G85X003251Y000531
X000457Y002300G85X000457Y002300
X000457Y002550G85X000457Y002550
T05
X003897Y002273
X003897Y002573
X003597Y002273
X003597Y002573
X003297Y002273
X003297Y002573
X002997Y002273
X002997Y002573
X002697Y002273
X002697Y002573
X002397Y002273
X002397Y002573
X002097Y002273
X002097Y002573
X004963Y002197
X004663Y002197
X004963Y002497
X004663Y002497
X005743Y001778
X005743Y002078
X006043Y001778
X006043Y002078
T06
X001270Y001875
X001270Y001575
M30
