G04 Layer: TopSolderMaskLayer*
G04 EasyEDA v6.4.14, 2021-01-31T15:52:51+00:00*
G04 53acab47483b404e891b66caa61737d9,c23c5ad5fcdd482d9714491510f6a4f3,10*
G04 Gerber Generator version 0.2*
G04 Scale: 100 percent, Rotated: No, Reflected: No *
G04 Dimensions in millimeters *
G04 leading zeros omitted , absolute positions ,4 integer and 5 decimal *
%FSLAX45Y45*%
%MOMM*%

%ADD24C,0.1200*%
%ADD29C,2.2032*%
%ADD30C,2.0032*%
%ADD33C,1.9532*%

%LPD*%
G36*
X4897882Y136601D02*
G01*
X4895596Y136245D01*
X4893614Y135331D01*
X4891938Y133807D01*
X4890516Y131775D01*
X4840478Y48209D01*
X4857750Y48209D01*
X4897374Y115265D01*
X4916932Y82499D01*
X4890008Y82499D01*
X4882896Y70053D01*
X4924044Y70053D01*
X4937252Y48209D01*
X4955540Y48209D01*
X4905248Y131775D01*
X4903825Y133807D01*
X4902250Y135331D01*
X4900269Y136245D01*
G37*
G36*
X6155690Y135331D02*
G01*
X6205982Y52019D01*
X6207404Y49936D01*
X6209080Y48310D01*
X6211062Y47294D01*
X6213348Y46939D01*
X6215532Y47294D01*
X6217513Y48310D01*
X6219240Y49936D01*
X6220714Y52019D01*
X6271006Y135331D01*
X6253480Y135331D01*
X6213856Y68275D01*
X6174232Y135331D01*
G37*
G36*
X6070600Y135331D02*
G01*
X6070600Y48209D01*
X6148578Y48209D01*
X6148578Y63449D01*
X6085586Y63449D01*
X6085586Y120091D01*
X6148324Y120091D01*
X6148324Y135331D01*
G37*
G36*
X5964936Y135331D02*
G01*
X5964936Y120091D01*
X6015482Y120091D01*
X6021171Y119532D01*
X6026353Y118008D01*
X6031026Y115519D01*
X6034989Y112166D01*
X6038189Y108051D01*
X6040628Y103276D01*
X6042152Y97840D01*
X6042660Y91897D01*
X6042152Y86004D01*
X6040628Y80568D01*
X6038189Y75742D01*
X6034989Y71577D01*
X6031026Y68173D01*
X6026353Y65582D01*
X6021171Y64008D01*
X6015482Y63449D01*
X5980176Y63449D01*
X5980176Y120091D01*
X5964936Y120091D01*
X5964936Y48209D01*
X6015482Y48209D01*
X6021476Y48615D01*
X6027166Y49733D01*
X6032500Y51612D01*
X6037427Y54152D01*
X6041898Y57302D01*
X6045911Y61010D01*
X6049416Y65227D01*
X6052362Y69951D01*
X6054750Y75082D01*
X6056477Y80619D01*
X6057544Y86512D01*
X6057900Y92659D01*
X6057544Y98806D01*
X6056477Y104648D01*
X6054750Y110032D01*
X6052362Y115011D01*
X6049416Y119481D01*
X6045911Y123494D01*
X6041898Y127000D01*
X6037427Y129895D01*
X6032500Y132232D01*
X6027166Y133908D01*
X6021476Y134975D01*
X6015482Y135331D01*
G37*
G36*
X5842508Y135331D02*
G01*
X5842508Y48209D01*
X5920486Y48209D01*
X5920486Y63449D01*
X5857494Y63449D01*
X5857494Y120091D01*
X5920486Y120091D01*
X5920486Y135331D01*
G37*
G36*
X5762498Y135331D02*
G01*
X5756300Y134823D01*
X5750915Y133451D01*
X5746292Y131267D01*
X5742482Y128371D01*
X5739485Y124815D01*
X5737301Y120650D01*
X5736031Y115976D01*
X5735574Y110947D01*
X5736031Y105714D01*
X5737402Y100939D01*
X5739638Y96723D01*
X5742736Y93065D01*
X5746546Y90119D01*
X5751118Y87884D01*
X5756351Y86512D01*
X5762244Y86055D01*
X5802376Y86055D01*
X5807811Y85344D01*
X5811774Y83210D01*
X5814212Y79705D01*
X5815076Y74879D01*
X5814212Y70205D01*
X5811774Y66598D01*
X5807811Y64262D01*
X5802376Y63449D01*
X5736844Y63449D01*
X5736844Y48209D01*
X5802376Y48209D01*
X5808776Y48717D01*
X5814314Y50139D01*
X5818936Y52425D01*
X5822696Y55524D01*
X5825591Y59283D01*
X5827674Y63652D01*
X5828893Y68529D01*
X5829300Y73863D01*
X5828842Y79756D01*
X5827572Y84836D01*
X5825388Y89154D01*
X5822391Y92710D01*
X5818581Y95453D01*
X5813958Y97434D01*
X5808573Y98602D01*
X5802376Y99009D01*
X5762244Y99009D01*
X5757773Y99720D01*
X5754319Y101752D01*
X5752084Y105003D01*
X5751322Y109423D01*
X5752084Y113842D01*
X5754268Y117246D01*
X5757773Y119329D01*
X5762498Y120091D01*
X5824982Y120091D01*
X5824982Y135331D01*
G37*
G36*
X5626354Y135331D02*
G01*
X5626354Y48209D01*
X5641594Y48209D01*
X5641594Y120091D01*
X5689092Y120091D01*
X5696051Y119075D01*
X5701233Y115976D01*
X5704484Y110744D01*
X5705602Y103327D01*
X5704535Y95859D01*
X5701436Y90373D01*
X5696254Y86969D01*
X5689092Y85801D01*
X5652770Y85801D01*
X5652770Y72339D01*
X5685282Y72339D01*
X5707380Y48209D01*
X5728970Y48209D01*
X5702808Y74625D01*
X5706770Y76504D01*
X5710275Y78943D01*
X5713323Y81940D01*
X5715863Y85394D01*
X5717895Y89306D01*
X5719368Y93675D01*
X5720283Y98399D01*
X5720588Y103581D01*
X5720029Y110540D01*
X5718454Y116789D01*
X5715863Y122224D01*
X5712256Y126796D01*
X5707786Y130454D01*
X5702350Y133096D01*
X5696153Y134772D01*
X5689092Y135331D01*
G37*
G36*
X5535422Y135331D02*
G01*
X5535422Y48209D01*
X5613400Y48209D01*
X5613400Y63449D01*
X5550408Y63449D01*
X5550408Y120091D01*
X5613146Y120091D01*
X5613146Y135331D01*
G37*
G36*
X5410708Y135331D02*
G01*
X5461000Y52019D01*
X5462422Y49936D01*
X5464098Y48310D01*
X5466080Y47294D01*
X5468366Y46939D01*
X5470550Y47294D01*
X5472531Y48310D01*
X5474258Y49936D01*
X5475732Y52019D01*
X5526024Y135331D01*
X5508498Y135331D01*
X5468874Y68275D01*
X5429250Y135331D01*
G37*
G36*
X5385308Y135331D02*
G01*
X5385308Y48209D01*
X5400548Y48209D01*
X5400548Y135331D01*
G37*
G36*
X5293106Y135331D02*
G01*
X5293106Y120091D01*
X5326126Y120091D01*
X5326126Y48209D01*
X5341366Y48209D01*
X5341366Y120091D01*
X5374386Y120091D01*
X5374386Y135331D01*
G37*
G36*
X5202682Y135331D02*
G01*
X5202682Y120091D01*
X5235956Y120091D01*
X5235956Y48209D01*
X5251196Y48209D01*
X5251196Y120091D01*
X5284216Y120091D01*
X5284216Y135331D01*
G37*
G36*
X5176774Y135331D02*
G01*
X5176774Y48209D01*
X5192014Y48209D01*
X5192014Y135331D01*
G37*
G36*
X5070348Y135331D02*
G01*
X5070348Y120091D01*
X5120894Y120091D01*
X5126583Y119532D01*
X5131765Y118008D01*
X5136438Y115519D01*
X5140401Y112166D01*
X5143601Y108051D01*
X5146040Y103276D01*
X5147564Y97840D01*
X5148072Y91897D01*
X5147564Y86004D01*
X5146040Y80568D01*
X5143601Y75742D01*
X5140401Y71577D01*
X5136438Y68173D01*
X5131765Y65582D01*
X5126583Y64008D01*
X5120894Y63449D01*
X5085588Y63449D01*
X5085588Y120091D01*
X5070348Y120091D01*
X5070348Y48209D01*
X5120894Y48209D01*
X5126888Y48615D01*
X5132578Y49733D01*
X5137912Y51612D01*
X5142839Y54152D01*
X5147310Y57302D01*
X5151323Y61010D01*
X5154828Y65227D01*
X5157774Y69951D01*
X5160162Y75082D01*
X5161889Y80619D01*
X5162956Y86512D01*
X5163312Y92659D01*
X5162956Y98806D01*
X5161889Y104648D01*
X5160162Y110032D01*
X5157774Y115011D01*
X5154828Y119481D01*
X5151323Y123494D01*
X5147310Y127000D01*
X5142839Y129895D01*
X5137912Y132232D01*
X5132578Y133908D01*
X5126888Y134975D01*
X5120894Y135331D01*
G37*
G36*
X4964938Y135331D02*
G01*
X4964938Y120091D01*
X5015484Y120091D01*
X5021173Y119532D01*
X5026355Y118008D01*
X5031028Y115519D01*
X5034991Y112166D01*
X5038191Y108051D01*
X5040630Y103276D01*
X5042154Y97840D01*
X5042662Y91897D01*
X5042154Y86004D01*
X5040630Y80568D01*
X5038191Y75742D01*
X5034991Y71577D01*
X5031028Y68173D01*
X5026355Y65582D01*
X5021173Y64008D01*
X5015484Y63449D01*
X4980178Y63449D01*
X4980178Y120091D01*
X4964938Y120091D01*
X4964938Y48209D01*
X5015484Y48209D01*
X5021478Y48615D01*
X5027168Y49733D01*
X5032502Y51612D01*
X5037429Y54152D01*
X5041900Y57302D01*
X5045913Y61010D01*
X5049418Y65227D01*
X5052364Y69951D01*
X5054752Y75082D01*
X5056479Y80619D01*
X5057546Y86512D01*
X5057902Y92659D01*
X5057546Y98806D01*
X5056479Y104648D01*
X5054752Y110032D01*
X5052364Y115011D01*
X5049418Y119481D01*
X5045913Y123494D01*
X5041900Y127000D01*
X5037429Y129895D01*
X5032502Y132232D01*
X5027168Y133908D01*
X5021478Y134975D01*
X5015484Y135331D01*
G37*
G36*
X6096762Y99009D02*
G01*
X6096762Y86055D01*
X6145022Y86055D01*
X6145022Y99009D01*
G37*
G36*
X5868670Y99009D02*
G01*
X5868670Y86055D01*
X5917184Y86055D01*
X5917184Y99009D01*
G37*
G36*
X5561584Y99009D02*
G01*
X5561584Y86055D01*
X5609844Y86055D01*
X5609844Y99009D01*
G37*
G36*
X5941568Y63449D02*
G01*
X5938418Y62788D01*
X5935929Y61112D01*
X5934303Y58521D01*
X5933694Y55321D01*
X5934303Y52120D01*
X5935929Y49530D01*
X5938418Y47802D01*
X5941568Y47193D01*
X5944920Y47802D01*
X5947562Y49530D01*
X5949340Y52120D01*
X5949950Y55321D01*
X5949340Y58521D01*
X5947562Y61112D01*
X5944920Y62788D01*
G37*
D24*
X673100Y2968437D02*
G01*
X673100Y2872933D01*
X736854Y2968437D02*
G01*
X736854Y2872933D01*
X673100Y2922971D02*
G01*
X736854Y2922971D01*
X766825Y2909509D02*
G01*
X821181Y2909509D01*
X821181Y2918399D01*
X816609Y2927543D01*
X812291Y2932115D01*
X803147Y2936687D01*
X789431Y2936687D01*
X780288Y2932115D01*
X771397Y2922971D01*
X766825Y2909509D01*
X766825Y2900365D01*
X771397Y2886649D01*
X780288Y2877505D01*
X789431Y2872933D01*
X803147Y2872933D01*
X812291Y2877505D01*
X821181Y2886649D01*
X905763Y2936687D02*
G01*
X905763Y2872933D01*
X905763Y2922971D02*
G01*
X896620Y2932115D01*
X887729Y2936687D01*
X874013Y2936687D01*
X864870Y2932115D01*
X855725Y2922971D01*
X851408Y2909509D01*
X851408Y2900365D01*
X855725Y2886649D01*
X864870Y2877505D01*
X874013Y2872933D01*
X887729Y2872933D01*
X896620Y2877505D01*
X905763Y2886649D01*
X949452Y2968437D02*
G01*
X949452Y2891221D01*
X954024Y2877505D01*
X963168Y2872933D01*
X972311Y2872933D01*
X935736Y2936687D02*
G01*
X967740Y2936687D01*
X1002284Y2968437D02*
G01*
X1006856Y2963865D01*
X1011174Y2968437D01*
X1006856Y2973009D01*
X1002284Y2968437D01*
X1006856Y2936687D02*
G01*
X1006856Y2872933D01*
X1041400Y2936687D02*
G01*
X1041400Y2872933D01*
X1041400Y2918399D02*
G01*
X1054861Y2932115D01*
X1064006Y2936687D01*
X1077722Y2936687D01*
X1086611Y2932115D01*
X1091184Y2918399D01*
X1091184Y2872933D01*
X1175765Y2936687D02*
G01*
X1175765Y2864043D01*
X1171193Y2850327D01*
X1166622Y2845755D01*
X1157731Y2841183D01*
X1144015Y2841183D01*
X1134872Y2845755D01*
X1175765Y2922971D02*
G01*
X1166622Y2932115D01*
X1157731Y2936687D01*
X1144015Y2936687D01*
X1134872Y2932115D01*
X1125727Y2922971D01*
X1121156Y2909509D01*
X1121156Y2900365D01*
X1125727Y2886649D01*
X1134872Y2877505D01*
X1144015Y2872933D01*
X1157731Y2872933D01*
X1166622Y2877505D01*
X1175765Y2886649D01*
X1343913Y2945831D02*
G01*
X1339341Y2954975D01*
X1330452Y2963865D01*
X1321308Y2968437D01*
X1303020Y2968437D01*
X1294129Y2963865D01*
X1284986Y2954975D01*
X1280413Y2945831D01*
X1275841Y2932115D01*
X1275841Y2909509D01*
X1280413Y2895793D01*
X1284986Y2886649D01*
X1294129Y2877505D01*
X1303020Y2872933D01*
X1321308Y2872933D01*
X1330452Y2877505D01*
X1339341Y2886649D01*
X1343913Y2895793D01*
X1428495Y2936687D02*
G01*
X1428495Y2872933D01*
X1428495Y2922971D02*
G01*
X1419352Y2932115D01*
X1410461Y2936687D01*
X1396745Y2936687D01*
X1387602Y2932115D01*
X1378458Y2922971D01*
X1373886Y2909509D01*
X1373886Y2900365D01*
X1378458Y2886649D01*
X1387602Y2877505D01*
X1396745Y2872933D01*
X1410461Y2872933D01*
X1419352Y2877505D01*
X1428495Y2886649D01*
X1458468Y2936687D02*
G01*
X1458468Y2872933D01*
X1458468Y2909509D02*
G01*
X1463040Y2922971D01*
X1472184Y2932115D01*
X1481327Y2936687D01*
X1495043Y2936687D01*
X1538477Y2968437D02*
G01*
X1538477Y2891221D01*
X1543050Y2877505D01*
X1552193Y2872933D01*
X1561338Y2872933D01*
X1525015Y2936687D02*
G01*
X1556765Y2936687D01*
X1591309Y2936687D02*
G01*
X1591309Y2872933D01*
X1591309Y2909509D02*
G01*
X1595881Y2922971D01*
X1605025Y2932115D01*
X1613915Y2936687D01*
X1627631Y2936687D01*
X1657604Y2968437D02*
G01*
X1662175Y2963865D01*
X1666747Y2968437D01*
X1662175Y2973009D01*
X1657604Y2968437D01*
X1662175Y2936687D02*
G01*
X1662175Y2872933D01*
X1751329Y2968437D02*
G01*
X1751329Y2872933D01*
X1751329Y2922971D02*
G01*
X1742186Y2932115D01*
X1733041Y2936687D01*
X1719579Y2936687D01*
X1710436Y2932115D01*
X1701291Y2922971D01*
X1696720Y2909509D01*
X1696720Y2900365D01*
X1701291Y2886649D01*
X1710436Y2877505D01*
X1719579Y2872933D01*
X1733041Y2872933D01*
X1742186Y2877505D01*
X1751329Y2886649D01*
X1835911Y2936687D02*
G01*
X1835911Y2864043D01*
X1831340Y2850327D01*
X1826768Y2845755D01*
X1817624Y2841183D01*
X1803908Y2841183D01*
X1795018Y2845755D01*
X1835911Y2922971D02*
G01*
X1826768Y2932115D01*
X1817624Y2936687D01*
X1803908Y2936687D01*
X1795018Y2932115D01*
X1785874Y2922971D01*
X1781302Y2909509D01*
X1781302Y2900365D01*
X1785874Y2886649D01*
X1795018Y2877505D01*
X1803908Y2872933D01*
X1817624Y2872933D01*
X1826768Y2877505D01*
X1835911Y2886649D01*
X1865884Y2909509D02*
G01*
X1920493Y2909509D01*
X1920493Y2918399D01*
X1915922Y2927543D01*
X1911350Y2932115D01*
X1902206Y2936687D01*
X1888490Y2936687D01*
X1879345Y2932115D01*
X1870456Y2922971D01*
X1865884Y2909509D01*
X1865884Y2900365D01*
X1870456Y2886649D01*
X1879345Y2877505D01*
X1888490Y2872933D01*
X1902206Y2872933D01*
X1911350Y2877505D01*
X1920493Y2886649D01*
X2603500Y2968437D02*
G01*
X2603500Y2872933D01*
X2603500Y2968437D02*
G01*
X2639822Y2872933D01*
X2676143Y2968437D02*
G01*
X2639822Y2872933D01*
X2676143Y2968437D02*
G01*
X2676143Y2872933D01*
X2760725Y2936687D02*
G01*
X2760725Y2872933D01*
X2760725Y2922971D02*
G01*
X2751581Y2932115D01*
X2742691Y2936687D01*
X2728975Y2936687D01*
X2719831Y2932115D01*
X2710688Y2922971D01*
X2706115Y2909509D01*
X2706115Y2900365D01*
X2710688Y2886649D01*
X2719831Y2877505D01*
X2728975Y2872933D01*
X2742691Y2872933D01*
X2751581Y2877505D01*
X2760725Y2886649D01*
X2840736Y2922971D02*
G01*
X2836163Y2932115D01*
X2822702Y2936687D01*
X2808986Y2936687D01*
X2795270Y2932115D01*
X2790697Y2922971D01*
X2795270Y2914081D01*
X2804413Y2909509D01*
X2827020Y2904937D01*
X2836163Y2900365D01*
X2840736Y2891221D01*
X2840736Y2886649D01*
X2836163Y2877505D01*
X2822702Y2872933D01*
X2808986Y2872933D01*
X2795270Y2877505D01*
X2790697Y2886649D01*
X2884424Y2968437D02*
G01*
X2884424Y2891221D01*
X2888995Y2877505D01*
X2898140Y2872933D01*
X2907029Y2872933D01*
X2870708Y2936687D02*
G01*
X2902711Y2936687D01*
X2937256Y2909509D02*
G01*
X2991611Y2909509D01*
X2991611Y2918399D01*
X2987040Y2927543D01*
X2982468Y2932115D01*
X2973577Y2936687D01*
X2959861Y2936687D01*
X2950718Y2932115D01*
X2941574Y2922971D01*
X2937256Y2909509D01*
X2937256Y2900365D01*
X2941574Y2886649D01*
X2950718Y2877505D01*
X2959861Y2872933D01*
X2973577Y2872933D01*
X2982468Y2877505D01*
X2991611Y2886649D01*
X3021584Y2936687D02*
G01*
X3021584Y2872933D01*
X3021584Y2909509D02*
G01*
X3026156Y2922971D01*
X3035300Y2932115D01*
X3044443Y2936687D01*
X3058159Y2936687D01*
X3226308Y2945831D02*
G01*
X3221736Y2954975D01*
X3212591Y2963865D01*
X3203447Y2968437D01*
X3185413Y2968437D01*
X3176270Y2963865D01*
X3167125Y2954975D01*
X3162554Y2945831D01*
X3157981Y2932115D01*
X3157981Y2909509D01*
X3162554Y2895793D01*
X3167125Y2886649D01*
X3176270Y2877505D01*
X3185413Y2872933D01*
X3203447Y2872933D01*
X3212591Y2877505D01*
X3221736Y2886649D01*
X3226308Y2895793D01*
X3310890Y2936687D02*
G01*
X3310890Y2872933D01*
X3310890Y2922971D02*
G01*
X3301745Y2932115D01*
X3292602Y2936687D01*
X3278886Y2936687D01*
X3269741Y2932115D01*
X3260852Y2922971D01*
X3256279Y2909509D01*
X3256279Y2900365D01*
X3260852Y2886649D01*
X3269741Y2877505D01*
X3278886Y2872933D01*
X3292602Y2872933D01*
X3301745Y2877505D01*
X3310890Y2886649D01*
X3340861Y2968437D02*
G01*
X3340861Y2872933D01*
X3340861Y2922971D02*
G01*
X3349752Y2932115D01*
X3358895Y2936687D01*
X3372611Y2936687D01*
X3381756Y2932115D01*
X3390645Y2922971D01*
X3395218Y2909509D01*
X3395218Y2900365D01*
X3390645Y2886649D01*
X3381756Y2877505D01*
X3372611Y2872933D01*
X3358895Y2872933D01*
X3349752Y2877505D01*
X3340861Y2886649D01*
X3425443Y2968437D02*
G01*
X3425443Y2872933D01*
X3455415Y2909509D02*
G01*
X3509772Y2909509D01*
X3509772Y2918399D01*
X3505200Y2927543D01*
X3500881Y2932115D01*
X3491738Y2936687D01*
X3478022Y2936687D01*
X3468877Y2932115D01*
X3459988Y2922971D01*
X3455415Y2909509D01*
X3455415Y2900365D01*
X3459988Y2886649D01*
X3468877Y2877505D01*
X3478022Y2872933D01*
X3491738Y2872933D01*
X3500881Y2877505D01*
X3509772Y2886649D01*
X3759200Y149037D02*
G01*
X3759200Y53533D01*
X3822954Y149037D02*
G01*
X3822954Y53533D01*
X3759200Y103571D02*
G01*
X3822954Y103571D01*
X3875531Y117287D02*
G01*
X3866388Y112715D01*
X3857497Y103571D01*
X3852925Y90109D01*
X3852925Y80965D01*
X3857497Y67249D01*
X3866388Y58105D01*
X3875531Y53533D01*
X3889247Y53533D01*
X3898391Y58105D01*
X3907281Y67249D01*
X3911854Y80965D01*
X3911854Y90109D01*
X3907281Y103571D01*
X3898391Y112715D01*
X3889247Y117287D01*
X3875531Y117287D01*
X3955541Y149037D02*
G01*
X3955541Y71821D01*
X3960113Y58105D01*
X3969258Y53533D01*
X3978402Y53533D01*
X3941825Y117287D02*
G01*
X3973829Y117287D01*
X4008374Y149037D02*
G01*
X4008374Y53533D01*
X4008374Y149037D02*
G01*
X4067302Y149037D01*
X4008374Y103571D02*
G01*
X4044695Y103571D01*
X4008374Y53533D02*
G01*
X4067302Y53533D01*
X4097274Y117287D02*
G01*
X4097274Y53533D01*
X4097274Y98999D02*
G01*
X4110990Y112715D01*
X4120134Y117287D01*
X4133850Y117287D01*
X4142740Y112715D01*
X4147311Y98999D01*
X4147311Y53533D01*
X4231893Y149037D02*
G01*
X4231893Y53533D01*
X4231893Y103571D02*
G01*
X4222750Y112715D01*
X4213859Y117287D01*
X4200143Y117287D01*
X4191000Y112715D01*
X4181856Y103571D01*
X4177284Y90109D01*
X4177284Y80965D01*
X4181856Y67249D01*
X4191000Y58105D01*
X4200143Y53533D01*
X4213859Y53533D01*
X4222750Y58105D01*
X4231893Y67249D01*
X4331970Y149037D02*
G01*
X4331970Y53533D01*
X4331970Y149037D02*
G01*
X4390897Y149037D01*
X4331970Y103571D02*
G01*
X4368291Y103571D01*
X4475479Y117287D02*
G01*
X4475479Y53533D01*
X4475479Y103571D02*
G01*
X4466590Y112715D01*
X4457445Y117287D01*
X4443729Y117287D01*
X4434586Y112715D01*
X4425441Y103571D01*
X4421124Y90109D01*
X4421124Y80965D01*
X4425441Y67249D01*
X4434586Y58105D01*
X4443729Y53533D01*
X4457445Y53533D01*
X4466590Y58105D01*
X4475479Y67249D01*
X4505452Y117287D02*
G01*
X4505452Y53533D01*
X4505452Y98999D02*
G01*
X4519168Y112715D01*
X4528311Y117287D01*
X4542027Y117287D01*
X4550918Y112715D01*
X4555490Y98999D01*
X4555490Y53533D01*
X51561Y1026099D02*
G01*
X147065Y1026099D01*
X51561Y1026099D02*
G01*
X51561Y1066993D01*
X56134Y1080709D01*
X60706Y1085281D01*
X69595Y1089853D01*
X83311Y1089853D01*
X92456Y1085281D01*
X97027Y1080709D01*
X101600Y1066993D01*
X101600Y1026099D01*
X83311Y1119825D02*
G01*
X147065Y1119825D01*
X110490Y1119825D02*
G01*
X97027Y1124397D01*
X87884Y1133287D01*
X83311Y1142431D01*
X83311Y1156147D01*
X83311Y1208725D02*
G01*
X87884Y1199835D01*
X97027Y1190691D01*
X110490Y1186119D01*
X119634Y1186119D01*
X133350Y1190691D01*
X142493Y1199835D01*
X147065Y1208725D01*
X147065Y1222441D01*
X142493Y1231585D01*
X133350Y1240729D01*
X119634Y1245301D01*
X110490Y1245301D01*
X97027Y1240729D01*
X87884Y1231585D01*
X83311Y1222441D01*
X83311Y1208725D01*
X51561Y1275273D02*
G01*
X147065Y1275273D01*
X97027Y1275273D02*
G01*
X87884Y1284163D01*
X83311Y1293307D01*
X83311Y1307023D01*
X87884Y1316167D01*
X97027Y1325311D01*
X110490Y1329629D01*
X119634Y1329629D01*
X133350Y1325311D01*
X142493Y1316167D01*
X147065Y1307023D01*
X147065Y1293307D01*
X142493Y1284163D01*
X133350Y1275273D01*
X110490Y1359855D02*
G01*
X110490Y1414211D01*
X101600Y1414211D01*
X92456Y1409639D01*
X87884Y1405067D01*
X83311Y1396177D01*
X83311Y1382461D01*
X87884Y1373317D01*
X97027Y1364173D01*
X110490Y1359855D01*
X119634Y1359855D01*
X133350Y1364173D01*
X142493Y1373317D01*
X147065Y1382461D01*
X147065Y1396177D01*
X142493Y1405067D01*
X133350Y1414211D01*
X51561Y1514287D02*
G01*
X147065Y1514287D01*
X51561Y1578041D02*
G01*
X147065Y1578041D01*
X97027Y1514287D02*
G01*
X97027Y1578041D01*
X110490Y1608013D02*
G01*
X110490Y1662369D01*
X101600Y1662369D01*
X92456Y1657797D01*
X87884Y1653479D01*
X83311Y1644335D01*
X83311Y1630619D01*
X87884Y1621475D01*
X97027Y1612585D01*
X110490Y1608013D01*
X119634Y1608013D01*
X133350Y1612585D01*
X142493Y1621475D01*
X147065Y1630619D01*
X147065Y1644335D01*
X142493Y1653479D01*
X133350Y1662369D01*
X83311Y1746951D02*
G01*
X147065Y1746951D01*
X97027Y1746951D02*
G01*
X87884Y1737807D01*
X83311Y1728917D01*
X83311Y1715201D01*
X87884Y1706057D01*
X97027Y1696913D01*
X110490Y1692341D01*
X119634Y1692341D01*
X133350Y1696913D01*
X142493Y1706057D01*
X147065Y1715201D01*
X147065Y1728917D01*
X142493Y1737807D01*
X133350Y1746951D01*
X51561Y1831533D02*
G01*
X147065Y1831533D01*
X97027Y1831533D02*
G01*
X87884Y1822389D01*
X83311Y1813245D01*
X83311Y1799783D01*
X87884Y1790639D01*
X97027Y1781495D01*
X110490Y1776923D01*
X119634Y1776923D01*
X133350Y1781495D01*
X142493Y1790639D01*
X147065Y1799783D01*
X147065Y1813245D01*
X142493Y1822389D01*
X133350Y1831533D01*
X110490Y1861505D02*
G01*
X110490Y1916115D01*
X101600Y1916115D01*
X92456Y1911543D01*
X87884Y1906971D01*
X83311Y1897827D01*
X83311Y1884365D01*
X87884Y1875221D01*
X97027Y1866077D01*
X110490Y1861505D01*
X119634Y1861505D01*
X133350Y1866077D01*
X142493Y1875221D01*
X147065Y1884365D01*
X147065Y1897827D01*
X142493Y1906971D01*
X133350Y1916115D01*
X83311Y1946087D02*
G01*
X147065Y1946087D01*
X110490Y1946087D02*
G01*
X97027Y1950659D01*
X87884Y1959803D01*
X83311Y1968947D01*
X83311Y1982409D01*
X1232154Y135575D02*
G01*
X1223009Y144465D01*
X1209293Y149037D01*
X1191006Y149037D01*
X1177543Y144465D01*
X1168400Y135575D01*
X1168400Y126431D01*
X1172972Y117287D01*
X1177543Y112715D01*
X1186688Y108143D01*
X1213865Y98999D01*
X1223009Y94681D01*
X1227581Y90109D01*
X1232154Y80965D01*
X1232154Y67249D01*
X1223009Y58105D01*
X1209293Y53533D01*
X1191006Y53533D01*
X1177543Y58105D01*
X1168400Y67249D01*
X1262125Y90109D02*
G01*
X1316481Y90109D01*
X1316481Y98999D01*
X1311909Y108143D01*
X1307591Y112715D01*
X1298447Y117287D01*
X1284731Y117287D01*
X1275588Y112715D01*
X1266697Y103571D01*
X1262125Y90109D01*
X1262125Y80965D01*
X1266697Y67249D01*
X1275588Y58105D01*
X1284731Y53533D01*
X1298447Y53533D01*
X1307591Y58105D01*
X1316481Y67249D01*
X1346708Y117287D02*
G01*
X1346708Y53533D01*
X1346708Y90109D02*
G01*
X1351025Y103571D01*
X1360170Y112715D01*
X1369313Y117287D01*
X1383029Y117287D01*
X1413002Y117287D02*
G01*
X1440179Y53533D01*
X1467611Y117287D02*
G01*
X1440179Y53533D01*
X1520190Y117287D02*
G01*
X1511045Y112715D01*
X1502156Y103571D01*
X1497584Y90109D01*
X1497584Y80965D01*
X1502156Y67249D01*
X1511045Y58105D01*
X1520190Y53533D01*
X1533906Y53533D01*
X1543050Y58105D01*
X1551940Y67249D01*
X1556511Y80965D01*
X1556511Y90109D01*
X1551940Y103571D01*
X1543050Y112715D01*
X1533906Y117287D01*
X1520190Y117287D01*
X1866900Y149037D02*
G01*
X1866900Y53533D01*
X1866900Y149037D02*
G01*
X1907793Y149037D01*
X1921509Y144465D01*
X1926081Y139893D01*
X1930654Y131003D01*
X1930654Y121859D01*
X1926081Y112715D01*
X1921509Y108143D01*
X1907793Y103571D01*
X1866900Y103571D02*
G01*
X1907793Y103571D01*
X1921509Y98999D01*
X1926081Y94681D01*
X1930654Y85537D01*
X1930654Y71821D01*
X1926081Y62677D01*
X1921509Y58105D01*
X1907793Y53533D01*
X1866900Y53533D01*
X1960625Y149037D02*
G01*
X1960625Y53533D01*
X2013204Y117287D02*
G01*
X2004059Y112715D01*
X1995170Y103571D01*
X1990597Y90109D01*
X1990597Y80965D01*
X1995170Y67249D01*
X2004059Y58105D01*
X2013204Y53533D01*
X2026920Y53533D01*
X2036063Y58105D01*
X2045208Y67249D01*
X2049525Y80965D01*
X2049525Y90109D01*
X2045208Y103571D01*
X2036063Y112715D01*
X2026920Y117287D01*
X2013204Y117287D01*
X2079752Y117287D02*
G01*
X2097786Y53533D01*
X2116074Y117287D02*
G01*
X2097786Y53533D01*
X2116074Y117287D02*
G01*
X2134108Y53533D01*
X2152395Y117287D02*
G01*
X2134108Y53533D01*
X2182368Y90109D02*
G01*
X2236977Y90109D01*
X2236977Y98999D01*
X2232406Y108143D01*
X2227834Y112715D01*
X2218690Y117287D01*
X2204974Y117287D01*
X2196084Y112715D01*
X2186940Y103571D01*
X2182368Y90109D01*
X2182368Y80965D01*
X2186940Y67249D01*
X2196084Y58105D01*
X2204974Y53533D01*
X2218690Y53533D01*
X2227834Y58105D01*
X2236977Y67249D01*
X2266950Y117287D02*
G01*
X2266950Y53533D01*
X2266950Y90109D02*
G01*
X2271522Y103571D01*
X2280411Y112715D01*
X2289556Y117287D01*
X2303272Y117287D01*
X2403347Y149037D02*
G01*
X2403347Y53533D01*
X2403347Y149037D02*
G01*
X2462275Y149037D01*
X2403347Y103571D02*
G01*
X2439670Y103571D01*
X2546858Y117287D02*
G01*
X2546858Y53533D01*
X2546858Y103571D02*
G01*
X2537713Y112715D01*
X2528824Y117287D01*
X2515108Y117287D01*
X2505963Y112715D01*
X2496820Y103571D01*
X2492247Y90109D01*
X2492247Y80965D01*
X2496820Y67249D01*
X2505963Y58105D01*
X2515108Y53533D01*
X2528824Y53533D01*
X2537713Y58105D01*
X2546858Y67249D01*
X2576829Y117287D02*
G01*
X2576829Y53533D01*
X2576829Y98999D02*
G01*
X2590545Y112715D01*
X2599690Y117287D01*
X2613152Y117287D01*
X2622295Y112715D01*
X2626868Y98999D01*
X2626868Y53533D01*
X2755900Y149037D02*
G01*
X2755900Y53533D01*
X2755900Y149037D02*
G01*
X2796793Y149037D01*
X2810509Y144465D01*
X2815081Y139893D01*
X2819654Y131003D01*
X2819654Y121859D01*
X2815081Y112715D01*
X2810509Y108143D01*
X2796793Y103571D01*
X2755900Y103571D02*
G01*
X2796793Y103571D01*
X2810509Y98999D01*
X2815081Y94681D01*
X2819654Y85537D01*
X2819654Y71821D01*
X2815081Y62677D01*
X2810509Y58105D01*
X2796793Y53533D01*
X2755900Y53533D01*
X2849625Y149037D02*
G01*
X2849625Y53533D01*
X2902204Y117287D02*
G01*
X2893059Y112715D01*
X2884170Y103571D01*
X2879597Y90109D01*
X2879597Y80965D01*
X2884170Y67249D01*
X2893059Y58105D01*
X2902204Y53533D01*
X2915920Y53533D01*
X2925063Y58105D01*
X2934208Y67249D01*
X2938525Y80965D01*
X2938525Y90109D01*
X2934208Y103571D01*
X2925063Y112715D01*
X2915920Y117287D01*
X2902204Y117287D01*
X2968752Y117287D02*
G01*
X2986786Y53533D01*
X3005074Y117287D02*
G01*
X2986786Y53533D01*
X3005074Y117287D02*
G01*
X3023108Y53533D01*
X3041395Y117287D02*
G01*
X3023108Y53533D01*
X3071368Y90109D02*
G01*
X3125977Y90109D01*
X3125977Y98999D01*
X3121406Y108143D01*
X3116834Y112715D01*
X3107690Y117287D01*
X3093974Y117287D01*
X3085084Y112715D01*
X3075940Y103571D01*
X3071368Y90109D01*
X3071368Y80965D01*
X3075940Y67249D01*
X3085084Y58105D01*
X3093974Y53533D01*
X3107690Y53533D01*
X3116834Y58105D01*
X3125977Y67249D01*
X3155950Y117287D02*
G01*
X3155950Y53533D01*
X3155950Y90109D02*
G01*
X3160522Y103571D01*
X3169411Y112715D01*
X3178556Y117287D01*
X3192272Y117287D01*
X3292347Y149037D02*
G01*
X3292347Y53533D01*
X3292347Y149037D02*
G01*
X3351275Y149037D01*
X3292347Y103571D02*
G01*
X3328670Y103571D01*
X3435858Y117287D02*
G01*
X3435858Y53533D01*
X3435858Y103571D02*
G01*
X3426713Y112715D01*
X3417824Y117287D01*
X3404108Y117287D01*
X3394963Y112715D01*
X3385820Y103571D01*
X3381247Y90109D01*
X3381247Y80965D01*
X3385820Y67249D01*
X3394963Y58105D01*
X3404108Y53533D01*
X3417824Y53533D01*
X3426713Y58105D01*
X3435858Y67249D01*
X3465829Y117287D02*
G01*
X3465829Y53533D01*
X3465829Y98999D02*
G01*
X3479545Y112715D01*
X3488690Y117287D01*
X3502152Y117287D01*
X3511295Y112715D01*
X3515868Y98999D01*
X3515868Y53533D01*
X64261Y2283399D02*
G01*
X159765Y2283399D01*
X159765Y2283399D02*
G01*
X159765Y2338009D01*
X64261Y2367981D02*
G01*
X159765Y2367981D01*
X64261Y2367981D02*
G01*
X64261Y2426909D01*
X109727Y2367981D02*
G01*
X109727Y2404303D01*
X159765Y2367981D02*
G01*
X159765Y2426909D01*
X64261Y2457135D02*
G01*
X159765Y2457135D01*
X64261Y2457135D02*
G01*
X64261Y2488885D01*
X68834Y2502601D01*
X77724Y2511491D01*
X86868Y2516063D01*
X100584Y2520635D01*
X123190Y2520635D01*
X136906Y2516063D01*
X146050Y2511491D01*
X155193Y2502601D01*
X159765Y2488885D01*
X159765Y2457135D01*
X109727Y2600645D02*
G01*
X100584Y2596073D01*
X96011Y2582611D01*
X96011Y2568895D01*
X100584Y2555179D01*
X109727Y2550607D01*
X118618Y2555179D01*
X123190Y2564323D01*
X127761Y2586929D01*
X132334Y2596073D01*
X141477Y2600645D01*
X146050Y2600645D01*
X155193Y2596073D01*
X159765Y2582611D01*
X159765Y2568895D01*
X155193Y2555179D01*
X146050Y2550607D01*
X4292600Y2968437D02*
G01*
X4292600Y2872933D01*
X4292600Y2968437D02*
G01*
X4351781Y2968437D01*
X4292600Y2922971D02*
G01*
X4328922Y2922971D01*
X4292600Y2872933D02*
G01*
X4351781Y2872933D01*
X4381754Y2936687D02*
G01*
X4431791Y2872933D01*
X4431791Y2936687D02*
G01*
X4381754Y2872933D01*
X4475225Y2968437D02*
G01*
X4475225Y2891221D01*
X4479797Y2877505D01*
X4488941Y2872933D01*
X4498086Y2872933D01*
X4461763Y2936687D02*
G01*
X4493513Y2936687D01*
X4528058Y2936687D02*
G01*
X4528058Y2872933D01*
X4528058Y2909509D02*
G01*
X4532629Y2922971D01*
X4541774Y2932115D01*
X4550663Y2936687D01*
X4564379Y2936687D01*
X4594352Y2936687D02*
G01*
X4594352Y2891221D01*
X4598924Y2877505D01*
X4608068Y2872933D01*
X4621784Y2872933D01*
X4630674Y2877505D01*
X4644390Y2891221D01*
X4644390Y2936687D02*
G01*
X4644390Y2872933D01*
X4728972Y2968437D02*
G01*
X4728972Y2872933D01*
X4728972Y2922971D02*
G01*
X4719827Y2932115D01*
X4710684Y2936687D01*
X4697222Y2936687D01*
X4688077Y2932115D01*
X4678934Y2922971D01*
X4674361Y2909509D01*
X4674361Y2900365D01*
X4678934Y2886649D01*
X4688077Y2877505D01*
X4697222Y2872933D01*
X4710684Y2872933D01*
X4719827Y2877505D01*
X4728972Y2886649D01*
X4758943Y2909509D02*
G01*
X4813554Y2909509D01*
X4813554Y2918399D01*
X4808981Y2927543D01*
X4804409Y2932115D01*
X4795265Y2936687D01*
X4781804Y2936687D01*
X4772659Y2932115D01*
X4763515Y2922971D01*
X4758943Y2909509D01*
X4758943Y2900365D01*
X4763515Y2886649D01*
X4772659Y2877505D01*
X4781804Y2872933D01*
X4795265Y2872933D01*
X4804409Y2877505D01*
X4813554Y2886649D01*
X4843525Y2936687D02*
G01*
X4843525Y2872933D01*
X4843525Y2909509D02*
G01*
X4848097Y2922971D01*
X4857241Y2932115D01*
X4866131Y2936687D01*
X4879847Y2936687D01*
X4979924Y2968437D02*
G01*
X4979924Y2872933D01*
X4979924Y2968437D02*
G01*
X5016245Y2872933D01*
X5052568Y2968437D02*
G01*
X5016245Y2872933D01*
X5052568Y2968437D02*
G01*
X5052568Y2872933D01*
X5105400Y2936687D02*
G01*
X5096256Y2932115D01*
X5087111Y2922971D01*
X5082540Y2909509D01*
X5082540Y2900365D01*
X5087111Y2886649D01*
X5096256Y2877505D01*
X5105400Y2872933D01*
X5118861Y2872933D01*
X5128006Y2877505D01*
X5137150Y2886649D01*
X5141722Y2900365D01*
X5141722Y2909509D01*
X5137150Y2922971D01*
X5128006Y2932115D01*
X5118861Y2936687D01*
X5105400Y2936687D01*
X5185409Y2968437D02*
G01*
X5185409Y2891221D01*
X5189981Y2877505D01*
X5198872Y2872933D01*
X5208015Y2872933D01*
X5171693Y2936687D02*
G01*
X5203443Y2936687D01*
X5260847Y2936687D02*
G01*
X5251704Y2932115D01*
X5242559Y2922971D01*
X5237988Y2909509D01*
X5237988Y2900365D01*
X5242559Y2886649D01*
X5251704Y2877505D01*
X5260847Y2872933D01*
X5274309Y2872933D01*
X5283454Y2877505D01*
X5292597Y2886649D01*
X5297170Y2900365D01*
X5297170Y2909509D01*
X5292597Y2922971D01*
X5283454Y2932115D01*
X5274309Y2936687D01*
X5260847Y2936687D01*
X5327141Y2936687D02*
G01*
X5327141Y2872933D01*
X5327141Y2909509D02*
G01*
X5331713Y2922971D01*
X5340858Y2932115D01*
X5349747Y2936687D01*
X5363463Y2936687D01*
X6387338Y2753299D02*
G01*
X6291834Y2753299D01*
X6387338Y2753299D02*
G01*
X6387338Y2712405D01*
X6382765Y2698689D01*
X6378193Y2694117D01*
X6369304Y2689545D01*
X6355588Y2689545D01*
X6346443Y2694117D01*
X6341872Y2698689D01*
X6337300Y2712405D01*
X6337300Y2753299D01*
X6387338Y2627823D02*
G01*
X6291834Y2627823D01*
X6387338Y2659573D02*
G01*
X6387338Y2596073D01*
X6369304Y2566101D02*
G01*
X6373875Y2556957D01*
X6387338Y2543241D01*
X6291834Y2543241D01*
X6387338Y2486091D02*
G01*
X6382765Y2499553D01*
X6369304Y2508697D01*
X6346443Y2513269D01*
X6332981Y2513269D01*
X6310122Y2508697D01*
X6296406Y2499553D01*
X6291834Y2486091D01*
X6291834Y2476947D01*
X6296406Y2463231D01*
X6310122Y2454087D01*
X6332981Y2449769D01*
X6346443Y2449769D01*
X6369304Y2454087D01*
X6382765Y2463231D01*
X6387338Y2476947D01*
X6387338Y2486091D01*
X6387338Y2392365D02*
G01*
X6382765Y2406081D01*
X6369304Y2415225D01*
X6346443Y2419543D01*
X6332981Y2419543D01*
X6310122Y2415225D01*
X6296406Y2406081D01*
X6291834Y2392365D01*
X6291834Y2383221D01*
X6296406Y2369759D01*
X6310122Y2360615D01*
X6332981Y2356043D01*
X6346443Y2356043D01*
X6369304Y2360615D01*
X6382765Y2369759D01*
X6387338Y2383221D01*
X6387338Y2392365D01*
X6387338Y2228789D02*
G01*
X6382765Y2237933D01*
X6373875Y2246823D01*
X6364731Y2251395D01*
X6351015Y2255967D01*
X6328409Y2255967D01*
X6314693Y2251395D01*
X6305550Y2246823D01*
X6296406Y2237933D01*
X6291834Y2228789D01*
X6291834Y2210501D01*
X6296406Y2201357D01*
X6305550Y2192467D01*
X6314693Y2187895D01*
X6328409Y2183323D01*
X6351015Y2183323D01*
X6364731Y2187895D01*
X6373875Y2192467D01*
X6382765Y2201357D01*
X6387338Y2210501D01*
X6387338Y2228789D01*
X6355588Y2153351D02*
G01*
X6310122Y2153351D01*
X6296406Y2148779D01*
X6291834Y2139635D01*
X6291834Y2125919D01*
X6296406Y2117029D01*
X6310122Y2103313D01*
X6355588Y2103313D02*
G01*
X6291834Y2103313D01*
X6387338Y2059625D02*
G01*
X6310122Y2059625D01*
X6296406Y2055053D01*
X6291834Y2045909D01*
X6291834Y2037019D01*
X6355588Y2073341D02*
G01*
X6355588Y2041591D01*
X5029200Y707837D02*
G01*
X5029200Y612333D01*
X5029200Y707837D02*
G01*
X5070093Y707837D01*
X5083809Y703265D01*
X5088381Y698693D01*
X5092954Y689803D01*
X5092954Y676087D01*
X5088381Y666943D01*
X5083809Y662371D01*
X5070093Y657799D01*
X5029200Y657799D01*
X5154675Y707837D02*
G01*
X5154675Y612333D01*
X5122925Y707837D02*
G01*
X5186425Y707837D01*
X5216397Y689803D02*
G01*
X5225541Y694375D01*
X5239258Y707837D01*
X5239258Y612333D01*
X5296408Y707837D02*
G01*
X5282945Y703265D01*
X5273802Y689803D01*
X5269229Y666943D01*
X5269229Y653481D01*
X5273802Y630621D01*
X5282945Y616905D01*
X5296408Y612333D01*
X5305552Y612333D01*
X5319268Y616905D01*
X5328411Y630621D01*
X5332729Y653481D01*
X5332729Y666943D01*
X5328411Y689803D01*
X5319268Y703265D01*
X5305552Y707837D01*
X5296408Y707837D01*
X5390134Y707837D02*
G01*
X5376418Y703265D01*
X5367274Y689803D01*
X5362956Y666943D01*
X5362956Y653481D01*
X5367274Y630621D01*
X5376418Y616905D01*
X5390134Y612333D01*
X5399277Y612333D01*
X5412740Y616905D01*
X5421884Y630621D01*
X5426456Y653481D01*
X5426456Y666943D01*
X5421884Y689803D01*
X5412740Y703265D01*
X5399277Y707837D01*
X5390134Y707837D01*
X5526531Y707837D02*
G01*
X5526531Y612333D01*
X5556504Y676087D02*
G01*
X5556504Y612333D01*
X5556504Y657799D02*
G01*
X5570220Y671515D01*
X5579109Y676087D01*
X5592825Y676087D01*
X5601970Y671515D01*
X5606541Y657799D01*
X5606541Y612333D01*
D29*
G01*
X1270000Y1874586D03*
G01*
X1270000Y1574586D03*
D30*
G01*
X3897198Y2273061D03*
G01*
X3897198Y2573060D03*
G01*
X3597198Y2273061D03*
G01*
X3597198Y2573060D03*
G01*
X3297199Y2273061D03*
G01*
X3297199Y2573060D03*
G01*
X2997200Y2273061D03*
G01*
X2997200Y2573060D03*
G01*
X2697200Y2273061D03*
G01*
X2697200Y2573060D03*
G01*
X2397201Y2273061D03*
G01*
X2397201Y2573060D03*
G01*
X2097201Y2273061D03*
G36*
X1996947Y2472883D02*
G01*
X1996947Y2673289D01*
X2197354Y2673289D01*
X2197354Y2472883D01*
G37*
G36*
X3775963Y433263D02*
G01*
X3775963Y628335D01*
X3971036Y628335D01*
X3971036Y433263D01*
G37*
D33*
G01*
X4123512Y530799D03*
G01*
X4373499Y530799D03*
G36*
X334263Y1144463D02*
G01*
X334263Y1339535D01*
X529336Y1339535D01*
X529336Y1144463D01*
G37*
G01*
X431800Y1492011D03*
G01*
X431800Y1741998D03*
G36*
X3712463Y1373063D02*
G01*
X3712463Y1593535D01*
X3932936Y1593535D01*
X3932936Y1373063D01*
G37*
D29*
G01*
X4102100Y1483299D03*
G01*
X4381500Y1483299D03*
G36*
X4271263Y941263D02*
G01*
X4271263Y1161735D01*
X4491736Y1161735D01*
X4491736Y941263D01*
G37*
G01*
X4102100Y1051499D03*
G01*
X3822700Y1051499D03*
G36*
X1578863Y915863D02*
G01*
X1578863Y1136335D01*
X1799336Y1136335D01*
X1799336Y915863D01*
G37*
G01*
X1409700Y1026099D03*
G01*
X1130300Y1026099D03*
G36*
X2836163Y941263D02*
G01*
X2836163Y1161735D01*
X3056636Y1161735D01*
X3056636Y941263D01*
G37*
G01*
X2667000Y1051499D03*
G01*
X2387600Y1051499D03*
G36*
X1125474Y433263D02*
G01*
X1125474Y628335D01*
X1320800Y628335D01*
X1320800Y433263D01*
G37*
D33*
G01*
X1473200Y530799D03*
G36*
X2014474Y433263D02*
G01*
X2014474Y628335D01*
X2209800Y628335D01*
X2209800Y433263D01*
G37*
G01*
X2362200Y530799D03*
G36*
X2903474Y433263D02*
G01*
X2903474Y628335D01*
X3098800Y628335D01*
X3098800Y433263D01*
G37*
G01*
X3251200Y530799D03*
G36*
X359663Y2202373D02*
G01*
X359663Y2397699D01*
X554736Y2397699D01*
X554736Y2202373D01*
G37*
G01*
X457200Y2550099D03*
G36*
X4863084Y2096709D02*
G01*
X4863084Y2297115D01*
X5063490Y2297115D01*
X5063490Y2096709D01*
G37*
D30*
G01*
X4663313Y2196886D03*
G01*
X4963312Y2496886D03*
G01*
X4663313Y2496886D03*
G36*
X5642609Y1677609D02*
G01*
X5642609Y1878015D01*
X5843015Y1878015D01*
X5843015Y1677609D01*
G37*
G01*
X5742785Y2077793D03*
G01*
X6042784Y1777794D03*
G01*
X6042784Y2077793D03*
G36*
X5169661Y996127D02*
G01*
X5169661Y1191199D01*
X5364734Y1191199D01*
X5364734Y996127D01*
G37*
D33*
G01*
X5517306Y1093678D03*
G01*
X5767293Y1093678D03*
G01*
X6017305Y1093678D03*
G36*
X2169159Y1512763D02*
G01*
X2169159Y1707835D01*
X2364231Y1707835D01*
X2364231Y1512763D01*
G37*
G01*
X2516606Y1610299D03*
G01*
X2766593Y1610299D03*
G01*
X3016605Y1610299D03*
G36*
X626363Y103063D02*
G01*
X626363Y323535D01*
X846836Y323535D01*
X846836Y103063D01*
G37*
D29*
G01*
X736600Y492699D03*
G01*
X736600Y772099D03*
M02*
